Varta-Bold.ufo
<glyph name="exclam" format="1">
  <advance width="632"/>
  <unicode hex="0021"/>
  <outline>
    <contour>
      <point x="206" y="1372" type="line" name="hr01"/>
      <point x="212" y="1149" type="line"/>
      <point x="243" y="432" type="line" name="hr02"/>
      <point x="389" y="432" type="line"/>
      <point x="420" y="1149" type="line"/>
      <point x="426" y="1372" type="line" name="hr03"/>
    </contour>
    <contour>
      <point x="316" y="279" type="curve" name="hr04" smooth="yes"/>
      <point x="235" y="279"/>
      <point x="171" y="215"/>
      <point x="171" y="126" type="curve" smooth="yes"/>
      <point x="171" y="40"/>
      <point x="235" y="-25"/>
      <point x="316" y="-25" type="curve" smooth="yes"/>
      <point x="397" y="-25"/>
      <point x="461" y="40"/>
      <point x="461" y="126" type="curve" smooth="yes"/>
      <point x="461" y="215"/>
      <point x="397" y="279"/>
    </contour>
  </outline>
</glyph>
<glyph name="numbersign" format="1">
  <advance width="1042"/>
  <unicode hex="0023"/>
  <outline>
    <contour>
      <point x="71" y="405" type="line" name="hr00"/>
      <point x="230" y="405" type="line"/>
      <point x="181" y="0" type="line"/>
      <point x="316" y="0" type="line"/>
      <point x="365" y="405" type="line"/>
      <point x="613" y="405" type="line"/>
      <point x="565" y="0" type="line"/>
      <point x="699" y="0" type="line"/>
      <point x="749" y="405" type="line"/>
      <point x="939" y="405" type="line"/>
      <point x="939" y="550" type="line"/>
      <point x="766" y="550" type="line"/>
      <point x="799" y="824" type="line"/>
      <point x="980" y="824" type="line"/>
      <point x="980" y="970" type="line"/>
      <point x="817" y="970" type="line"/>
      <point x="863" y="1331" type="line"/>
      <point x="729" y="1331" type="line"/>
      <point x="683" y="970" type="line"/>
      <point x="433" y="970" type="line"/>
      <point x="478" y="1331" type="line"/>
      <point x="345" y="1331" type="line"/>
      <point x="299" y="970" type="line"/>
      <point x="112" y="970" type="line"/>
      <point x="112" y="824" type="line"/>
      <point x="281" y="824" type="line"/>
      <point x="248" y="550" type="line"/>
      <point x="71" y="550" type="line"/>
    </contour>
    <contour>
      <point x="665" y="824" type="line"/>
      <point x="631" y="550" type="line"/>
      <point x="383" y="550" type="line"/>
      <point x="416" y="824" type="line"/>
    </contour>
  </outline>
</glyph>
<glyph name="percent" format="1">
  <advance width="1714"/>
  <unicode hex="0025"/>
  <outline>
    <contour>
      <point x="65" y="943" type="curve" name="hr00" smooth="yes"/>
      <point x="65" y="674"/>
      <point x="193" y="517"/>
      <point x="380" y="517" type="curve" smooth="yes"/>
      <point x="566" y="517"/>
      <point x="696" y="674"/>
      <point x="696" y="943" type="curve" smooth="yes"/>
      <point x="696" y="1212"/>
      <point x="566" y="1365"/>
      <point x="380" y="1365" type="curve" smooth="yes"/>
      <point x="193" y="1365"/>
      <point x="65" y="1212"/>
    </contour>
    <contour>
      <point x="1155" y="1365" type="line"/>
      <point x="422" y="-25" type="line"/>
      <point x="558" y="-25" type="line"/>
      <point x="1291" y="1365" type="line"/>
    </contour>
    <contour>
      <point x="536" y="943" type="curve" smooth="yes"/>
      <point x="536" y="739"/>
      <point x="470" y="646"/>
      <point x="380" y="646" type="curve" smooth="yes"/>
      <point x="288" y="646"/>
      <point x="223" y="739"/>
      <point x="223" y="943" type="curve" smooth="yes"/>
      <point x="223" y="1148"/>
      <point x="288" y="1237"/>
      <point x="380" y="1237" type="curve" smooth="yes"/>
      <point x="470" y="1237"/>
      <point x="536" y="1148"/>
    </contour>
    <contour>
      <point x="1019" y="401" type="curve" smooth="yes"/>
      <point x="1019" y="131"/>
      <point x="1147" y="-25"/>
      <point x="1335" y="-25" type="curve" smooth="yes"/>
      <point x="1521" y="-25"/>
      <point x="1651" y="131"/>
      <point x="1651" y="401" type="curve" smooth="yes"/>
      <point x="1651" y="669"/>
      <point x="1521" y="823"/>
      <point x="1335" y="823" type="curve" smooth="yes"/>
      <point x="1147" y="823"/>
      <point x="1019" y="669"/>
    </contour>
    <contour>
      <point x="1491" y="401" type="curve" smooth="yes"/>
      <point x="1491" y="197"/>
      <point x="1425" y="104"/>
      <point x="1335" y="104" type="curve" smooth="yes"/>
      <point x="1244" y="104"/>
      <point x="1178" y="197"/>
      <point x="1178" y="401" type="curve" smooth="yes"/>
      <point x="1178" y="606"/>
      <point x="1244" y="695"/>
      <point x="1335" y="695" type="curve" smooth="yes"/>
      <point x="1425" y="695"/>
      <point x="1491" y="606"/>
    </contour>
  </outline>
</glyph>
<glyph name="parenleft" format="1">
  <advance width="653"/>
  <unicode hex="0028"/>
  <outline>
    <contour>
      <point x="160" y="569" type="curve" name="hr00" smooth="yes"/>
      <point x="160" y="163"/>
      <point x="260" y="-86"/>
      <point x="430" y="-363" type="curve"/>
      <point x="567" y="-303" type="line"/>
      <point x="412" y="-40"/>
      <point x="342" y="228"/>
      <point x="342" y="569" type="curve" smooth="yes"/>
      <point x="342" y="911"/>
      <point x="412" y="1179"/>
      <point x="567" y="1441" type="curve"/>
      <point x="430" y="1501" type="line"/>
      <point x="260" y="1225"/>
      <point x="160" y="975"/>
    </contour>
  </outline>
</glyph>
<glyph name="asterisk" format="1">
  <advance width="887"/>
  <unicode hex="002A"/>
  <outline>
    <contour>
      <point x="310" y="1076" type="line" name="hr00"/>
      <point x="184" y="864" type="line"/>
      <point x="282" y="792" type="line"/>
      <point x="444" y="983" type="line"/>
      <point x="606" y="790" type="line"/>
      <point x="703" y="861" type="line"/>
      <point x="576" y="1076" type="line"/>
      <point x="796" y="1168" type="line"/>
      <point x="759" y="1283" type="line"/>
      <point x="525" y="1229" type="line"/>
      <point x="504" y="1474" type="line"/>
      <point x="382" y="1474" type="line"/>
      <point x="360" y="1229" type="line"/>
      <point x="127" y="1285" type="line"/>
      <point x="90" y="1170" type="line"/>
    </contour>
  </outline>
</glyph>
<glyph name="plus" format="1">
  <advance width="1042"/>
  <unicode hex="002B"/>
  <outline>
    <contour>
      <point x="70" y="596" type="line" name="hr00"/>
      <point x="437" y="596" type="line"/>
      <point x="437" y="205" type="line"/>
      <point x="604" y="205" type="line"/>
      <point x="604" y="596" type="line"/>
      <point x="972" y="596" type="line"/>
      <point x="972" y="755" type="line"/>
      <point x="604" y="755" type="line"/>
      <point x="604" y="1147" type="line"/>
      <point x="437" y="1147" type="line"/>
      <point x="437" y="755" type="line"/>
      <point x="70" y="755" type="line"/>
    </contour>
  </outline>
</glyph>
<glyph name="hyphen" format="1">
  <advance width="653"/>
  <unicode hex="002D"/>
  <outline>
    <contour>
      <point x="569" y="596" type="line" name="hr00"/>
      <point x="86" y="596" type="line"/>
      <point x="86" y="435" type="line"/>
      <point x="569" y="435" type="line"/>
    </contour>
  </outline>
</glyph>
<glyph name="period" format="1">
  <advance width="550"/>
  <unicode hex="002E"/>
  <outline>
    <contour>
      <point x="275" y="279" type="curve" name="hr00" smooth="yes"/>
      <point x="194" y="279"/>
      <point x="130" y="215"/>
      <point x="130" y="126" type="curve" smooth="yes"/>
      <point x="130" y="40"/>
      <point x="194" y="-25"/>
      <point x="275" y="-25" type="curve" smooth="yes"/>
      <point x="356" y="-25"/>
      <point x="420" y="40"/>
      <point x="420" y="126" type="curve" smooth="yes"/>
      <point x="420" y="215"/>
      <point x="356" y="279"/>
    </contour>
  </outline>
</glyph>
<glyph name="slash" format="1">
  <advance width="708"/>
  <unicode hex="002F"/>
  <outline>
    <contour>
      <point x="669" y="1454" type="line" name="hr00"/>
      <point x="518" y="1454" type="line"/>
      <point x="23" y="-328" type="line"/>
      <point x="175" y="-328" type="line"/>
    </contour>
  </outline>
</glyph>
<glyph name="two" format="1">
  <advance width="1042"/>
  <unicode hex="0032"/>
  <outline>
    <contour>
      <point x="80" y="127" type="curve" name="hr00"/>
      <point x="80" y="0" type="line"/>
      <point x="951" y="0" type="line"/>
      <point x="951" y="187" type="line"/>
      <point x="616" y="187" type="line" smooth="yes"/>
      <point x="551" y="187"/>
      <point x="467" y="180"/>
      <point x="398" y="173" type="curve"/>
      <point x="670" y="458"/>
      <point x="886" y="725"/>
      <point x="886" y="965" type="curve" smooth="yes"/>
      <point x="886" y="1211"/>
      <point x="727" y="1365"/>
      <point x="478" y="1365" type="curve" smooth="yes"/>
      <point x="302" y="1365"/>
      <point x="183" y="1295"/>
      <point x="67" y="1169" type="curve"/>
      <point x="189" y="1048" type="line"/>
      <point x="261" y="1129"/>
      <point x="347" y="1191"/>
      <point x="450" y="1191" type="curve" smooth="yes"/>
      <point x="597" y="1191"/>
      <point x="675" y="1101"/>
      <point x="675" y="951" type="curve" smooth="yes"/>
      <point x="675" y="751"/>
      <point x="449" y="489"/>
    </contour>
  </outline>
</glyph>
<glyph name="five" format="1">
  <advance width="1042"/>
  <unicode hex="0035"/>
  <outline>
    <contour>
      <point x="162" y="292" type="curve" name="hr00"/>
      <point x="60" y="152" type="line"/>
      <point x="155" y="56"/>
      <point x="279" y="-25"/>
      <point x="489" y="-25" type="curve" smooth="yes"/>
      <point x="727" y="-25"/>
      <point x="944" y="143"/>
      <point x="944" y="435" type="curve" smooth="yes"/>
      <point x="944" y="725"/>
      <point x="767" y="865"/>
      <point x="535" y="865" type="curve" smooth="yes"/>
      <point x="465" y="865"/>
      <point x="412" y="849"/>
      <point x="355" y="820" type="curve"/>
      <point x="385" y="1156" type="line"/>
      <point x="881" y="1156" type="line"/>
      <point x="881" y="1343" type="line"/>
      <point x="195" y="1343" type="line"/>
      <point x="155" y="699" type="line"/>
      <point x="262" y="631" type="line"/>
      <point x="340" y="682"/>
      <point x="389" y="705"/>
      <point x="473" y="705" type="curve" smooth="yes"/>
      <point x="637" y="705"/>
      <point x="724" y="591"/>
      <point x="724" y="429" type="curve" smooth="yes"/>
      <point x="724" y="259"/>
      <point x="613" y="155"/>
      <point x="463" y="155" type="curve" smooth="yes"/>
      <point x="325" y="155"/>
      <point x="240" y="217"/>
    </contour>
  </outline>
</glyph>
<glyph name="less" format="1">
  <advance width="1042"/>
  <unicode hex="003C"/>
  <outline>
    <contour>
      <point x="972" y="1113" type="line" name="hr01"/>
      <point x="70" y="762" type="line" name="hr02"/>
      <point x="70" y="598" type="line"/>
      <point x="972" y="247" type="line"/>
      <point x="972" y="432" type="line"/>
      <point x="293" y="676" type="line"/>
      <point x="293" y="684" type="line"/>
      <point x="972" y="928" type="line"/>
    </contour>
  </outline>
</glyph>
<glyph name="equal" format="1">
  <advance width="1042"/>
  <unicode hex="003D"/>
  <outline>
    <contour>
      <point x="972" y="982" type="line" name="hr00"/>
      <point x="70" y="982" type="line"/>
      <point x="70" y="823" type="line"/>
      <point x="972" y="823" type="line"/>
    </contour>
    <contour>
      <point x="972" y="529" type="line"/>
      <point x="70" y="529" type="line"/>
      <point x="70" y="370" type="line"/>
      <point x="972" y="370" type="line"/>
    </contour>
  </outline>
</glyph>
<glyph name="question" format="1">
  <advance width="900"/>
  <unicode hex="003F"/>
  <outline>
    <contour>
      <point x="595" y="1054" type="curve" name="hr01" smooth="yes"/>
      <point x="595" y="815"/>
      <point x="260" y="742"/>
      <point x="323" y="432" type="curve"/>
      <point x="515" y="432" type="line"/>
      <point x="472" y="705"/>
      <point x="806" y="762"/>
      <point x="806" y="1070" type="curve" smooth="yes"/>
      <point x="806" y="1302"/>
      <point x="667" y="1397"/>
      <point x="441" y="1397" type="curve" smooth="yes"/>
      <point x="289" y="1397"/>
      <point x="164" y="1334"/>
      <point x="75" y="1231" type="curve"/>
      <point x="198" y="1113" type="line"/>
      <point x="259" y="1179"/>
      <point x="321" y="1215"/>
      <point x="417" y="1215" type="curve" smooth="yes"/>
      <point x="534" y="1215"/>
      <point x="595" y="1168"/>
    </contour>
    <contour>
      <point x="425" y="279" type="curve" name="hr02" smooth="yes"/>
      <point x="344" y="279"/>
      <point x="282" y="215"/>
      <point x="282" y="126" type="curve" smooth="yes"/>
      <point x="282" y="40"/>
      <point x="344" y="-25"/>
      <point x="425" y="-25" type="curve" smooth="yes"/>
      <point x="507" y="-25"/>
      <point x="571" y="40"/>
      <point x="571" y="126" type="curve" smooth="yes"/>
      <point x="571" y="215"/>
      <point x="507" y="279"/>
    </contour>
  </outline>
</glyph>
<glyph name="at" format="1">
  <advance width="1779"/>
  <unicode hex="0040"/>
  <outline>
    <contour>
      <point x="983" y="1365" type="curve" name="hr01" smooth="yes"/>
      <point x="508" y="1365"/>
      <point x="102" y="1000"/>
      <point x="102" y="442" type="curve" smooth="yes"/>
      <point x="102" y="-53"/>
      <point x="440" y="-306"/>
      <point x="845" y="-306" type="curve" smooth="yes"/>
      <point x="988" y="-306"/>
      <point x="1118" y="-275"/>
      <point x="1238" y="-205" type="curve"/>
      <point x="1185" y="-87" type="line"/>
      <point x="1095" y="-137"/>
      <point x="979" y="-175"/>
      <point x="861" y="-175" type="curve" smooth="yes"/>
      <point x="514" y="-175"/>
      <point x="248" y="48"/>
      <point x="248" y="448" type="curve" smooth="yes"/>
      <point x="248" y="920"/>
      <point x="600" y="1234"/>
      <point x="967" y="1234" type="curve" smooth="yes"/>
      <point x="1351" y="1234"/>
      <point x="1535" y="977"/>
      <point x="1535" y="661" type="curve" smooth="yes"/>
      <point x="1535" y="410"/>
      <point x="1399" y="258"/>
      <point x="1272" y="258" type="curve" smooth="yes"/>
      <point x="1167" y="258"/>
      <point x="1131" y="328"/>
      <point x="1168" y="473" type="curve"/>
      <point x="1253" y="898" type="line"/>
      <point x="1113" y="898" type="line"/>
      <point x="1088" y="815" type="line"/>
      <point x="1084" y="815" type="line"/>
      <point x="1047" y="885"/>
      <point x="992" y="915"/>
      <point x="923" y="915" type="curve" smooth="yes"/>
      <point x="685" y="915"/>
      <point x="522" y="670"/>
      <point x="522" y="430" type="curve" smooth="yes"/>
      <point x="522" y="242"/>
      <point x="629" y="134"/>
      <point x="777" y="134" type="curve" name="hr02" smooth="yes"/>
      <point x="882" y="134"/>
      <point x="962" y="192"/>
      <point x="1025" y="271" type="curve"/>
      <point x="1030" y="271" type="line"/>
      <point x="1047" y="171"/>
      <point x="1137" y="116"/>
      <point x="1250" y="116" type="curve" name="hr03" smooth="yes"/>
      <point x="1447" y="116"/>
      <point x="1675" y="303"/>
      <point x="1675" y="667" type="curve" smooth="yes"/>
      <point x="1675" y="1081"/>
      <point x="1408" y="1365"/>
    </contour>
    <contour>
      <point x="821" y="276" type="curve" name="hr04" smooth="yes"/>
      <point x="745" y="276"/>
      <point x="692" y="320"/>
      <point x="692" y="443" type="curve" smooth="yes"/>
      <point x="692" y="591"/>
      <point x="781" y="769"/>
      <point x="928" y="769" type="curve" smooth="yes"/>
      <point x="978" y="769"/>
      <point x="1013" y="747"/>
      <point x="1045" y="693" type="curve"/>
      <point x="989" y="386" type="line"/>
      <point x="938" y="312"/>
      <point x="873" y="276"/>
    </contour>
  </outline>
</glyph>
<glyph name="A" format="1">
  <advance width="1128"/>
  <unicode hex="0041"/>
  <outline>
    <contour>
      <point x="330" y="375" type="line" name="hr00"/>
      <point x="790" y="375" type="line"/>
      <point x="901" y="0" type="line"/>
      <point x="1134" y="0" type="line"/>
      <point x="692" y="1340" type="line"/>
      <point x="436" y="1340" type="line"/>
      <point x="-5" y="0" type="line"/>
      <point x="219" y="0" type="line"/>
    </contour>
    <contour>
      <point x="604" y="1018"/>
      <point x="644" y="866"/>
      <point x="688" y="723" type="curve"/>
      <point x="740" y="549" type="line"/>
      <point x="380" y="549" type="line"/>
      <point x="434" y="723" type="line"/>
      <point x="477" y="866"/>
      <point x="518" y="1017"/>
      <point x="556" y="1167" type="curve"/>
      <point x="564" y="1167" type="line"/>
    </contour>
    <contour>
      <point x="564" y="800" type="move" name="top"/>
    </contour>
  </outline>
</glyph>
<glyph name="C" format="1">
  <advance width="1170"/>
  <unicode hex="0043"/>
  <outline>
    <contour>
      <point x="704" y="1365" type="curve" name="hr00" smooth="yes"/>
      <point x="360" y="1365"/>
      <point x="97" y="1116"/>
      <point x="97" y="667" type="curve" smooth="yes"/>
      <point x="97" y="213"/>
      <point x="354" y="-25"/>
      <point x="695" y="-25" type="curve" smooth="yes"/>
      <point x="863" y="-25"/>
      <point x="1004" y="44"/>
      <point x="1111" y="169" type="curve"/>
      <point x="988" y="303" type="line"/>
      <point x="909" y="216"/>
      <point x="820" y="167"/>
      <point x="699" y="167" type="curve" smooth="yes"/>
      <point x="466" y="167"/>
      <point x="324" y="352"/>
      <point x="324" y="675" type="curve" smooth="yes"/>
      <point x="324" y="992"/>
      <point x="478" y="1174"/>
      <point x="707" y="1174" type="curve" smooth="yes"/>
      <point x="811" y="1174"/>
      <point x="896" y="1131"/>
      <point x="966" y="1061" type="curve"/>
      <point x="1089" y="1199" type="line"/>
      <point x="1005" y="1289"/>
      <point x="866" y="1365"/>
    </contour>
    <contour>
      <point x="704" y="-45" type="move" name="mark0"/>
    </contour>
    <contour>
      <point x="705" y="800" type="move" name="top"/>
    </contour>
  </outline>
</glyph>
<glyph name="D" format="1">
  <advance width="1270"/>
  <unicode hex="0044"/>
  <outline>
    <contour>
      <point x="534" y="1340" type="curve" name="hr00"/>
      <point x="170" y="1340" type="line"/>
      <point x="170" y="0" type="line"/>
      <point x="540" y="0" type="line" smooth="yes"/>
      <point x="940" y="0"/>
      <point x="1169" y="235"/>
      <point x="1169" y="678" type="curve" smooth="yes"/>
      <point x="1169" y="1127"/>
      <point x="950" y="1340"/>
    </contour>
    <contour>
      <point x="514" y="179" type="curve"/>
      <point x="392" y="179" type="line"/>
      <point x="392" y="1161" type="line"/>
      <point x="520" y="1161" type="line" smooth="yes"/>
      <point x="805" y="1161"/>
      <point x="943" y="1018"/>
      <point x="943" y="678" type="curve" smooth="yes"/>
      <point x="943" y="341"/>
      <point x="795" y="179"/>
    </contour>
    <contour>
      <point x="626" y="-45" type="move" name="mark0"/>
    </contour>
    <contour>
      <point x="587" y="800" type="move" name="top"/>
    </contour>
  </outline>
</glyph>
<glyph name="E" format="1">
  <advance width="1088"/>
  <unicode hex="0045"/>
  <outline>
    <contour>
      <point x="968" y="1340" type="line" name="hr00"/>
      <point x="170" y="1340" type="line"/>
      <point x="170" y="0" type="line"/>
      <point x="989" y="0" type="line"/>
      <point x="989" y="187" type="line"/>
      <point x="392" y="187" type="line"/>
      <point x="392" y="606" type="line"/>
      <point x="879" y="606" type="line"/>
      <point x="879" y="791" type="line"/>
      <point x="392" y="791" type="line"/>
      <point x="392" y="1155" type="line"/>
      <point x="968" y="1155" type="line"/>
    </contour>
    <contour>
      <point x="562" y="800" type="move" name="top"/>
    </contour>
  </outline>
</glyph>
<glyph name="G" format="1">
  <advance width="1272"/>
  <unicode hex="0047"/>
  <outline>
    <contour>
      <point x="731" y="1365" type="curve" name="hr00" smooth="yes"/>
      <point x="368" y="1365"/>
      <point x="97" y="1128"/>
      <point x="97" y="665" type="curve" smooth="yes"/>
      <point x="97" y="207"/>
      <point x="360" y="-25"/>
      <point x="717" y="-25" type="curve" smooth="yes"/>
      <point x="900" y="-25"/>
      <point x="1056" y="48"/>
      <point x="1147" y="133" type="curve"/>
      <point x="1147" y="717" type="line"/>
      <point x="694" y="717" type="line"/>
      <point x="694" y="536" type="line"/>
      <point x="949" y="536" type="line"/>
      <point x="949" y="232" type="line"/>
      <point x="903" y="192"/>
      <point x="822" y="167"/>
      <point x="743" y="167" type="curve" smooth="yes"/>
      <point x="468" y="167"/>
      <point x="324" y="347"/>
      <point x="324" y="671" type="curve" smooth="yes"/>
      <point x="324" y="999"/>
      <point x="486" y="1174"/>
      <point x="734" y="1174" type="curve" smooth="yes"/>
      <point x="859" y="1174"/>
      <point x="937" y="1131"/>
      <point x="1005" y="1064" type="curve"/>
      <point x="1129" y="1202" type="line"/>
      <point x="1045" y="1287"/>
      <point x="915" y="1365"/>
    </contour>
    <contour>
      <point x="720" y="-45" type="move" name="mark0"/>
    </contour>
    <contour>
      <point x="717" y="800" type="move" name="top"/>
    </contour>
  </outline>
</glyph>
<glyph name="L" format="1">
  <advance width="1012"/>
  <unicode hex="004C"/>
  <outline>
    <contour>
      <point x="392" y="1340" type="line" name="hr00"/>
      <point x="170" y="1340" type="line"/>
      <point x="170" y="0" type="line"/>
      <point x="955" y="0" type="line"/>
      <point x="955" y="187" type="line"/>
      <point x="392" y="187" type="line"/>
    </contour>
    <contour>
      <point x="590" y="-45" type="move" name="mark0"/>
    </contour>
    <contour>
      <point x="562" y="800" type="move" name="top"/>
    </contour>
  </outline>
</glyph>
<glyph name="N" format="1">
  <advance width="1332"/>
  <unicode hex="004E"/>
  <outline>
    <contour>
      <point x="396" y="1340" type="line" name="hr00"/>
      <point x="170" y="1340" type="line"/>
      <point x="170" y="0" type="line"/>
      <point x="380" y="0" type="line"/>
      <point x="380" y="615" type="line" smooth="yes"/>
      <point x="380" y="763"/>
      <point x="363" y="919"/>
      <point x="352" y="1059" type="curve"/>
      <point x="361" y="1059" type="line"/>
      <point x="500" y="777" type="line"/>
      <point x="933" y="0" type="line"/>
      <point x="1161" y="0" type="line"/>
      <point x="1161" y="1340" type="line"/>
      <point x="951" y="1340" type="line"/>
      <point x="951" y="731" type="line" smooth="yes"/>
      <point x="951" y="584"/>
      <point x="969" y="418"/>
      <point x="979" y="281" type="curve"/>
      <point x="971" y="281" type="line"/>
      <point x="831" y="566" type="line"/>
    </contour>
    <contour>
      <point x="680" y="-45" type="move" name="mark0"/>
    </contour>
    <contour>
      <point x="665" y="800" type="move" name="top"/>
    </contour>
  </outline>
</glyph>
<glyph name="Q" format="1">
  <advance width="1369"/>
  <unicode hex="0051"/>
  <outline>
    <contour>
      <point x="1311" y="-311" type="curve" name="hr00"/>
      <point x="1270" y="-145" type="line"/>
      <point x="1233" y="-156"/>
      <point x="1177" y="-167"/>
      <point x="1118" y="-167" type="curve" smooth="yes"/>
      <point x="985" y="-167"/>
      <point x="851" y="-119"/>
      <point x="811" y="-10" type="curve"/>
      <point x="1086" y="49"/>
      <point x="1266" y="289"/>
      <point x="1266" y="676" type="curve" smooth="yes"/>
      <point x="1266" y="1117"/>
      <point x="1036" y="1365"/>
      <point x="679" y="1365" type="curve" smooth="yes"/>
      <point x="323" y="1365"/>
      <point x="93" y="1119"/>
      <point x="93" y="676" type="curve" smooth="yes"/>
      <point x="93" y="278"/>
      <point x="285" y="33"/>
      <point x="575" y="-15" type="curve"/>
      <point x="644" y="-214"/>
      <point x="832" y="-347"/>
      <point x="1093" y="-347" type="curve" smooth="yes"/>
      <point x="1182" y="-347"/>
      <point x="1267" y="-329"/>
    </contour>
    <contour>
      <point x="679" y="167" type="curve" smooth="yes"/>
      <point x="455" y="167"/>
      <point x="320" y="358"/>
      <point x="320" y="676" type="curve" smooth="yes"/>
      <point x="320" y="992"/>
      <point x="455" y="1174"/>
      <point x="679" y="1174" type="curve" smooth="yes"/>
      <point x="903" y="1174"/>
      <point x="1038" y="992"/>
      <point x="1038" y="676" type="curve" smooth="yes"/>
      <point x="1038" y="358"/>
      <point x="903" y="167"/>
    </contour>
    <contour>
      <point x="690" y="1397" type="move" name="mark0"/>
    </contour>
    <contour>
      <point x="702" y="800" type="move" name="top"/>
    </contour>
  </outline>
</glyph>
<glyph name="V" format="1">
  <advance width="1079"/>
  <unicode hex="0056"/>
  <outline>
    <contour>
      <point x="224" y="1340" type="line" name="hr01"/>
      <point x="-9" y="1340" type="line"/>
      <point x="410" y="0" type="line"/>
      <point x="671" y="0" type="line"/>
      <point x="1089" y="1340" type="line"/>
      <point x="863" y="1340" type="line"/>
      <point x="669" y="654" type="line"/>
      <point x="627" y="500"/>
      <point x="596" y="370"/>
      <point x="549" y="216" type="curve" name="hr02"/>
      <point x="541" y="216" type="line"/>
      <point x="495" y="370"/>
      <point x="464" y="500"/>
      <point x="420" y="654" type="curve" smooth="yes"/>
    </contour>
    <contour>
      <point x="538" y="-45" type="move" name="mark0"/>
    </contour>
    <contour>
      <point x="540" y="800" type="move" name="top"/>
    </contour>
  </outline>
</glyph>
<glyph name="W" format="1">
  <advance width="1623"/>
  <unicode hex="0057"/>
  <outline>
    <contour>
      <point x="262" y="1340" type="line" name="hr00"/>
      <point x="36" y="1340" type="line"/>
      <point x="306" y="0" type="line"/>
      <point x="573" y="0" type="line"/>
      <point x="746" y="732" type="line"/>
      <point x="768" y="835"/>
      <point x="788" y="936"/>
      <point x="808" y="1038" type="curve"/>
      <point x="817" y="1038" type="line"/>
      <point x="833" y="936"/>
      <point x="854" y="835"/>
      <point x="876" y="732" type="curve"/>
      <point x="1052" y="0" type="line"/>
      <point x="1324" y="0" type="line"/>
      <point x="1587" y="1340" type="line"/>
      <point x="1375" y="1340" type="line"/>
      <point x="1251" y="650" type="line"/>
      <point x="1230" y="509"/>
      <point x="1207" y="365"/>
      <point x="1185" y="220" type="curve"/>
      <point x="1176" y="220" type="line"/>
      <point x="1146" y="365"/>
      <point x="1116" y="511"/>
      <point x="1086" y="650" type="curve"/>
      <point x="916" y="1340" type="line"/>
      <point x="722" y="1340" type="line"/>
      <point x="552" y="650" type="line"/>
      <point x="521" y="508"/>
      <point x="491" y="364"/>
      <point x="464" y="220" type="curve"/>
      <point x="455" y="220" type="line"/>
      <point x="432" y="364"/>
      <point x="408" y="507"/>
      <point x="385" y="650" type="curve"/>
    </contour>
    <contour>
      <point x="818" y="-45" type="move" name="mark0"/>
    </contour>
    <contour>
      <point x="811" y="800" type="move" name="top"/>
    </contour>
  </outline>
</glyph>
<glyph name="X" format="1">
  <advance width="1085"/>
  <unicode hex="0058"/>
  <outline>
    <contour>
      <point x="48" y="1340" type="line" name="hr00"/>
      <point x="408" y="691" type="line"/>
      <point x="25" y="0" type="line"/>
      <point x="258" y="0" type="line"/>
      <point x="426" y="328" type="line"/>
      <point x="459" y="395"/>
      <point x="490" y="463"/>
      <point x="527" y="545" type="curve"/>
      <point x="535" y="545" type="line"/>
      <point x="575" y="463"/>
      <point x="610" y="395"/>
      <point x="645" y="328" type="curve" smooth="yes"/>
      <point x="817" y="0" type="line"/>
      <point x="1062" y="0" type="line"/>
      <point x="680" y="681" type="line"/>
      <point x="1037" y="1340" type="line"/>
      <point x="803" y="1340" type="line"/>
      <point x="652" y="1031" type="line"/>
      <point x="621" y="970"/>
      <point x="596" y="909"/>
      <point x="562" y="829" type="curve"/>
      <point x="553" y="829" type="line"/>
      <point x="512" y="909"/>
      <point x="483" y="970"/>
      <point x="451" y="1031" type="curve"/>
      <point x="294" y="1340" type="line"/>
    </contour>
    <contour>
      <point x="529" y="-45" type="move" name="mark0"/>
    </contour>
    <contour>
      <point x="543" y="800" type="move" name="top"/>
    </contour>
  </outline>
</glyph>
<glyph name="Y" format="1">
  <advance width="1006"/>
  <unicode hex="0059"/>
  <outline>
    <contour>
      <point x="-11" y="1340" type="line" name="hr00"/>
      <point x="392" y="503" type="line"/>
      <point x="392" y="0" type="line"/>
      <point x="612" y="0" type="line"/>
      <point x="612" y="503" type="line"/>
      <point x="1016" y="1340" type="line"/>
      <point x="787" y="1340" type="line"/>
      <point x="634" y="989" type="line"/>
      <point x="595" y="890"/>
      <point x="550" y="796"/>
      <point x="508" y="695" type="curve"/>
      <point x="500" y="695" type="line"/>
      <point x="456" y="796"/>
      <point x="418" y="890"/>
      <point x="378" y="989" type="curve"/>
      <point x="225" y="1340" type="line"/>
    </contour>
    <contour>
      <point x="502" y="800" type="move" name="top"/>
    </contour>
  </outline>
</glyph>
<glyph name="asciicircum" format="1">
  <advance width="1042"/>
  <unicode hex="005E"/>
  <outline>
    <contour>
      <point x="614" y="1372" type="line" name="hr00"/>
      <point x="429" y="1372" type="line"/>
      <point x="115" y="574" type="line"/>
      <point x="301" y="574" type="line"/>
      <point x="419" y="897" type="line"/>
      <point x="518" y="1170" type="line"/>
      <point x="526" y="1170" type="line"/>
      <point x="623" y="897" type="line"/>
      <point x="742" y="574" type="line"/>
      <point x="927" y="574" type="line"/>
    </contour>
  </outline>
</glyph>
<glyph name="underscore" format="1">
  <advance width="1024"/>
  <unicode hex="005F"/>
  <outline>
    <contour>
      <point x="1039" y="-269" type="line" name="hr00"/>
      <point x="1039" y="-134" type="line"/>
      <point x="-5" y="-134" type="line"/>
      <point x="-5" y="-269" type="line"/>
    </contour>
  </outline>
</glyph>
<glyph name="grave" format="1">
  <advance width="1120"/>
  <unicode hex="0060"/>
  <outline>
    <contour>
      <point x="523" y="1470" type="line" name="hr00"/>
      <point x="303" y="1470" type="line"/>
      <point x="543" y="1175" type="line"/>
      <point x="706" y="1175" type="line"/>
    </contour>
    <contour>
      <point x="629" y="800" type="move" name="_top"/>
    </contour>
  </outline>
</glyph>
<glyph name="c" format="1">
  <advance width="942"/>
  <unicode hex="0063"/>
  <outline>
    <contour>
      <point x="581" y="1028" type="curve" name="hr00" smooth="yes"/>
      <point x="316" y="1028"/>
      <point x="86" y="850"/>
      <point x="86" y="503" type="curve" smooth="yes"/>
      <point x="86" y="159"/>
      <point x="292" y="-25"/>
      <point x="563" y="-25" type="curve" smooth="yes"/>
      <point x="679" y="-25"/>
      <point x="795" y="13"/>
      <point x="888" y="95" type="curve"/>
      <point x="796" y="236" type="line"/>
      <point x="740" y="189"/>
      <point x="672" y="155"/>
      <point x="585" y="155" type="curve" smooth="yes"/>
      <point x="422" y="155"/>
      <point x="310" y="287"/>
      <point x="310" y="503" type="curve" smooth="yes"/>
      <point x="310" y="720"/>
      <point x="425" y="849"/>
      <point x="592" y="849" type="curve" smooth="yes"/>
      <point x="659" y="849"/>
      <point x="718" y="822"/>
      <point x="773" y="775" type="curve"/>
      <point x="877" y="913" type="line"/>
      <point x="810" y="979"/>
      <point x="710" y="1028"/>
    </contour>
    <contour>
      <point x="556" y="-45" type="move" name="mark0"/>
    </contour>
    <contour>
      <point x="584" y="800" type="move" name="top"/>
    </contour>
  </outline>
</glyph>
<glyph name="e" format="1">
  <advance width="1033"/>
  <unicode hex="0065"/>
  <outline>
    <contour>
      <point x="956" y="841"/>
      <point x="822" y="1028"/>
      <point x="544" y="1028" type="curve" name="hr00" smooth="yes"/>
      <point x="300" y="1028"/>
      <point x="86" y="838"/>
      <point x="86" y="501" type="curve" smooth="yes"/>
      <point x="86" y="165"/>
      <point x="302" y="-25"/>
      <point x="577" y="-25" type="curve" smooth="yes"/>
      <point x="708" y="-25"/>
      <point x="824" y="16"/>
      <point x="916" y="77" type="curve"/>
      <point x="842" y="214" type="line"/>
      <point x="768" y="168"/>
      <point x="693" y="147"/>
      <point x="606" y="147" type="curve" smooth="yes"/>
      <point x="436" y="147"/>
      <point x="314" y="251"/>
      <point x="300" y="448" type="curve"/>
      <point x="948" y="448" type="line"/>
      <point x="952" y="472"/>
      <point x="956" y="511"/>
      <point x="956" y="553" type="curve" smooth="yes"/>
    </contour>
    <contour>
      <point x="697" y="858"/>
      <point x="767" y="763"/>
      <point x="767" y="587" type="curve"/>
      <point x="298" y="587" type="line"/>
      <point x="317" y="769"/>
      <point x="421" y="858"/>
      <point x="549" y="858" type="curve" smooth="yes"/>
    </contour>
    <contour>
      <point x="521" y="800" type="move" name="top"/>
    </contour>
  </outline>
</glyph>
<glyph name="f" format="1">
  <advance width="636"/>
  <unicode hex="0066"/>
  <outline>
    <contour>
      <point x="651" y="1276" type="curve" name="hr01"/>
      <point x="695" y="1440" type="line"/>
      <point x="650" y="1457"/>
      <point x="585" y="1474"/>
      <point x="514" y="1474" type="curve" smooth="yes"/>
      <point x="287" y="1474"/>
      <point x="192" y="1331"/>
      <point x="192" y="1123" type="curve" smooth="yes"/>
      <point x="192" y="1002" type="line" name="hr02"/>
      <point x="56" y="992" type="line"/>
      <point x="56" y="828" type="line" name="hr03"/>
      <point x="192" y="828" type="line"/>
      <point x="192" y="0" type="line"/>
      <point x="411" y="0" type="line"/>
      <point x="411" y="828" type="line"/>
      <point x="610" y="828" type="line"/>
      <point x="610" y="1003" type="line"/>
      <point x="411" y="1003" type="line"/>
      <point x="411" y="1126" type="line" smooth="yes"/>
      <point x="411" y="1245"/>
      <point x="455" y="1299"/>
      <point x="541" y="1299" type="curve" smooth="yes"/>
      <point x="577" y="1299"/>
      <point x="615" y="1290"/>
    </contour>
    <contour>
      <point x="302" y="-45" type="move" name="mark0"/>
    </contour>
    <contour>
      <point x="375" y="800" type="move" name="top"/>
    </contour>
  </outline>
</glyph>
<glyph name="j" format="1">
  <advance width="530"/>
  <unicode hex="006A"/>
  <outline>
    <contour>
      <point x="129" y="1314" type="curve" name="hr01" smooth="yes"/>
      <point x="129" y="1240"/>
      <point x="188" y="1187"/>
      <point x="268" y="1187" type="curve" smooth="yes"/>
      <point x="345" y="1187"/>
      <point x="405" y="1240"/>
      <point x="405" y="1314" type="curve" smooth="yes"/>
      <point x="405" y="1390"/>
      <point x="345" y="1441"/>
      <point x="268" y="1441" type="curve" smooth="yes"/>
      <point x="188" y="1441"/>
      <point x="129" y="1390"/>
    </contour>
    <contour>
      <point x="375" y="1003" type="line" name="hr02"/>
      <point x="157" y="1003" type="line"/>
      <point x="157" y="-74" type="line" smooth="yes"/>
      <point x="157" y="-192"/>
      <point x="131" y="-253"/>
      <point x="40" y="-253" type="curve" smooth="yes"/>
      <point x="7" y="-253"/>
      <point x="-24" y="-246"/>
      <point x="-49" y="-238" type="curve" name="hr03"/>
      <point x="-90" y="-401" type="line"/>
      <point x="-53" y="-416"/>
      <point x="-1" y="-428"/>
      <point x="69" y="-428" type="curve" smooth="yes"/>
      <point x="297" y="-428"/>
      <point x="375" y="-281"/>
      <point x="375" y="-71" type="curve" name="hr04" smooth="yes"/>
    </contour>
    <contour>
      <point x="137" y="-476" type="move" name="mark0"/>
    </contour>
    <contour>
      <point x="157" y="800" type="move" name="top"/>
    </contour>
  </outline>
</glyph>
<glyph name="k" format="1">
  <advance width="1055"/>
  <unicode hex="006B"/>
  <outline>
    <contour>
      <point x="369" y="1450" type="line" name="hr00"/>
      <point x="155" y="1450" type="line"/>
      <point x="155" y="0" type="line"/>
      <point x="369" y="0" type="line"/>
      <point x="369" y="257" type="line"/>
      <point x="533" y="447" type="line"/>
      <point x="801" y="0" type="line"/>
      <point x="1039" y="0" type="line"/>
      <point x="658" y="597" type="line"/>
      <point x="1001" y="1003" type="line"/>
      <point x="761" y="1003" type="line"/>
      <point x="376" y="525" type="line"/>
      <point x="369" y="525" type="line"/>
    </contour>
    <contour>
      <point x="574" y="-45" type="move" name="mark0"/>
    </contour>
    <contour>
      <point x="597" y="800" type="move" name="top"/>
    </contour>
  </outline>
</glyph>
<glyph name="l" format="1">
  <advance width="546"/>
  <unicode hex="006C"/>
  <outline>
    <contour>
      <point x="373" y="1450" type="line" name="hr01"/>
      <point x="155" y="1450" type="line"/>
      <point x="155" y="245" type="line" smooth="yes"/>
      <point x="155" y="76"/>
      <point x="213" y="-25"/>
      <point x="370" y="-25" type="curve" name="hr02" smooth="yes"/>
      <point x="424" y="-25"/>
      <point x="461" y="-16"/>
      <point x="487" y="-5" type="curve"/>
      <point x="460" y="159" type="line" name="hr03"/>
      <point x="442" y="155"/>
      <point x="434" y="155"/>
      <point x="423" y="155" type="curve" smooth="yes"/>
      <point x="398" y="155"/>
      <point x="373" y="175"/>
      <point x="373" y="232" type="curve" smooth="yes"/>
    </contour>
    <contour>
      <point x="262" y="-45" type="move" name="mark0"/>
    </contour>
    <contour>
      <point x="321" y="800" type="move" name="top"/>
    </contour>
  </outline>
</glyph>
<glyph name="o" format="1">
  <advance width="1120"/>
  <unicode hex="006F"/>
  <outline>
    <contour>
      <point x="560" y="1028" type="curve" name="hr00" smooth="yes"/>
      <point x="306" y="1028"/>
      <point x="87" y="842"/>
      <point x="87" y="502" type="curve" smooth="yes"/>
      <point x="87" y="164"/>
      <point x="306" y="-25"/>
      <point x="560" y="-25" type="curve" smooth="yes"/>
      <point x="813" y="-25"/>
      <point x="1034" y="164"/>
      <point x="1034" y="502" type="curve" smooth="yes"/>
      <point x="1034" y="842"/>
      <point x="813" y="1028"/>
    </contour>
    <contour>
      <point x="560" y="155" type="curve" smooth="yes"/>
      <point x="404" y="155"/>
      <point x="313" y="291"/>
      <point x="313" y="502" type="curve" smooth="yes"/>
      <point x="313" y="714"/>
      <point x="404" y="849"/>
      <point x="560" y="849" type="curve" smooth="yes"/>
      <point x="717" y="849"/>
      <point x="809" y="714"/>
      <point x="809" y="502" type="curve" smooth="yes"/>
      <point x="809" y="291"/>
      <point x="717" y="155"/>
    </contour>
    <contour>
      <point x="663" y="0" type="move" name="mark0"/>
    </contour>
    <contour>
      <point x="560" y="800" type="move" name="top"/>
    </contour>
  </outline>
</glyph>
<glyph name="p" format="1">
  <advance width="1151"/>
  <unicode hex="0070"/>
  <outline>
    <contour>
      <point x="373" y="-404" type="line" name="hr01"/>
      <point x="373" y="-82" type="line"/>
      <point x="367" y="87" type="line"/>
      <point x="451" y="16"/>
      <point x="537" y="-25"/>
      <point x="630" y="-25" type="curve" smooth="yes"/>
      <point x="858" y="-25"/>
      <point x="1059" y="169"/>
      <point x="1059" y="515" type="curve" smooth="yes"/>
      <point x="1059" y="831"/>
      <point x="921" y="1028"/>
      <point x="664" y="1028" type="curve" smooth="yes"/>
      <point x="549" y="1028"/>
      <point x="444" y="968"/>
      <point x="359" y="894" type="curve"/>
      <point x="351" y="894" type="line"/>
      <point x="334" y="1003" type="line" name="hr02"/>
      <point x="155" y="1003" type="line"/>
      <point x="155" y="-404" type="line"/>
    </contour>
    <contour>
      <point x="584" y="157" type="curve" smooth="yes"/>
      <point x="523" y="157"/>
      <point x="449" y="180"/>
      <point x="373" y="246" type="curve"/>
      <point x="373" y="727" type="line"/>
      <point x="457" y="806"/>
      <point x="527" y="847"/>
      <point x="603" y="847" type="curve" name="hr03" smooth="yes"/>
      <point x="770" y="847"/>
      <point x="833" y="723"/>
      <point x="833" y="514" type="curve" smooth="yes"/>
      <point x="833" y="279"/>
      <point x="728" y="157"/>
    </contour>
    <contour>
      <point x="250" y="-446" type="move" name="mark0"/>
    </contour>
    <contour>
      <point x="607" y="800" type="move" name="top"/>
    </contour>
  </outline>
</glyph>
<glyph name="q" format="1">
  <advance width="1143"/>
  <unicode hex="0071"/>
  <outline>
    <contour>
      <point x="519" y="1028" type="curve" name="hr01" smooth="yes"/>
      <point x="292" y="1028"/>
      <point x="90" y="832"/>
      <point x="90" y="499" type="curve" smooth="yes"/>
      <point x="90" y="161"/>
      <point x="248" y="-25"/>
      <point x="504" y="-25" type="curve" smooth="yes"/>
      <point x="613" y="-25"/>
      <point x="711" y="32"/>
      <point x="786" y="102" type="curve"/>
      <point x="776" y="-67" type="line"/>
      <point x="776" y="-404" type="line"/>
      <point x="996" y="-404" type="line"/>
      <point x="996" y="1003" type="line" name="hr02"/>
      <point x="823" y="1003" type="line"/>
      <point x="803" y="906" type="line"/>
      <point x="797" y="906" type="line"/>
      <point x="711" y="987"/>
      <point x="635" y="1028"/>
    </contour>
    <contour>
      <point x="558" y="157" type="curve" smooth="yes"/>
      <point x="401" y="157"/>
      <point x="315" y="273"/>
      <point x="315" y="502" type="curve" smooth="yes"/>
      <point x="315" y="720"/>
      <point x="425" y="847"/>
      <point x="564" y="847" type="curve" smooth="yes"/>
      <point x="638" y="847"/>
      <point x="704" y="823"/>
      <point x="776" y="757" type="curve"/>
      <point x="776" y="277" type="line"/>
      <point x="707" y="194"/>
      <point x="641" y="157"/>
    </contour>
    <contour>
      <point x="875" y="-446" type="move" name="mark0"/>
    </contour>
    <contour>
      <point x="543" y="800" type="move" name="top"/>
    </contour>
  </outline>
</glyph>
<glyph name="r" format="1">
  <advance width="751"/>
  <unicode hex="0072"/>
  <outline>
    <contour>
      <point x="334" y="1003" type="line" name="hr01"/>
      <point x="155" y="1003" type="line"/>
      <point x="155" y="0" type="line"/>
      <point x="373" y="0" type="line"/>
      <point x="373" y="620" type="line"/>
      <point x="435" y="776"/>
      <point x="534" y="833"/>
      <point x="614" y="833" type="curve" name="hr02" smooth="yes"/>
      <point x="656" y="833"/>
      <point x="682" y="827"/>
      <point x="716" y="817" type="curve"/>
      <point x="755" y="1007" type="line" name="hr03"/>
      <point x="724" y="1021"/>
      <point x="692" y="1028"/>
      <point x="643" y="1028" type="curve" name="hr04" smooth="yes"/>
      <point x="534" y="1028"/>
      <point x="428" y="953"/>
      <point x="359" y="824" type="curve"/>
      <point x="351" y="824" type="line"/>
    </contour>
    <contour>
      <point x="264" y="-45" type="move" name="mark0"/>
    </contour>
    <contour>
      <point x="455" y="800" type="move" name="top"/>
    </contour>
  </outline>
</glyph>
<glyph name="s" format="1">
  <advance width="877"/>
  <unicode hex="0073"/>
  <outline>
    <contour>
      <point x="158" y="256" type="curve" name="hr00"/>
      <point x="55" y="115" type="line"/>
      <point x="152" y="34"/>
      <point x="292" y="-25"/>
      <point x="430" y="-25" type="curve" smooth="yes"/>
      <point x="680" y="-25"/>
      <point x="815" y="112"/>
      <point x="815" y="281" type="curve" smooth="yes"/>
      <point x="815" y="469"/>
      <point x="660" y="536"/>
      <point x="522" y="586" type="curve"/>
      <point x="413" y="628"/>
      <point x="310" y="666"/>
      <point x="310" y="750" type="curve" smooth="yes"/>
      <point x="310" y="818"/>
      <point x="357" y="862"/>
      <point x="465" y="862" type="curve" smooth="yes"/>
      <point x="555" y="862"/>
      <point x="619" y="829"/>
      <point x="689" y="777" type="curve"/>
      <point x="790" y="911" type="line"/>
      <point x="709" y="975"/>
      <point x="598" y="1028"/>
      <point x="462" y="1028" type="curve" smooth="yes"/>
      <point x="239" y="1028"/>
      <point x="101" y="904"/>
      <point x="101" y="734" type="curve" smooth="yes"/>
      <point x="101" y="566"/>
      <point x="254" y="488"/>
      <point x="387" y="439" type="curve" smooth="yes"/>
      <point x="495" y="398"/>
      <point x="607" y="358"/>
      <point x="607" y="268" type="curve" smooth="yes"/>
      <point x="607" y="195"/>
      <point x="555" y="141"/>
      <point x="436" y="141" type="curve" smooth="yes"/>
      <point x="330" y="141"/>
      <point x="247" y="187"/>
    </contour>
    <contour>
      <point x="464" y="-45" type="move" name="mark0"/>
    </contour>
    <contour>
      <point x="435" y="800" type="move" name="top"/>
    </contour>
  </outline>
</glyph>
<glyph name="t" format="1">
  <advance width="727"/>
  <unicode hex="0074"/>
  <outline>
    <contour>
      <point x="44" y="828" type="line" name="hr00"/>
      <point x="188" y="828" type="line"/>
      <point x="188" y="331" type="line" smooth="yes"/>
      <point x="188" y="119"/>
      <point x="270" y="-25"/>
      <point x="497" y="-25" type="curve" smooth="yes"/>
      <point x="574" y="-25"/>
      <point x="643" y="-5"/>
      <point x="698" y="12" type="curve"/>
      <point x="659" y="174" type="line"/>
      <point x="629" y="163"/>
      <point x="587" y="150"/>
      <point x="553" y="150" type="curve" smooth="yes"/>
      <point x="452" y="150"/>
      <point x="408" y="211"/>
      <point x="408" y="331" type="curve" smooth="yes"/>
      <point x="408" y="828" type="line"/>
      <point x="667" y="828" type="line"/>
      <point x="667" y="1003" type="line"/>
      <point x="408" y="1003" type="line"/>
      <point x="408" y="1279" type="line"/>
      <point x="225" y="1279" type="line"/>
      <point x="199" y="1003" type="line"/>
      <point x="44" y="992" type="line"/>
    </contour>
    <contour>
      <point x="452" y="-45" type="move" name="mark0"/>
    </contour>
    <contour>
      <point x="371" y="800" type="move" name="top"/>
    </contour>
  </outline>
</glyph>
<glyph name="w" format="1">
  <advance width="1515"/>
  <unicode hex="0077"/>
  <outline>
    <contour>
      <point x="269" y="1003" type="line" name="hr01"/>
      <point x="49" y="1003" type="line"/>
      <point x="317" y="0" type="line"/>
      <point x="570" y="0" type="line"/>
      <point x="691" y="484" type="line"/>
      <point x="714" y="579"/>
      <point x="732" y="673"/>
      <point x="753" y="776" type="curve" name="hr02"/>
      <point x="761" y="776" type="line"/>
      <point x="783" y="673"/>
      <point x="801" y="580"/>
      <point x="824" y="486" type="curve"/>
      <point x="948" y="0" type="line"/>
      <point x="1209" y="0" type="line"/>
      <point x="1466" y="1003" type="line"/>
      <point x="1262" y="1003" type="line"/>
      <point x="1135" y="468" type="line"/>
      <point x="1115" y="371"/>
      <point x="1100" y="278"/>
      <point x="1079" y="182" type="curve"/>
      <point x="1071" y="182" type="line"/>
      <point x="1049" y="278"/>
      <point x="1028" y="371"/>
      <point x="1004" y="468" type="curve"/>
      <point x="863" y="1003" type="line"/>
      <point x="663" y="1003" type="line"/>
      <point x="525" y="468" type="line"/>
      <point x="500" y="374"/>
      <point x="482" y="278"/>
      <point x="460" y="182" type="curve"/>
      <point x="452" y="182" type="line"/>
      <point x="435" y="278"/>
      <point x="418" y="371"/>
      <point x="398" y="468" type="curve"/>
    </contour>
    <contour>
      <point x="760" y="-45" type="move" name="mark0"/>
    </contour>
    <contour>
      <point x="757" y="800" type="move" name="top"/>
    </contour>
  </outline>
</glyph>
<glyph name="z" format="1">
  <advance width="897"/>
  <unicode hex="007A"/>
  <outline>
    <contour>
      <point x="556" y="828" type="line" name="hr00"/>
      <point x="69" y="117" type="line"/>
      <point x="69" y="0" type="line"/>
      <point x="846" y="0" type="line"/>
      <point x="846" y="175" type="line"/>
      <point x="344" y="175" type="line"/>
      <point x="831" y="886" type="line"/>
      <point x="831" y="1003" type="line"/>
      <point x="123" y="1003" type="line"/>
      <point x="123" y="828" type="line"/>
    </contour>
    <contour>
      <point x="480" y="-45" type="move" name="mark0"/>
    </contour>
    <contour>
      <point x="457" y="800" type="move" name="top"/>
    </contour>
  </outline>
</glyph>
<glyph name="bar" format="1">
  <advance width="515"/>
  <unicode hex="007C"/>
  <outline>
    <contour>
      <point x="332" y="1536" type="line" name="hr00"/>
      <point x="183" y="1536" type="line"/>
      <point x="183" y="-512" type="line"/>
      <point x="332" y="-512" type="line"/>
    </contour>
  </outline>
</glyph>
<glyph name="brokenbar" format="1">
  <advance width="515"/>
  <unicode hex="00A6"/>
  <outline>
    <contour>
      <point x="332" y="1536" type="line" name="hr00"/>
      <point x="183" y="1536" type="line"/>
      <point x="183" y="612" type="line"/>
      <point x="332" y="612" type="line"/>
    </contour>
    <contour>
      <point x="332" y="-512" type="line"/>
      <point x="332" y="430" type="line"/>
      <point x="183" y="430" type="line"/>
      <point x="183" y="-512" type="line"/>
    </contour>
  </outline>
</glyph>
<glyph name="uni00AD" format="1">
  <advance width="653"/>
  <unicode hex="00AD"/>
  <outline>
    <contour>
      <point x="86" y="435" type="line"/>
      <point x="569" y="435" type="line"/>
      <point x="569" y="596" type="line"/>
      <point x="86" y="596" type="line"/>
    </contour>
  </outline>
</glyph>
<glyph name="macron" format="1">
  <advance width="1120"/>
  <unicode hex="00AF"/>
  <outline>
    <contour>
      <point x="824" y="1369" type="line" name="hr00"/>
      <point x="298" y="1369" type="line"/>
      <point x="298" y="1224" type="line"/>
      <point x="824" y="1224" type="line"/>
    </contour>
    <contour>
      <point x="561" y="800" type="move" name="_top"/>
    </contour>
  </outline>
</glyph>
<glyph name="degree" format="1">
  <advance width="705"/>
  <unicode hex="00B0"/>
  <outline>
    <contour>
      <point x="82" y="1128" type="curve" name="hr00" smooth="yes"/>
      <point x="82" y="965"/>
      <point x="206" y="855"/>
      <point x="353" y="855" type="curve" smooth="yes"/>
      <point x="501" y="855"/>
      <point x="625" y="965"/>
      <point x="625" y="1128" type="curve" smooth="yes"/>
      <point x="625" y="1293"/>
      <point x="501" y="1404"/>
      <point x="353" y="1404" type="curve" smooth="yes"/>
      <point x="206" y="1404"/>
      <point x="82" y="1293"/>
    </contour>
    <contour>
      <point x="501" y="1128" type="curve" smooth="yes"/>
      <point x="501" y="1034"/>
      <point x="440" y="967"/>
      <point x="353" y="967" type="curve" smooth="yes"/>
      <point x="267" y="967"/>
      <point x="206" y="1034"/>
      <point x="206" y="1128" type="curve" smooth="yes"/>
      <point x="206" y="1223"/>
      <point x="267" y="1290"/>
      <point x="353" y="1290" type="curve" smooth="yes"/>
      <point x="440" y="1290"/>
      <point x="501" y="1223"/>
    </contour>
  </outline>
</glyph>
<glyph name="plusminus" format="1">
  <advance width="1042"/>
  <unicode hex="00B1"/>
  <outline>
    <contour>
      <point x="70" y="615" type="line" name="hr00"/>
      <point x="437" y="615" type="line"/>
      <point x="437" y="284" type="line"/>
      <point x="604" y="284" type="line"/>
      <point x="604" y="615" type="line"/>
      <point x="972" y="615" type="line"/>
      <point x="972" y="775" type="line"/>
      <point x="604" y="775" type="line"/>
      <point x="604" y="1147" type="line"/>
      <point x="437" y="1147" type="line"/>
      <point x="437" y="775" type="line"/>
      <point x="70" y="775" type="line"/>
    </contour>
    <contour>
      <point x="972" y="160" type="line"/>
      <point x="70" y="160" type="line"/>
      <point x="70" y="0" type="line"/>
      <point x="972" y="0" type="line"/>
    </contour>
  </outline>
</glyph>
<glyph name="two.sups" format="1">
  <advance width="759"/>
  <unicode hex="00B2"/>
  <outline>
    <contour>
      <point x="101" y="993" type="curve" name="hr00"/>
      <point x="101" y="901" type="line"/>
      <point x="666" y="901" type="line"/>
      <point x="666" y="1041" type="line"/>
      <point x="365" y="1041" type="line"/>
      <point x="513" y="1196"/>
      <point x="630" y="1318"/>
      <point x="630" y="1461" type="curve" smooth="yes"/>
      <point x="630" y="1631"/>
      <point x="519" y="1724"/>
      <point x="353" y="1724" type="curve" smooth="yes"/>
      <point x="239" y="1724"/>
      <point x="141" y="1664"/>
      <point x="72" y="1566" type="curve"/>
      <point x="168" y="1478" type="line"/>
      <point x="213" y="1541"/>
      <point x="267" y="1587"/>
      <point x="330" y="1587" type="curve" smooth="yes"/>
      <point x="416" y="1587"/>
      <point x="469" y="1529"/>
      <point x="469" y="1435" type="curve" smooth="yes"/>
      <point x="469" y="1322"/>
      <point x="332" y="1195"/>
    </contour>
  </outline>
</glyph>
<glyph name="cedilla" format="1">
  <advance width="1120"/>
  <unicode hex="00B8"/>
  <outline>
    <contour>
      <point x="650" y="7" type="line" name="hr00"/>
      <point x="515" y="7" type="line"/>
      <point x="433" y="-155" type="line"/>
      <point x="519" y="-176"/>
      <point x="560" y="-203"/>
      <point x="560" y="-249" type="curve" smooth="yes"/>
      <point x="560" y="-304"/>
      <point x="486" y="-332"/>
      <point x="382" y="-344" type="curve"/>
      <point x="401" y="-442" type="line"/>
      <point x="570" y="-430"/>
      <point x="723" y="-372"/>
      <point x="723" y="-245" type="curve" smooth="yes"/>
      <point x="723" y="-161"/>
      <point x="669" y="-120"/>
      <point x="602" y="-97" type="curve"/>
    </contour>
  </outline>
</glyph>
<glyph name="one.sups" format="1">
  <advance width="759"/>
  <unicode hex="00B9"/>
  <outline>
    <contour>
      <point x="170" y="1511" type="line" name="hr00"/>
      <point x="347" y="1511" type="line"/>
      <point x="347" y="901" type="line"/>
      <point x="513" y="901" type="line"/>
      <point x="513" y="1700" type="line"/>
      <point x="380" y="1700" type="line"/>
      <point x="320" y="1657"/>
      <point x="267" y="1632"/>
      <point x="170" y="1616" type="curve"/>
    </contour>
  </outline>
</glyph>
<glyph name="AE" format="1">
  <advance width="1694"/>
  <unicode hex="00C6"/>
  <outline>
    <contour>
      <point x="1595" y="0" type="line" name="hr01"/>
      <point x="1595" y="187" type="line"/>
      <point x="1027" y="187" type="line"/>
      <point x="1027" y="606" type="line"/>
      <point x="1486" y="606" type="line"/>
      <point x="1486" y="791" type="line"/>
      <point x="1027" y="791" type="line"/>
      <point x="1027" y="1155" type="line"/>
      <point x="1575" y="1155" type="line"/>
      <point x="1575" y="1340" type="line"/>
      <point x="674" y="1340" type="line"/>
      <point x="-4" y="0" type="line"/>
      <point x="226" y="0" type="line"/>
      <point x="404" y="358" type="line"/>
      <point x="806" y="358" type="line"/>
      <point x="806" y="0" type="line"/>
    </contour>
    <contour>
      <point x="806" y="1170" type="line" name="hr02"/>
      <point x="806" y="532" type="line"/>
      <point x="489" y="532" type="line"/>
      <point x="599" y="754" type="line"/>
      <point x="664" y="889"/>
      <point x="732" y="1030"/>
      <point x="798" y="1170" type="curve"/>
    </contour>
    <contour>
      <point x="1130" y="1421" type="move" name="mark0"/>
    </contour>
    <contour>
      <point x="1127" y="800" type="move" name="top"/>
    </contour>
  </outline>
</glyph>
<glyph name="Ccedilla" format="1">
  <advance width="1170"/>
  <unicode hex="00C7"/>
  <outline>
    <contour>
      <point x="1116" y="171" type="curve" name="hr00"/>
      <point x="993" y="305" type="line"/>
      <point x="914" y="218"/>
      <point x="827" y="167"/>
      <point x="706" y="167" type="curve" smooth="yes"/>
      <point x="473" y="167"/>
      <point x="324" y="360"/>
      <point x="324" y="674" type="curve" smooth="yes"/>
      <point x="324" y="983"/>
      <point x="485" y="1174"/>
      <point x="714" y="1174" type="curve" smooth="yes"/>
      <point x="818" y="1174"/>
      <point x="896" y="1128"/>
      <point x="966" y="1058" type="curve"/>
      <point x="1089" y="1196" type="line"/>
      <point x="1005" y="1285"/>
      <point x="873" y="1365"/>
      <point x="711" y="1365" type="curve" smooth="yes"/>
      <point x="367" y="1365"/>
      <point x="97" y="1103"/>
      <point x="97" y="667" type="curve" smooth="yes"/>
      <point x="97" y="254"/>
      <point x="327" y="9"/>
      <point x="635" y="-21" type="curve"/>
      <point x="567" y="-155" type="line"/>
      <point x="654" y="-176"/>
      <point x="694" y="-203"/>
      <point x="694" y="-249" type="curve" smooth="yes"/>
      <point x="694" y="-304"/>
      <point x="620" y="-332"/>
      <point x="516" y="-344" type="curve"/>
      <point x="535" y="-442" type="line"/>
      <point x="705" y="-430"/>
      <point x="857" y="-372"/>
      <point x="857" y="-245" type="curve" smooth="yes"/>
      <point x="857" y="-161"/>
      <point x="803" y="-120"/>
      <point x="736" y="-97" type="curve"/>
      <point x="772" y="-19" type="line"/>
      <point x="910" y="-3"/>
      <point x="1025" y="63"/>
    </contour>
  </outline>
</glyph>
<glyph name="Oslash" format="1">
  <advance width="1369"/>
  <unicode hex="00D8"/>
  <outline>
    <contour>
      <point x="1147" y="1129" type="curve" name="hr00"/>
      <point x="1297" y="1320" type="line"/>
      <point x="1177" y="1410" type="line"/>
      <point x="1046" y="1241" type="line"/>
      <point x="949" y="1322"/>
      <point x="825" y="1365"/>
      <point x="684" y="1365" type="curve" smooth="yes"/>
      <point x="339" y="1365"/>
      <point x="97" y="1109"/>
      <point x="97" y="676" type="curve" smooth="yes"/>
      <point x="97" y="481"/>
      <point x="146" y="320"/>
      <point x="232" y="202" type="curve"/>
      <point x="90" y="21" type="line"/>
      <point x="210" y="-70" type="line"/>
      <point x="335" y="92" type="line"/>
      <point x="432" y="15"/>
      <point x="549" y="-25"/>
      <point x="684" y="-25" type="curve" smooth="yes"/>
      <point x="1030" y="-25"/>
      <point x="1270" y="243"/>
      <point x="1270" y="676" type="curve" smooth="yes"/>
      <point x="1270" y="862"/>
      <point x="1226" y="1015"/>
    </contour>
    <contour>
      <point x="915" y="1076" type="curve"/>
      <point x="379" y="388" type="line"/>
      <point x="343" y="466"/>
      <point x="324" y="564"/>
      <point x="324" y="676" type="curve" smooth="yes"/>
      <point x="324" y="985"/>
      <point x="466" y="1174"/>
      <point x="684" y="1174" type="curve" smooth="yes"/>
      <point x="776" y="1174"/>
      <point x="855" y="1140"/>
    </contour>
    <contour>
      <point x="465" y="255" type="curve"/>
      <point x="997" y="939" type="line"/>
      <point x="1027" y="867"/>
      <point x="1043" y="778"/>
      <point x="1043" y="676" type="curve" smooth="yes"/>
      <point x="1043" y="366"/>
      <point x="902" y="167"/>
      <point x="684" y="167" type="curve" smooth="yes"/>
      <point x="597" y="167"/>
      <point x="523" y="199"/>
    </contour>
    <contour>
      <point x="693" y="1386" type="move" name="mark0"/>
    </contour>
  </outline>
</glyph>
<glyph name="ae" format="1">
  <advance width="1609"/>
  <unicode hex="00E6"/>
  <outline>
    <contour>
      <point x="150" y="908" type="curve" name="hr01"/>
      <point x="232" y="760" type="line" name="hr02"/>
      <point x="318" y="814"/>
      <point x="415" y="850"/>
      <point x="513" y="850" type="curve" smooth="yes"/>
      <point x="657" y="850"/>
      <point x="696" y="748"/>
      <point x="698" y="636" type="curve"/>
      <point x="290" y="603"/>
      <point x="110" y="483"/>
      <point x="110" y="267" type="curve" smooth="yes"/>
      <point x="110" y="92"/>
      <point x="232" y="-25"/>
      <point x="406" y="-25" type="curve" smooth="yes"/>
      <point x="536" y="-25"/>
      <point x="668" y="32"/>
      <point x="806" y="151" type="curve"/>
      <point x="886" y="54"/>
      <point x="996" y="-25"/>
      <point x="1156" y="-25" type="curve" smooth="yes"/>
      <point x="1285" y="-25"/>
      <point x="1400" y="21"/>
      <point x="1493" y="83" type="curve"/>
      <point x="1417" y="229" type="line"/>
      <point x="1343" y="183"/>
      <point x="1273" y="150"/>
      <point x="1185" y="150" type="curve" smooth="yes"/>
      <point x="1033" y="150"/>
      <point x="914" y="261"/>
      <point x="901" y="443" type="curve"/>
      <point x="1523" y="443" type="line"/>
      <point x="1528" y="467"/>
      <point x="1532" y="506"/>
      <point x="1532" y="549" type="curve" smooth="yes"/>
      <point x="1532" y="831"/>
      <point x="1409" y="1028"/>
      <point x="1155" y="1028" type="curve" name="hr03" smooth="yes"/>
      <point x="1014" y="1028"/>
      <point x="906" y="956"/>
      <point x="825" y="839" type="curve"/>
      <point x="777" y="955"/>
      <point x="692" y="1028"/>
      <point x="542" y="1028" type="curve" smooth="yes"/>
      <point x="394" y="1028"/>
      <point x="256" y="974"/>
    </contour>
    <contour>
      <point x="1342" y="582" type="curve"/>
      <point x="901" y="582" type="line"/>
      <point x="918" y="757"/>
      <point x="1016" y="858"/>
      <point x="1149" y="858" type="curve" smooth="yes"/>
      <point x="1285" y="858"/>
      <point x="1342" y="756"/>
    </contour>
    <contour>
      <point x="475" y="148" type="curve" smooth="yes"/>
      <point x="386" y="148"/>
      <point x="322" y="189"/>
      <point x="322" y="283" type="curve" smooth="yes"/>
      <point x="322" y="392"/>
      <point x="427" y="467"/>
      <point x="697" y="498" type="curve"/>
      <point x="698" y="454" type="line" name="hr04" smooth="yes"/>
      <point x="700" y="390"/>
      <point x="714" y="323"/>
      <point x="733" y="276" type="curve"/>
      <point x="657" y="195"/>
      <point x="558" y="148"/>
    </contour>
    <contour>
      <point x="821" y="800" type="move" name="top"/>
    </contour>
  </outline>
</glyph>
<glyph name="divide" format="1">
  <advance width="1042"/>
  <unicode hex="00F7"/>
  <outline>
    <contour>
      <point x="389" y="1044" type="curve" name="hr00" smooth="yes"/>
      <point x="389" y="969"/>
      <point x="446" y="916"/>
      <point x="522" y="916" type="curve" smooth="yes"/>
      <point x="595" y="916"/>
      <point x="654" y="969"/>
      <point x="654" y="1044" type="curve" smooth="yes"/>
      <point x="654" y="1119"/>
      <point x="595" y="1172"/>
      <point x="522" y="1172" type="curve" smooth="yes"/>
      <point x="446" y="1172"/>
      <point x="389" y="1119"/>
    </contour>
    <contour>
      <point x="972" y="755" type="line"/>
      <point x="70" y="755" type="line"/>
      <point x="70" y="596" type="line"/>
      <point x="972" y="596" type="line"/>
    </contour>
    <contour>
      <point x="522" y="435" type="curve" smooth="yes"/>
      <point x="446" y="435"/>
      <point x="389" y="382"/>
      <point x="389" y="307" type="curve" smooth="yes"/>
      <point x="389" y="232"/>
      <point x="446" y="179"/>
      <point x="522" y="179" type="curve" smooth="yes"/>
      <point x="595" y="179"/>
      <point x="654" y="232"/>
      <point x="654" y="307" type="curve" smooth="yes"/>
      <point x="654" y="382"/>
      <point x="595" y="435"/>
    </contour>
  </outline>
</glyph>
<glyph name="oslash" format="1">
  <advance width="1120"/>
  <unicode hex="00F8"/>
  <outline>
    <contour>
      <point x="921" y="855" type="curve" name="hr00"/>
      <point x="1026" y="983" type="line"/>
      <point x="937" y="1053" type="line"/>
      <point x="840" y="934" type="line"/>
      <point x="760" y="995"/>
      <point x="662" y="1028"/>
      <point x="560" y="1028" type="curve" smooth="yes"/>
      <point x="311" y="1028"/>
      <point x="86" y="835"/>
      <point x="86" y="501" type="curve" smooth="yes"/>
      <point x="86" y="354"/>
      <point x="130" y="236"/>
      <point x="199" y="148" type="curve"/>
      <point x="94" y="21" type="line"/>
      <point x="184" y="-49" type="line"/>
      <point x="280" y="69" type="line"/>
      <point x="360" y="8"/>
      <point x="459" y="-25"/>
      <point x="560" y="-25" type="curve" smooth="yes"/>
      <point x="809" y="-25"/>
      <point x="1034" y="168"/>
      <point x="1034" y="501" type="curve" smooth="yes"/>
      <point x="1034" y="648"/>
      <point x="990" y="767"/>
    </contour>
    <contour>
      <point x="722" y="790" type="curve"/>
      <point x="334" y="316" type="line"/>
      <point x="311" y="369"/>
      <point x="300" y="435"/>
      <point x="300" y="512" type="curve" smooth="yes"/>
      <point x="300" y="716"/>
      <point x="408" y="855"/>
      <point x="560" y="855" type="curve" smooth="yes"/>
      <point x="625" y="855"/>
      <point x="680" y="833"/>
    </contour>
    <contour>
      <point x="398" y="213" type="curve"/>
      <point x="785" y="688" type="line"/>
      <point x="809" y="633"/>
      <point x="820" y="568"/>
      <point x="820" y="490" type="curve" smooth="yes"/>
      <point x="820" y="286"/>
      <point x="714" y="148"/>
      <point x="560" y="148" type="curve" smooth="yes"/>
      <point x="497" y="148"/>
      <point x="441" y="171"/>
    </contour>
    <contour>
      <point x="560" y="1048" type="move" name="mark0"/>
    </contour>
  </outline>
</glyph>
<glyph name="thorn" format="1">
  <advance width="1151"/>
  <unicode hex="00FE"/>
  <outline>
    <contour>
      <point x="155" y="-404" type="line" name="hr00"/>
      <point x="373" y="-404" type="line"/>
      <point x="373" y="-82" type="line"/>
      <point x="369" y="81" type="line"/>
      <point x="451" y="14"/>
      <point x="533" y="-25"/>
      <point x="630" y="-25" type="curve" smooth="yes"/>
      <point x="855" y="-25"/>
      <point x="1059" y="175"/>
      <point x="1059" y="517" type="curve" smooth="yes"/>
      <point x="1059" y="827"/>
      <point x="913" y="1028"/>
      <point x="653" y="1028" type="curve" smooth="yes"/>
      <point x="551" y="1028"/>
      <point x="451" y="976"/>
      <point x="369" y="910" type="curve"/>
      <point x="373" y="1069" type="line"/>
      <point x="373" y="1450" type="line"/>
      <point x="155" y="1450" type="line"/>
    </contour>
    <contour>
      <point x="586" y="157" type="curve" smooth="yes"/>
      <point x="526" y="157"/>
      <point x="449" y="180"/>
      <point x="373" y="246" type="curve"/>
      <point x="373" y="727" type="line"/>
      <point x="457" y="806"/>
      <point x="529" y="847"/>
      <point x="604" y="847" type="curve" smooth="yes"/>
      <point x="767" y="847"/>
      <point x="833" y="720"/>
      <point x="833" y="515" type="curve" smooth="yes"/>
      <point x="833" y="283"/>
      <point x="727" y="157"/>
    </contour>
    <contour>
      <point x="589" y="-45" type="move" name="mark0"/>
    </contour>
    <contour>
      <point x="607" y="800" type="move" name="top"/>
    </contour>
  </outline>
</glyph>
<glyph name="aogonek" format="1">
  <advance width="1066"/>
  <unicode hex="0105"/>
  <outline>
    <contour>
      <point x="707" y="639" type="curve" name="hr01"/>
      <point x="291" y="595"/>
      <point x="110" y="483"/>
      <point x="110" y="267" type="curve" smooth="yes"/>
      <point x="110" y="92"/>
      <point x="232" y="-25"/>
      <point x="406" y="-25" type="curve" smooth="yes"/>
      <point x="526" y="-25"/>
      <point x="631" y="36"/>
      <point x="723" y="113" type="curve"/>
      <point x="728" y="113" type="line"/>
      <point x="749" y="3" type="line"/>
      <point x="679" y="-41"/>
      <point x="593" y="-132"/>
      <point x="593" y="-246" type="curve" name="hr02" smooth="yes"/>
      <point x="593" y="-364"/>
      <point x="680" y="-425"/>
      <point x="790" y="-425" type="curve" smooth="yes"/>
      <point x="847" y="-425"/>
      <point x="924" y="-399"/>
      <point x="968" y="-365" type="curve"/>
      <point x="918" y="-262" type="line"/>
      <point x="895" y="-276"/>
      <point x="869" y="-287"/>
      <point x="839" y="-287" type="curve" smooth="yes"/>
      <point x="792" y="-287"/>
      <point x="747" y="-260"/>
      <point x="747" y="-199" type="curve" smooth="yes"/>
      <point x="747" y="-127"/>
      <point x="805" y="-42"/>
      <point x="926" y="0" type="curve" name="hr03"/>
      <point x="926" y="599" type="line" smooth="yes"/>
      <point x="926" y="871"/>
      <point x="808" y="1028"/>
      <point x="558" y="1028" type="curve" smooth="yes"/>
      <point x="398" y="1028"/>
      <point x="256" y="963"/>
      <point x="150" y="897" type="curve"/>
      <point x="232" y="749" type="line"/>
      <point x="318" y="804"/>
      <point x="415" y="850"/>
      <point x="519" y="850" type="curve" smooth="yes"/>
      <point x="661" y="850"/>
      <point x="705" y="752"/>
    </contour>
    <contour>
      <point x="475" y="148" type="curve" smooth="yes"/>
      <point x="386" y="148"/>
      <point x="322" y="189"/>
      <point x="322" y="283" type="curve" smooth="yes"/>
      <point x="322" y="392"/>
      <point x="418" y="466"/>
      <point x="707" y="502" type="curve"/>
      <point x="707" y="263" type="line"/>
      <point x="627" y="190"/>
      <point x="560" y="148"/>
    </contour>
    <contour>
      <point x="560" y="1048" type="move" name="mark0"/>
    </contour>
  </outline>
</glyph>
<glyph name="dcroat" format="1">
  <advance width="1151"/>
  <unicode hex="0111"/>
  <outline>
    <contour>
      <point x="996" y="1158" type="line" name="hr01"/>
      <point x="1140" y="1169" type="line"/>
      <point x="1140" y="1274" type="line"/>
      <point x="996" y="1274" type="line"/>
      <point x="996" y="1450" type="line"/>
      <point x="776" y="1450" type="line"/>
      <point x="776" y="1274" type="line"/>
      <point x="456" y="1274" type="line"/>
      <point x="456" y="1158" type="line"/>
      <point x="776" y="1158" type="line"/>
      <point x="776" y="1040" type="line"/>
      <point x="786" y="875" type="line"/>
      <point x="705" y="944"/>
      <point x="632" y="987"/>
      <point x="518" y="987" type="curve" smooth="yes"/>
      <point x="296" y="987"/>
      <point x="90" y="791"/>
      <point x="90" y="480" type="curve" smooth="yes"/>
      <point x="90" y="159"/>
      <point x="253" y="-25"/>
      <point x="503" y="-25" type="curve" smooth="yes"/>
      <point x="616" y="-25"/>
      <point x="716" y="32"/>
      <point x="790" y="104" type="curve"/>
      <point x="797" y="104" type="line"/>
      <point x="811" y="0" type="line" name="hr02"/>
      <point x="996" y="0" type="line"/>
    </contour>
    <contour>
      <point x="776" y="716" type="curve"/>
      <point x="776" y="277" type="line"/>
      <point x="707" y="194"/>
      <point x="638" y="157"/>
      <point x="556" y="157" type="curve" name="hr03" smooth="yes"/>
      <point x="404" y="157"/>
      <point x="315" y="269"/>
      <point x="315" y="483" type="curve" smooth="yes"/>
      <point x="315" y="684"/>
      <point x="427" y="806"/>
      <point x="562" y="806" type="curve" smooth="yes"/>
      <point x="634" y="806"/>
      <point x="704" y="782"/>
    </contour>
  </outline>
</glyph>
<glyph name="eogonek" format="1">
  <advance width="1033"/>
  <unicode hex="0119"/>
  <outline>
    <contour>
      <point x="546" y="1028" type="curve" name="hr00" smooth="yes"/>
      <point x="311" y="1028"/>
      <point x="86" y="827"/>
      <point x="86" y="501" type="curve" smooth="yes"/>
      <point x="86" y="171"/>
      <point x="302" y="-25"/>
      <point x="577" y="-25" type="curve" smooth="yes"/>
      <point x="603" y="-25"/>
      <point x="630" y="-24"/>
      <point x="661" y="-13" type="curve"/>
      <point x="608" y="-59"/>
      <point x="541" y="-144"/>
      <point x="541" y="-246" type="curve" smooth="yes"/>
      <point x="541" y="-364"/>
      <point x="626" y="-425"/>
      <point x="736" y="-425" type="curve" smooth="yes"/>
      <point x="793" y="-425"/>
      <point x="870" y="-399"/>
      <point x="914" y="-365" type="curve"/>
      <point x="864" y="-262" type="line"/>
      <point x="841" y="-276"/>
      <point x="817" y="-287"/>
      <point x="786" y="-287" type="curve" smooth="yes"/>
      <point x="736" y="-287"/>
      <point x="693" y="-259"/>
      <point x="693" y="-199" type="curve" smooth="yes"/>
      <point x="693" y="-116"/>
      <point x="739" y="-44"/>
      <point x="918" y="83" type="curve"/>
      <point x="843" y="220" type="line"/>
      <point x="769" y="174"/>
      <point x="693" y="147"/>
      <point x="606" y="147" type="curve" smooth="yes"/>
      <point x="436" y="147"/>
      <point x="317" y="256"/>
      <point x="300" y="448" type="curve"/>
      <point x="948" y="448" type="line"/>
      <point x="952" y="472"/>
      <point x="956" y="508"/>
      <point x="956" y="553" type="curve" smooth="yes"/>
      <point x="956" y="835"/>
      <point x="813" y="1028"/>
    </contour>
    <contour>
      <point x="767" y="587" type="curve"/>
      <point x="298" y="587" type="line"/>
      <point x="319" y="764"/>
      <point x="429" y="858"/>
      <point x="550" y="858" type="curve" smooth="yes"/>
      <point x="694" y="858"/>
      <point x="767" y="757"/>
    </contour>
    <contour>
      <point x="546" y="1048" type="move" name="mark0"/>
    </contour>
  </outline>
</glyph>
<glyph name="Hbar" format="1">
  <advance width="1420"/>
  <unicode hex="0126"/>
  <outline>
    <contour>
      <point x="1212" y="1003" type="line" name="hr01"/>
      <point x="1362" y="1003" type="line"/>
      <point x="1362" y="1118" type="line"/>
      <point x="1212" y="1118" type="line"/>
      <point x="1212" y="1340" type="line" name="hr02"/>
      <point x="990" y="1340" type="line"/>
      <point x="990" y="1118" type="line" name="hr03"/>
      <point x="428" y="1118" type="line"/>
      <point x="428" y="1340" type="line" name="hr04"/>
      <point x="208" y="1340" type="line"/>
      <point x="208" y="1118" type="line" name="hr05"/>
      <point x="56" y="1107" type="line"/>
      <point x="56" y="1003" type="line"/>
      <point x="208" y="1003" type="line"/>
      <point x="208" y="0" type="line"/>
      <point x="428" y="0" type="line"/>
      <point x="428" y="604" type="line"/>
      <point x="990" y="604" type="line"/>
      <point x="990" y="0" type="line"/>
      <point x="1212" y="0" type="line"/>
    </contour>
    <contour>
      <point x="428" y="1003" type="line"/>
      <point x="990" y="1003" type="line"/>
      <point x="990" y="796" type="line"/>
      <point x="428" y="796" type="line"/>
    </contour>
  </outline>
</glyph>
<glyph name="hbar" format="1">
  <advance width="1135"/>
  <unicode hex="0127"/>
  <outline>
    <contour>
      <point x="364" y="832" type="curve" name="hr00"/>
      <point x="373" y="1028" type="line"/>
      <point x="373" y="1158" type="line"/>
      <point x="736" y="1158" type="line"/>
      <point x="736" y="1274" type="line"/>
      <point x="373" y="1274" type="line"/>
      <point x="373" y="1450" type="line"/>
      <point x="155" y="1450" type="line"/>
      <point x="155" y="1273" type="line"/>
      <point x="8" y="1263" type="line"/>
      <point x="8" y="1158" type="line"/>
      <point x="155" y="1158" type="line"/>
      <point x="155" y="0" type="line"/>
      <point x="373" y="0" type="line"/>
      <point x="373" y="667" type="line"/>
      <point x="460" y="753"/>
      <point x="522" y="799"/>
      <point x="614" y="799" type="curve" smooth="yes"/>
      <point x="728" y="799"/>
      <point x="778" y="733"/>
      <point x="778" y="561" type="curve" smooth="yes"/>
      <point x="778" y="0" type="line"/>
      <point x="997" y="0" type="line"/>
      <point x="997" y="590" type="line" smooth="yes"/>
      <point x="997" y="844"/>
      <point x="902" y="987"/>
      <point x="689" y="987" type="curve" smooth="yes"/>
      <point x="551" y="987"/>
      <point x="451" y="914"/>
    </contour>
  </outline>
</glyph>
<glyph name="Iogonek" format="1">
  <advance width="561"/>
  <unicode hex="012E"/>
  <outline>
    <contour>
      <point x="392" y="1340" type="line" name="hr01"/>
      <point x="170" y="1340" type="line"/>
      <point x="170" y="0" type="line"/>
      <point x="226" y="0" type="line"/>
      <point x="163" y="-53"/>
      <point x="85" y="-137"/>
      <point x="85" y="-259" type="curve" name="hr02" smooth="yes"/>
      <point x="85" y="-378"/>
      <point x="177" y="-443"/>
      <point x="294" y="-443" type="curve" smooth="yes"/>
      <point x="356" y="-443"/>
      <point x="433" y="-415"/>
      <point x="477" y="-380" type="curve"/>
      <point x="422" y="-265" type="line"/>
      <point x="400" y="-282"/>
      <point x="373" y="-294"/>
      <point x="342" y="-294" type="curve" smooth="yes"/>
      <point x="296" y="-294"/>
      <point x="249" y="-266"/>
      <point x="249" y="-206" type="curve" smooth="yes"/>
      <point x="249" y="-127"/>
      <point x="296" y="-58"/>
      <point x="392" y="0" type="curve" name="hr03"/>
    </contour>
    <contour>
      <point x="280" y="1386" type="move" name="mark0"/>
    </contour>
  </outline>
</glyph>
<glyph name="lslash" format="1">
  <advance width="569"/>
  <unicode hex="0142"/>
  <outline>
    <contour>
      <point x="388" y="232" type="curve" name="hr01"/>
      <point x="388" y="747" type="line"/>
      <point x="527" y="834" type="line"/>
      <point x="527" y="1014" type="line"/>
      <point x="388" y="927" type="line"/>
      <point x="388" y="1450" type="line"/>
      <point x="168" y="1450" type="line"/>
      <point x="168" y="816" type="line"/>
      <point x="41" y="736" type="line"/>
      <point x="41" y="556" type="line"/>
      <point x="168" y="635" type="line"/>
      <point x="168" y="245" type="line" smooth="yes"/>
      <point x="168" y="76"/>
      <point x="227" y="-25"/>
      <point x="383" y="-25" type="curve" smooth="yes"/>
      <point x="437" y="-25"/>
      <point x="473" y="-16"/>
      <point x="502" y="-5" type="curve"/>
      <point x="474" y="159" type="line"/>
      <point x="455" y="155"/>
      <point x="446" y="155"/>
      <point x="437" y="155" type="curve" smooth="yes"/>
      <point x="413" y="155"/>
      <point x="388" y="175"/>
    </contour>
  </outline>
</glyph>
<glyph name="OE" format="1">
  <advance width="1745"/>
  <unicode hex="0152"/>
  <outline>
    <contour>
      <point x="1627" y="1340" type="line" name="hr01"/>
      <point x="766" y="1340" type="line" smooth="yes"/>
      <point x="358" y="1340"/>
      <point x="97" y="1115"/>
      <point x="97" y="676" type="curve" smooth="yes"/>
      <point x="97" y="237"/>
      <point x="358" y="0"/>
      <point x="755" y="0" type="curve" smooth="yes"/>
      <point x="1647" y="0" type="line"/>
      <point x="1647" y="187" type="line"/>
      <point x="1081" y="187" type="line"/>
      <point x="1081" y="606" type="line"/>
      <point x="1539" y="606" type="line"/>
      <point x="1539" y="791" type="line"/>
      <point x="1081" y="791" type="line"/>
      <point x="1081" y="1155" type="line"/>
      <point x="1627" y="1155" type="line"/>
    </contour>
    <contour>
      <point x="860" y="179" type="line" name="hr02"/>
      <point x="780" y="179" type="line" smooth="yes"/>
      <point x="491" y="179"/>
      <point x="324" y="341"/>
      <point x="324" y="676" type="curve" smooth="yes"/>
      <point x="324" y="1009"/>
      <point x="491" y="1161"/>
      <point x="780" y="1161" type="curve" smooth="yes"/>
      <point x="860" y="1161" type="line"/>
    </contour>
    <contour>
      <point x="1082" y="1386" type="move" name="mark0"/>
    </contour>
    <contour>
      <point x="872" y="800" type="move" name="top"/>
    </contour>
  </outline>
</glyph>
<glyph name="oe" format="1">
  <advance width="1705"/>
  <unicode hex="0153"/>
  <outline>
    <contour>
      <point x="548" y="1028" type="curve" name="hr01" smooth="yes"/>
      <point x="300" y="1028"/>
      <point x="86" y="835"/>
      <point x="86" y="501" type="curve" smooth="yes"/>
      <point x="86" y="168"/>
      <point x="296" y="-25"/>
      <point x="543" y="-25" type="curve" smooth="yes"/>
      <point x="702" y="-25"/>
      <point x="818" y="51"/>
      <point x="899" y="197" type="curve"/>
      <point x="978" y="59"/>
      <point x="1107" y="-25"/>
      <point x="1250" y="-25" type="curve" smooth="yes"/>
      <point x="1379" y="-25"/>
      <point x="1498" y="21"/>
      <point x="1591" y="83" type="curve"/>
      <point x="1513" y="229" type="line" name="hr02"/>
      <point x="1439" y="183"/>
      <point x="1366" y="150"/>
      <point x="1278" y="150" type="curve" smooth="yes"/>
      <point x="1126" y="150"/>
      <point x="1005" y="261"/>
      <point x="992" y="443" type="curve"/>
      <point x="1620" y="443" type="line"/>
      <point x="1625" y="467"/>
      <point x="1629" y="506"/>
      <point x="1629" y="549" type="curve" smooth="yes"/>
      <point x="1629" y="831"/>
      <point x="1490" y="1028"/>
      <point x="1236" y="1028" type="curve" smooth="yes"/>
      <point x="1099" y="1028"/>
      <point x="975" y="945"/>
      <point x="897" y="805" type="curve"/>
      <point x="823" y="948"/>
      <point x="696" y="1028"/>
    </contour>
    <contour>
      <point x="1439" y="582" type="curve" name="hr04"/>
      <point x="992" y="582" type="line"/>
      <point x="1009" y="757"/>
      <point x="1109" y="858"/>
      <point x="1229" y="858" type="curve" smooth="yes"/>
      <point x="1366" y="858"/>
      <point x="1439" y="756"/>
    </contour>
    <contour>
      <point x="548" y="155" type="curve" smooth="yes"/>
      <point x="404" y="155"/>
      <point x="309" y="292"/>
      <point x="309" y="501" type="curve" smooth="yes"/>
      <point x="309" y="709"/>
      <point x="404" y="849"/>
      <point x="548" y="849" type="curve" name="hr05" smooth="yes"/>
      <point x="692" y="849"/>
      <point x="788" y="709"/>
      <point x="788" y="501" type="curve" smooth="yes"/>
      <point x="788" y="292"/>
      <point x="692" y="155"/>
    </contour>
    <contour>
      <point x="890" y="1048" type="move" name="mark0"/>
    </contour>
    <contour>
      <point x="857" y="800" type="move" name="top"/>
    </contour>
  </outline>
</glyph>
<glyph name="uni0162" format="1">
  <advance width="1106"/>
  <unicode hex="0162"/>
  <outline>
    <contour>
      <point x="582" y="-97" type="curve" name="hr01"/>
      <point x="627" y="0" type="line"/>
      <point x="663" y="0" type="line"/>
      <point x="663" y="1155" type="line"/>
      <point x="1055" y="1155" type="line"/>
      <point x="1055" y="1340" type="line"/>
      <point x="50" y="1340" type="line"/>
      <point x="50" y="1155" type="line"/>
      <point x="443" y="1155" type="line"/>
      <point x="443" y="0" type="line"/>
      <point x="492" y="0" type="line"/>
      <point x="414" y="-155" type="line"/>
      <point x="500" y="-176"/>
      <point x="539" y="-203"/>
      <point x="539" y="-249" type="curve" name="hr02" smooth="yes"/>
      <point x="539" y="-304"/>
      <point x="466" y="-332"/>
      <point x="361" y="-344" type="curve"/>
      <point x="381" y="-442" type="line"/>
      <point x="551" y="-430"/>
      <point x="703" y="-372"/>
      <point x="703" y="-245" type="curve" smooth="yes"/>
      <point x="703" y="-161"/>
      <point x="650" y="-120"/>
    </contour>
  </outline>
</glyph>
<glyph name="tbar" format="1">
  <advance width="727"/>
  <unicode hex="0167"/>
  <outline>
    <contour>
      <point x="669" y="661" type="line" name="hr00"/>
      <point x="46" y="661" type="line"/>
      <point x="46" y="486" type="line"/>
      <point x="669" y="486" type="line"/>
    </contour>
    <component base="t"/>
  </outline>
</glyph>
<glyph name="uogonek" format="1">
  <advance width="1133"/>
  <unicode hex="0173"/>
  <outline>
    <contour>
      <point x="362" y="1003" type="line" name="hr01"/>
      <point x="142" y="1003" type="line"/>
      <point x="142" y="373" type="line" smooth="yes"/>
      <point x="142" y="119"/>
      <point x="236" y="-25"/>
      <point x="451" y="-25" type="curve" smooth="yes"/>
      <point x="589" y="-25"/>
      <point x="686" y="44"/>
      <point x="775" y="150" type="curve"/>
      <point x="782" y="150" type="line"/>
      <point x="802" y="3" type="line"/>
      <point x="726" y="-50"/>
      <point x="645" y="-132"/>
      <point x="645" y="-246" type="curve" name="hr02" smooth="yes"/>
      <point x="645" y="-364"/>
      <point x="733" y="-425"/>
      <point x="843" y="-425" type="curve" smooth="yes"/>
      <point x="900" y="-425"/>
      <point x="977" y="-399"/>
      <point x="1021" y="-365" type="curve"/>
      <point x="971" y="-262" type="line"/>
      <point x="949" y="-276"/>
      <point x="922" y="-287"/>
      <point x="891" y="-287" type="curve" smooth="yes"/>
      <point x="846" y="-287"/>
      <point x="800" y="-259"/>
      <point x="800" y="-199" type="curve" smooth="yes"/>
      <point x="800" y="-127"/>
      <point x="852" y="-52"/>
      <point x="979" y="0" type="curve" name="hr03"/>
      <point x="979" y="1003" type="line"/>
      <point x="760" y="1003" type="line"/>
      <point x="760" y="310" type="line"/>
      <point x="679" y="207"/>
      <point x="618" y="163"/>
      <point x="526" y="163" type="curve" name="hr04" smooth="yes"/>
      <point x="410" y="163"/>
      <point x="362" y="231"/>
      <point x="362" y="401" type="curve" smooth="yes"/>
    </contour>
    <contour>
      <point x="556" y="1028" type="move" name="mark0"/>
    </contour>
  </outline>
</glyph>
<glyph name="uni0180" format="1">
  <advance width="1135"/>
  <unicode hex="0180"/>
  <outline>
    <contour>
      <point x="368" y="858" type="curve" name="hr01"/>
      <point x="373" y="1028" type="line"/>
      <point x="373" y="1158" type="line"/>
      <point x="736" y="1158" type="line"/>
      <point x="736" y="1274" type="line"/>
      <point x="373" y="1274" type="line"/>
      <point x="373" y="1450" type="line"/>
      <point x="155" y="1450" type="line"/>
      <point x="155" y="1273" type="line"/>
      <point x="8" y="1263" type="line"/>
      <point x="8" y="1158" type="line"/>
      <point x="155" y="1158" type="line"/>
      <point x="155" y="0" type="line" name="hr02"/>
      <point x="328" y="0" type="line"/>
      <point x="346" y="101" type="line"/>
      <point x="353" y="101" type="line"/>
      <point x="438" y="20"/>
      <point x="539" y="-25"/>
      <point x="630" y="-25" type="curve" name="hr03" smooth="yes"/>
      <point x="855" y="-25"/>
      <point x="1059" y="167"/>
      <point x="1059" y="499" type="curve" smooth="yes"/>
      <point x="1059" y="794"/>
      <point x="916" y="987"/>
      <point x="662" y="987" type="curve" smooth="yes"/>
      <point x="558" y="987"/>
      <point x="453" y="934"/>
    </contour>
    <contour>
      <point x="373" y="246" type="curve"/>
      <point x="373" y="687" type="line"/>
      <point x="454" y="766"/>
      <point x="529" y="806"/>
      <point x="604" y="806" type="curve" smooth="yes"/>
      <point x="767" y="806"/>
      <point x="833" y="687"/>
      <point x="833" y="495" type="curve" smooth="yes"/>
      <point x="833" y="275"/>
      <point x="727" y="157"/>
      <point x="586" y="157" type="curve" smooth="yes"/>
      <point x="526" y="157"/>
      <point x="448" y="180"/>
    </contour>
  </outline>
</glyph>
<glyph name="uni018F" format="1">
  <advance width="1387"/>
  <unicode hex="018F"/>
  <outline>
    <contour>
      <point x="1060" y="569" type="line" name="hr00"/>
      <point x="1031" y="314"/>
      <point x="892" y="163"/>
      <point x="702" y="163" type="curve" smooth="yes"/>
      <point x="515" y="163"/>
      <point x="380" y="313"/>
      <point x="361" y="569" type="curve"/>
    </contour>
    <contour>
      <point x="375" y="1053" type="line"/>
      <point x="451" y="1123"/>
      <point x="559" y="1178"/>
      <point x="688" y="1178" type="curve" smooth="yes"/>
      <point x="916" y="1178"/>
      <point x="1049" y="1015"/>
      <point x="1064" y="734" type="curve"/>
      <point x="141" y="734" type="line"/>
      <point x="138" y="709"/>
      <point x="136" y="685"/>
      <point x="136" y="664" type="curve" smooth="yes"/>
      <point x="136" y="243"/>
      <point x="362" y="-25"/>
      <point x="702" y="-25" type="curve" smooth="yes"/>
      <point x="1043" y="-25"/>
      <point x="1284" y="241"/>
      <point x="1284" y="674" type="curve" smooth="yes"/>
      <point x="1284" y="1106"/>
      <point x="1055" y="1365"/>
      <point x="710" y="1365" type="curve" smooth="yes"/>
      <point x="518" y="1365"/>
      <point x="374" y="1298"/>
      <point x="275" y="1204" type="curve"/>
    </contour>
    <contour>
      <point x="742" y="-45" type="move" name="mark0"/>
    </contour>
  </outline>
</glyph>
<glyph name="uni0192" format="1">
  <advance width="1042"/>
  <unicode hex="0192"/>
  <outline>
    <contour>
      <point x="926" y="1162" type="curve" name="hr00"/>
      <point x="971" y="1328" type="line"/>
      <point x="931" y="1347"/>
      <point x="862" y="1365"/>
      <point x="805" y="1365" type="curve" smooth="yes"/>
      <point x="566" y="1365"/>
      <point x="465" y="1228"/>
      <point x="434" y="945" type="curve" smooth="yes"/>
      <point x="422" y="841" type="line"/>
      <point x="381" y="841" type="line"/>
      <point x="235" y="830" type="line"/>
      <point x="235" y="677" type="line"/>
      <point x="404" y="677" type="line"/>
      <point x="361" y="285" type="line" smooth="yes"/>
      <point x="337" y="67"/>
      <point x="294" y="-21"/>
      <point x="179" y="-23" type="curve"/>
      <point x="144" y="-22"/>
      <point x="112" y="-17"/>
      <point x="81" y="-4" type="curve"/>
      <point x="46" y="-167" type="line"/>
      <point x="78" y="-185"/>
      <point x="136" y="-198"/>
      <point x="206" y="-198" type="curve" smooth="yes"/>
      <point x="453" y="-198"/>
      <point x="534" y="-19"/>
      <point x="563" y="229" type="curve" smooth="yes"/>
      <point x="614" y="677" type="line"/>
      <point x="872" y="677" type="line"/>
      <point x="872" y="841" type="line"/>
      <point x="632" y="841" type="line"/>
      <point x="646" y="963" type="line" smooth="yes"/>
      <point x="660" y="1086"/>
      <point x="709" y="1189"/>
      <point x="820" y="1189" type="curve" smooth="yes"/>
      <point x="867" y="1189"/>
      <point x="900" y="1173"/>
    </contour>
  </outline>
</glyph>
<glyph name="Uhorn" format="1">
  <advance width="1360"/>
  <unicode hex="01AF"/>
  <outline>
    <contour>
      <point x="1350" y="1633" type="curve" name="hr00"/>
      <point x="1196" y="1562" type="line"/>
      <point x="1213" y="1536"/>
      <point x="1227" y="1506"/>
      <point x="1227" y="1474" type="curve" smooth="yes"/>
      <point x="1227" y="1375"/>
      <point x="1150" y="1351"/>
      <point x="1053" y="1340" type="curve"/>
      <point x="954" y="1340" type="line"/>
      <point x="954" y="565" type="line" smooth="yes"/>
      <point x="954" y="265"/>
      <point x="833" y="167"/>
      <point x="665" y="167" type="curve" smooth="yes"/>
      <point x="500" y="167"/>
      <point x="385" y="265"/>
      <point x="385" y="565" type="curve" smooth="yes"/>
      <point x="385" y="1340" type="line"/>
      <point x="164" y="1340" type="line"/>
      <point x="164" y="579" type="line" smooth="yes"/>
      <point x="164" y="141"/>
      <point x="364" y="-25"/>
      <point x="665" y="-25" type="curve" smooth="yes"/>
      <point x="967" y="-25"/>
      <point x="1166" y="141"/>
      <point x="1166" y="579" type="curve" smooth="yes"/>
      <point x="1166" y="1253" type="line"/>
      <point x="1295" y="1279"/>
      <point x="1402" y="1346"/>
      <point x="1402" y="1488" type="curve" smooth="yes"/>
      <point x="1402" y="1545"/>
      <point x="1378" y="1596"/>
    </contour>
    <contour>
      <point x="664" y="-45" type="move" name="mark0"/>
    </contour>
  </outline>
</glyph>
<glyph name="uni0243" format="1">
  <advance width="1254"/>
  <unicode hex="0243"/>
  <outline>
    <contour>
      <point x="878" y="734" type="curve" name="hr01"/>
      <point x="878" y="742" type="line"/>
      <point x="1036" y="782"/>
      <point x="1108" y="894"/>
      <point x="1108" y="1018" type="curve" name="hr02" smooth="yes"/>
      <point x="1108" y="1251"/>
      <point x="910" y="1340"/>
      <point x="636" y="1340" type="curve" smooth="yes"/>
      <point x="214" y="1340" type="line"/>
      <point x="214" y="476" type="line"/>
      <point x="58" y="467" type="line"/>
      <point x="58" y="360" type="line"/>
      <point x="214" y="360" type="line"/>
      <point x="214" y="0" type="line"/>
      <point x="668" y="0" type="line" smooth="yes"/>
      <point x="964" y="0"/>
      <point x="1181" y="129"/>
      <point x="1181" y="404" type="curve" name="hr03" smooth="yes"/>
      <point x="1181" y="593"/>
      <point x="1072" y="701"/>
    </contour>
    <contour>
      <point x="613" y="791" type="curve" name="hr04"/>
      <point x="434" y="791" type="line"/>
      <point x="434" y="1179" type="line"/>
      <point x="617" y="1179" type="line" smooth="yes"/>
      <point x="800" y="1179"/>
      <point x="896" y="1125"/>
      <point x="896" y="997" type="curve" smooth="yes"/>
      <point x="896" y="865"/>
      <point x="809" y="791"/>
    </contour>
    <contour>
      <point x="644" y="162" type="curve" name="hr05"/>
      <point x="434" y="162" type="line"/>
      <point x="434" y="360" type="line"/>
      <point x="725" y="360" type="line"/>
      <point x="725" y="476" type="line"/>
      <point x="434" y="476" type="line"/>
      <point x="434" y="654" type="line"/>
      <point x="644" y="654" type="line" smooth="yes"/>
      <point x="852" y="654"/>
      <point x="968" y="581"/>
      <point x="968" y="418" type="curve" smooth="yes"/>
      <point x="968" y="246"/>
      <point x="849" y="162"/>
    </contour>
  </outline>
</glyph>
<glyph name="w.sups" format="1">
  <advance width="1025"/>
  <unicode hex="02B7"/>
  <outline>
    <contour>
      <point x="195" y="1197" type="line" name="hr00"/>
      <point x="33" y="1197" type="line"/>
      <point x="210" y="532" type="line"/>
      <point x="396" y="532" type="line"/>
      <point x="473" y="839" type="line"/>
      <point x="512" y="1025" type="line"/>
      <point x="516" y="1025" type="line"/>
      <point x="555" y="839" type="line"/>
      <point x="632" y="532" type="line"/>
      <point x="821" y="532" type="line"/>
      <point x="993" y="1197" type="line"/>
      <point x="844" y="1197" type="line"/>
      <point x="767" y="855" type="line"/>
      <point x="728" y="661" type="line"/>
      <point x="720" y="661" type="line"/>
      <point x="677" y="855" type="line"/>
      <point x="583" y="1197" type="line"/>
      <point x="447" y="1197" type="line"/>
      <point x="358" y="855" type="line"/>
      <point x="316" y="661" type="line"/>
      <point x="309" y="661" type="line"/>
      <point x="273" y="855" type="line"/>
    </contour>
  </outline>
</glyph>
<glyph name="uni02BC" format="1">
  <advance width="550"/>
  <unicode hex="02BC"/>
  <outline>
    <contour>
      <point x="135" y="919" type="curve" name="hr01"/>
      <point x="189" y="821" type="line"/>
      <point x="352" y="909"/>
      <point x="437" y="1037"/>
      <point x="437" y="1212" type="curve" smooth="yes"/>
      <point x="437" y="1351"/>
      <point x="380" y="1430"/>
      <point x="283" y="1430" type="curve" name="hr02" smooth="yes"/>
      <point x="209" y="1430"/>
      <point x="156" y="1379"/>
      <point x="156" y="1295" type="curve" smooth="yes"/>
      <point x="156" y="1219"/>
      <point x="214" y="1174"/>
      <point x="283" y="1174" type="curve" smooth="yes"/>
      <point x="289" y="1174"/>
      <point x="294" y="1174"/>
      <point x="301" y="1177" type="curve"/>
      <point x="301" y="1056"/>
      <point x="245" y="984"/>
    </contour>
  </outline>
</glyph>
<glyph name="caron" format="1">
  <advance width="1120"/>
  <unicode hex="02C7"/>
  <outline>
    <contour>
      <point x="430" y="1470" type="line" name="hr00"/>
      <point x="277" y="1470" type="line"/>
      <point x="471" y="1175" type="line"/>
      <point x="649" y="1175" type="line"/>
      <point x="844" y="1470" type="line"/>
      <point x="691" y="1470" type="line"/>
      <point x="564" y="1292" type="line"/>
      <point x="556" y="1292" type="line"/>
    </contour>
    <contour>
      <point x="560" y="800" type="move" name="_top"/>
    </contour>
  </outline>
</glyph>
<glyph name="uni02CB" format="1">
  <advance width="469"/>
  <unicode hex="02CB"/>
  <outline>
    <contour>
      <point x="195" y="1470" type="line" name="hr00"/>
      <point x="-25" y="1470" type="line"/>
      <point x="215" y="1175" type="line"/>
      <point x="378" y="1175" type="line"/>
    </contour>
  </outline>
</glyph>
<glyph name="uni02CC" format="1">
  <advance width="259"/>
  <unicode hex="02CC"/>
  <outline>
    <contour>
      <point x="220" y="-529" type="line" name="hr00"/>
      <point x="208" y="-140" type="line"/>
      <point x="52" y="-140" type="line"/>
      <point x="40" y="-529" type="line"/>
    </contour>
  </outline>
</glyph>
<glyph name="breve" format="1">
  <advance width="1120"/>
  <unicode hex="02D8"/>
  <outline>
    <contour>
      <point x="420" y="1446" type="curve" name="hr00"/>
      <point x="292" y="1446" type="line"/>
      <point x="299" y="1315"/>
      <point x="378" y="1177"/>
      <point x="560" y="1177" type="curve" smooth="yes"/>
      <point x="742" y="1177"/>
      <point x="821" y="1315"/>
      <point x="829" y="1446" type="curve"/>
      <point x="700" y="1446" type="line"/>
      <point x="690" y="1372"/>
      <point x="647" y="1305"/>
      <point x="560" y="1305" type="curve" smooth="yes"/>
      <point x="473" y="1305"/>
      <point x="431" y="1372"/>
    </contour>
    <contour>
      <point x="560" y="800" type="move" name="_top"/>
    </contour>
  </outline>
</glyph>
<glyph name="dotaccent" format="1">
  <advance width="1120"/>
  <unicode hex="02D9"/>
  <outline>
    <contour>
      <point x="428" y="1316" type="curve" name="hr00" smooth="yes"/>
      <point x="428" y="1240"/>
      <point x="484" y="1187"/>
      <point x="560" y="1187" type="curve" smooth="yes"/>
      <point x="636" y="1187"/>
      <point x="692" y="1240"/>
      <point x="692" y="1316" type="curve" smooth="yes"/>
      <point x="692" y="1390"/>
      <point x="636" y="1444"/>
      <point x="560" y="1444" type="curve" smooth="yes"/>
      <point x="484" y="1444"/>
      <point x="428" y="1390"/>
    </contour>
    <contour>
      <point x="560" y="800" type="move" name="_top"/>
    </contour>
  </outline>
</glyph>
<glyph name="ring" format="1">
  <advance width="1120"/>
  <unicode hex="02DA"/>
  <outline>
    <contour>
      <point x="355" y="1312" type="curve" name="hr00" smooth="yes"/>
      <point x="355" y="1193"/>
      <point x="439" y="1115"/>
      <point x="560" y="1115" type="curve" smooth="yes"/>
      <point x="682" y="1115"/>
      <point x="767" y="1193"/>
      <point x="767" y="1312" type="curve" smooth="yes"/>
      <point x="767" y="1430"/>
      <point x="682" y="1508"/>
      <point x="560" y="1508" type="curve" smooth="yes"/>
      <point x="439" y="1508"/>
      <point x="355" y="1430"/>
    </contour>
    <contour>
      <point x="652" y="1312" type="curve" smooth="yes"/>
      <point x="652" y="1247"/>
      <point x="612" y="1205"/>
      <point x="560" y="1205" type="curve" smooth="yes"/>
      <point x="508" y="1205"/>
      <point x="468" y="1247"/>
      <point x="468" y="1312" type="curve" smooth="yes"/>
      <point x="468" y="1376"/>
      <point x="508" y="1418"/>
      <point x="560" y="1418" type="curve" smooth="yes"/>
      <point x="612" y="1418"/>
      <point x="652" y="1376"/>
    </contour>
    <contour>
      <point x="561" y="800" type="move" name="_top"/>
    </contour>
  </outline>
</glyph>
<glyph name="ogonek" format="1">
  <advance width="1120"/>
  <unicode hex="02DB"/>
  <outline>
    <contour>
      <point x="692" y="5" type="curve" name="hr00"/>
      <point x="554" y="5" type="line"/>
      <point x="492" y="-40"/>
      <point x="409" y="-132"/>
      <point x="409" y="-246" type="curve" smooth="yes"/>
      <point x="409" y="-364"/>
      <point x="496" y="-425"/>
      <point x="606" y="-425" type="curve" smooth="yes"/>
      <point x="663" y="-425"/>
      <point x="741" y="-399"/>
      <point x="785" y="-365" type="curve"/>
      <point x="735" y="-262" type="line"/>
      <point x="712" y="-276"/>
      <point x="685" y="-287"/>
      <point x="655" y="-287" type="curve" smooth="yes"/>
      <point x="608" y="-287"/>
      <point x="564" y="-260"/>
      <point x="564" y="-199" type="curve" smooth="yes"/>
      <point x="564" y="-127"/>
      <point x="609" y="-57"/>
    </contour>
  </outline>
</glyph>
<glyph name="hungarumlaut" format="1">
  <advance width="1120"/>
  <unicode hex="02DD"/>
  <outline>
    <contour>
      <point x="664" y="1470" type="line" name="hr00"/>
      <point x="482" y="1470" type="line"/>
      <point x="338" y="1171" type="line"/>
      <point x="478" y="1171" type="line"/>
    </contour>
    <contour>
      <point x="983" y="1470" type="line"/>
      <point x="802" y="1470" type="line"/>
      <point x="658" y="1171" type="line"/>
      <point x="798" y="1171" type="line"/>
    </contour>
    <contour>
      <point x="550" y="800" type="move" name="_top"/>
    </contour>
  </outline>
</glyph>
<glyph name="l.sups" format="1">
  <advance width="372"/>
  <unicode hex="02E1"/>
  <outline>
    <contour>
      <point x="258" y="1488" type="line" name="hr00"/>
      <point x="98" y="1488" type="line"/>
      <point x="98" y="709" type="line" smooth="yes"/>
      <point x="98" y="591"/>
      <point x="138" y="516"/>
      <point x="256" y="516" type="curve" smooth="yes"/>
      <point x="295" y="516"/>
      <point x="320" y="523"/>
      <point x="340" y="531" type="curve"/>
      <point x="320" y="649" type="line"/>
      <point x="308" y="645"/>
      <point x="300" y="645"/>
      <point x="292" y="645" type="curve" smooth="yes"/>
      <point x="272" y="645"/>
      <point x="258" y="660"/>
      <point x="258" y="699" type="curve" smooth="yes"/>
    </contour>
  </outline>
</glyph>
<glyph name="x.sups" format="1">
  <advance width="661"/>
  <unicode hex="02E3"/>
  <outline>
    <contour>
      <point x="33" y="1197" type="line" name="hr00"/>
      <point x="235" y="879" type="line"/>
      <point x="16" y="532" type="line"/>
      <point x="185" y="532" type="line"/>
      <point x="255" y="660" type="line"/>
      <point x="316" y="769" type="line"/>
      <point x="324" y="769" type="line"/>
      <point x="394" y="660" type="line"/>
      <point x="471" y="532" type="line"/>
      <point x="643" y="532" type="line"/>
      <point x="430" y="862" type="line"/>
      <point x="630" y="1197" type="line"/>
      <point x="463" y="1197" type="line"/>
      <point x="398" y="1074" type="line"/>
      <point x="349" y="968" type="line"/>
      <point x="341" y="968" type="line"/>
      <point x="279" y="1074" type="line"/>
      <point x="206" y="1197" type="line"/>
    </contour>
  </outline>
</glyph>
<glyph name="uni0300" format="1">
  <advance width="0"/>
  <unicode hex="0300"/>
  <outline>
    <contour>
      <point x="-637" y="1470" type="line" name="hr00"/>
      <point x="-857" y="1470" type="line"/>
      <point x="-617" y="1175" type="line"/>
      <point x="-454" y="1175" type="line"/>
    </contour>
    <contour>
      <point x="-600" y="1048" type="move" name="_mark0"/>
    </contour>
  </outline>
</glyph>
<glyph name="uni0309" format="1">
  <advance width="0"/>
  <unicode hex="0309"/>
  <outline>
    <contour>
      <point x="-683" y="1229" type="curve" name="hr00"/>
      <point x="-663" y="1136" type="line"/>
      <point x="-531" y="1152"/>
      <point x="-414" y="1207"/>
      <point x="-414" y="1334" type="curve" smooth="yes"/>
      <point x="-414" y="1440"/>
      <point x="-513" y="1502"/>
      <point x="-720" y="1508" type="curve"/>
      <point x="-744" y="1390" type="line"/>
      <point x="-630" y="1384"/>
      <point x="-577" y="1359"/>
      <point x="-577" y="1311" type="curve" smooth="yes"/>
      <point x="-577" y="1264"/>
      <point x="-623" y="1244"/>
    </contour>
    <contour>
      <point x="-600" y="1048" type="move" name="_mark0"/>
    </contour>
  </outline>
</glyph>
<glyph name="uni031B" format="1">
  <advance width="0"/>
  <unicode hex="031B"/>
  <outline>
    <contour>
      <point x="-619" y="983" type="curve" name="hr00"/>
      <point x="-600" y="885" type="line"/>
      <point x="-424" y="899"/>
      <point x="-285" y="970"/>
      <point x="-285" y="1130" type="curve" smooth="yes"/>
      <point x="-285" y="1188"/>
      <point x="-309" y="1238"/>
      <point x="-337" y="1275" type="curve"/>
      <point x="-491" y="1204" type="line"/>
      <point x="-475" y="1179"/>
      <point x="-460" y="1148"/>
      <point x="-460" y="1115" type="curve" smooth="yes"/>
      <point x="-460" y="1031"/>
      <point x="-517" y="998"/>
    </contour>
    <contour>
      <point x="-600" y="1003" type="move" name="_mark0"/>
    </contour>
  </outline>
</glyph>
<glyph name="uni0323" format="1">
  <advance width="0"/>
  <unicode hex="0323"/>
  <outline>
    <contour>
      <point x="-732" y="-309" type="curve" name="hr01" smooth="yes"/>
      <point x="-732" y="-385"/>
      <point x="-676" y="-438"/>
      <point x="-600" y="-438" type="curve" smooth="yes"/>
      <point x="-524" y="-438"/>
      <point x="-468" y="-385"/>
      <point x="-468" y="-309" type="curve" smooth="yes"/>
      <point x="-468" y="-235"/>
      <point x="-524" y="-182"/>
      <point x="-600" y="-182" type="curve" smooth="yes"/>
      <point x="-676" y="-182"/>
      <point x="-732" y="-235"/>
    </contour>
    <contour>
      <point x="-600" y="-45" type="move" name="_mark0"/>
    </contour>
  </outline>
</glyph>
<glyph name="uni0324" format="1">
  <advance width="0"/>
  <unicode hex="0324"/>
  <outline>
    <contour>
      <point x="-903" y="-306" type="curve" name="hr00" smooth="yes"/>
      <point x="-903" y="-372"/>
      <point x="-855" y="-423"/>
      <point x="-786" y="-423" type="curve" smooth="yes"/>
      <point x="-719" y="-423"/>
      <point x="-670" y="-372"/>
      <point x="-670" y="-306" type="curve" smooth="yes"/>
      <point x="-670" y="-241"/>
      <point x="-719" y="-190"/>
      <point x="-786" y="-190" type="curve" smooth="yes"/>
      <point x="-855" y="-190"/>
      <point x="-903" y="-241"/>
    </contour>
    <contour>
      <point x="-530" y="-306" type="curve" smooth="yes"/>
      <point x="-530" y="-372"/>
      <point x="-481" y="-423"/>
      <point x="-414" y="-423" type="curve" smooth="yes"/>
      <point x="-345" y="-423"/>
      <point x="-297" y="-372"/>
      <point x="-297" y="-306" type="curve" smooth="yes"/>
      <point x="-297" y="-241"/>
      <point x="-345" y="-190"/>
      <point x="-414" y="-190" type="curve" smooth="yes"/>
      <point x="-481" y="-190"/>
      <point x="-530" y="-241"/>
    </contour>
    <contour>
      <point x="-600" y="-45" type="move" name="_mark0"/>
    </contour>
  </outline>
</glyph>
<glyph name="uni0328" format="1">
  <advance width="0"/>
  <unicode hex="0328"/>
  <outline>
    <contour>
      <point x="-468" y="5" type="curve" name="hr00"/>
      <point x="-606" y="5" type="line"/>
      <point x="-668" y="-40"/>
      <point x="-751" y="-132"/>
      <point x="-751" y="-246" type="curve" smooth="yes"/>
      <point x="-751" y="-364"/>
      <point x="-663" y="-425"/>
      <point x="-554" y="-425" type="curve" smooth="yes"/>
      <point x="-498" y="-425"/>
      <point x="-419" y="-399"/>
      <point x="-375" y="-365" type="curve"/>
      <point x="-427" y="-262" type="line"/>
      <point x="-448" y="-276"/>
      <point x="-475" y="-287"/>
      <point x="-505" y="-287" type="curve" smooth="yes"/>
      <point x="-552" y="-287"/>
      <point x="-596" y="-260"/>
      <point x="-596" y="-199" type="curve" smooth="yes"/>
      <point x="-596" y="-127"/>
      <point x="-551" y="-57"/>
    </contour>
    <contour>
      <point x="-600" y="0" type="move" name="_mark0"/>
    </contour>
  </outline>
</glyph>
<glyph name="uni032E" format="1">
  <advance width="0"/>
  <unicode hex="032E"/>
  <outline>
    <contour>
      <point x="-740" y="-156" type="curve" name="hr00"/>
      <point x="-868" y="-156" type="line"/>
      <point x="-861" y="-288"/>
      <point x="-781" y="-425"/>
      <point x="-600" y="-425" type="curve" smooth="yes"/>
      <point x="-419" y="-425"/>
      <point x="-339" y="-288"/>
      <point x="-332" y="-156" type="curve"/>
      <point x="-460" y="-156" type="line"/>
      <point x="-470" y="-231"/>
      <point x="-513" y="-298"/>
      <point x="-600" y="-298" type="curve" smooth="yes"/>
      <point x="-687" y="-298"/>
      <point x="-730" y="-231"/>
    </contour>
    <contour>
      <point x="-600" y="-45" type="move" name="_mark0"/>
    </contour>
  </outline>
</glyph>
<glyph name="uni0331" format="1">
  <advance width="0"/>
  <unicode hex="0331"/>
  <outline>
    <contour>
      <point x="-865" y="-364" type="line" name="hr00"/>
      <point x="-336" y="-364" type="line"/>
      <point x="-336" y="-217" type="line"/>
      <point x="-865" y="-217" type="line"/>
    </contour>
    <contour>
      <point x="-600" y="-45" type="move" name="_mark0"/>
    </contour>
  </outline>
</glyph>
<glyph name="pi" format="1">
  <advance width="1184"/>
  <unicode hex="03C0"/>
  <outline>
    <contour>
      <point x="44" y="826" type="line" name="hr01"/>
      <point x="220" y="826" type="line"/>
      <point x="220" y="0" type="line"/>
      <point x="436" y="0" type="line"/>
      <point x="437" y="826" type="line"/>
      <point x="758" y="826" type="line"/>
      <point x="758" y="266" type="line" smooth="yes"/>
      <point x="758" y="90"/>
      <point x="818" y="-25"/>
      <point x="989" y="-25" type="curve" name="hr02" smooth="yes"/>
      <point x="1043" y="-25"/>
      <point x="1084" y="-16"/>
      <point x="1117" y="-2" type="curve"/>
      <point x="1090" y="162" type="line" name="hr03"/>
      <point x="1071" y="157"/>
      <point x="1058" y="155"/>
      <point x="1044" y="155" type="curve" smooth="yes"/>
      <point x="1004" y="155"/>
      <point x="978" y="188"/>
      <point x="978" y="254" type="curve" smooth="yes"/>
      <point x="978" y="826" type="line"/>
      <point x="1124" y="826" type="line"/>
      <point x="1124" y="1003" type="line"/>
      <point x="189" y="1003" type="line"/>
      <point x="44" y="992" type="line"/>
    </contour>
  </outline>
</glyph>
<glyph name="candraBindu-deva" format="1">
  <advance width="540"/>
  <unicode hex="0901"/>
  <outline>
    <component base="eCandraMatra-deva" xOffset="2"/>
    <component base="anusvara-deva" xOffset="-1" yOffset="188"/>
    <contour>
      <point x="276" y="1167" type="move" name="_topcandra"/>
    </contour>
  </outline>
</glyph>
<glyph name="anusvara-deva" format="1">
  <advance width="540"/>
  <unicode hex="0902"/>
  <outline>
    <contour>
      <point x="188" y="1663"/>
      <point x="153" y="1629"/>
      <point x="153" y="1547" type="curve" smooth="yes"/>
      <point x="153" y="1466"/>
      <point x="188" y="1432"/>
      <point x="270" y="1432" type="curve" smooth="yes"/>
      <point x="352" y="1432"/>
      <point x="387" y="1466"/>
      <point x="387" y="1547" type="curve" smooth="yes"/>
      <point x="387" y="1629"/>
      <point x="352" y="1663"/>
      <point x="270" y="1663" type="curve" smooth="yes"/>
    </contour>
    <contour>
      <point x="270" y="1167" type="move" name="_top"/>
    </contour>
  </outline>
</glyph>
<glyph name="u-deva" format="1">
  <advance width="877"/>
  <unicode hex="0909"/>
  <outline>
    <contour>
      <point x="292" y="655" type="line"/>
      <point x="504" y="595"/>
      <point x="606" y="527"/>
      <point x="606" y="375" type="curve" smooth="yes"/>
      <point x="606" y="271"/>
      <point x="536" y="193"/>
      <point x="410" y="193" type="curve" smooth="yes"/>
      <point x="298" y="193"/>
      <point x="196" y="239"/>
      <point x="108" y="308" type="curve"/>
      <point x="15" y="179" type="line"/>
      <point x="115" y="73"/>
      <point x="263" y="8"/>
      <point x="423" y="8" type="curve" smooth="yes"/>
      <point x="644" y="8"/>
      <point x="816" y="145"/>
      <point x="816" y="363" type="curve" smooth="yes"/>
      <point x="816" y="567"/>
      <point x="662" y="676"/>
      <point x="408" y="696" type="curve"/>
    </contour>
    <contour>
      <point x="398" y="1114" type="line"/>
      <point x="471" y="1114"/>
      <point x="566" y="1065"/>
      <point x="566" y="950" type="curve" smooth="yes"/>
      <point x="566" y="846"/>
      <point x="503" y="768"/>
      <point x="316" y="745" type="curve" smooth="yes"/>
      <point x="295" y="742"/>
      <point x="281" y="740"/>
      <point x="249" y="738" type="curve"/>
      <point x="271" y="566" type="line"/>
      <point x="360" y="565"/>
      <point x="477" y="577"/>
      <point x="577" y="643" type="curve" smooth="yes"/>
      <point x="696" y="718"/>
      <point x="765" y="807"/>
      <point x="765" y="955" type="curve" smooth="yes"/>
      <point x="765" y="1171"/>
      <point x="522" y="1216"/>
      <point x="392" y="1203" type="curve"/>
    </contour>
    <contour>
      <point x="896" y="1287" type="line"/>
      <point x="-19" y="1287" type="line"/>
      <point x="-19" y="1104" type="line"/>
      <point x="896" y="1104" type="line"/>
    </contour>
    <contour>
      <point x="478" y="1167" type="move" name="top"/>
    </contour>
    <contour>
      <point x="466" y="69" type="move" name="bottom"/>
    </contour>
    <contour>
      <point x="480" y="1167" type="move" name="topcandra"/>
    </contour>
  </outline>
</glyph>
<glyph name="lVocalic-deva" format="1">
  <advance width="1254"/>
  <unicode hex="090C"/>
  <outline>
    <contour>
      <point x="648" y="943"/>
      <point x="539" y="775"/>
      <point x="539" y="574" type="curve" smooth="yes"/>
      <point x="539" y="529"/>
      <point x="544" y="485"/>
      <point x="559" y="446" type="curve"/>
      <point x="740" y="465" type="line"/>
      <point x="735" y="497"/>
      <point x="732" y="527"/>
      <point x="732" y="557" type="curve" smooth="yes"/>
      <point x="732" y="668"/>
      <point x="781" y="751"/>
      <point x="880" y="751" type="curve" smooth="yes"/>
      <point x="965" y="751"/>
      <point x="1003" y="667"/>
      <point x="1003" y="563" type="curve" smooth="yes"/>
      <point x="1003" y="476"/>
      <point x="991" y="404"/>
      <point x="929" y="274" type="curve"/>
      <point x="968" y="329" type="line"/>
      <point x="794" y="256"/>
      <point x="727" y="153"/>
      <point x="727" y="49" type="curve"/>
      <point x="727" y="-86"/>
      <point x="839" y="-202"/>
      <point x="1004" y="-202" type="curve" smooth="yes"/>
      <point x="1112" y="-202"/>
      <point x="1215" y="-165"/>
      <point x="1293" y="-107" type="curve"/>
      <point x="1226" y="33" type="line"/>
      <point x="1161" y="-8"/>
      <point x="1088" y="-39"/>
      <point x="1020" y="-39" type="curve" smooth="yes"/>
      <point x="943" y="-39"/>
      <point x="916" y="2"/>
      <point x="916" y="47" type="curve" smooth="yes"/>
      <point x="916" y="111"/>
      <point x="982" y="170"/>
      <point x="1112" y="218" type="curve"/>
      <point x="1169" y="333"/>
      <point x="1200" y="447"/>
      <point x="1200" y="558" type="curve" smooth="yes"/>
      <point x="1200" y="792"/>
      <point x="1085" y="943"/>
      <point x="871" y="943" type="curve" smooth="yes"/>
    </contour>
    <contour>
      <point x="-19" y="1287" type="line"/>
      <point x="-19" y="1104" type="line"/>
      <point x="1273" y="1104" type="line"/>
      <point x="1273" y="1287" type="line"/>
    </contour>
    <contour>
      <point x="838" y="1163" type="line"/>
      <point x="838" y="828" type="line"/>
      <point x="1048" y="828" type="line"/>
      <point x="1048" y="1163" type="line"/>
    </contour>
    <contour>
      <point x="167" y="940"/>
      <point x="54" y="815"/>
      <point x="54" y="597" type="curve" smooth="yes"/>
      <point x="54" y="334"/>
      <point x="214" y="132"/>
      <point x="308" y="24" type="curve"/>
      <point x="456" y="151" type="line"/>
      <point x="345" y="293"/>
      <point x="260" y="423"/>
      <point x="260" y="567" type="curve" smooth="yes"/>
      <point x="260" y="707"/>
      <point x="329" y="746"/>
      <point x="390" y="746" type="curve" smooth="yes"/>
      <point x="495" y="746"/>
      <point x="566" y="659"/>
      <point x="643" y="536" type="curve"/>
      <point x="662" y="671" type="line"/>
      <point x="590" y="860"/>
      <point x="487" y="940"/>
      <point x="340" y="940" type="curve" smooth="yes"/>
    </contour>
    <contour>
      <point x="943" y="1167" type="move" name="top"/>
    </contour>
    <contour>
      <point x="745" y="-80" type="move" name="bottom"/>
    </contour>
    <contour>
      <point x="642" y="1167" type="move" name="topcandra"/>
    </contour>
  </outline>
</glyph>
<glyph name="ai-deva" format="1">
  <advance width="1059"/>
  <unicode hex="0910"/>
  <outline>
    <component base="e-deva"/>
    <component base="eMatra-deva" xOffset="560"/>
    <contour>
      <point x="1158" y="1232" type="move" name="topcandra"/>
    </contour>
  </outline>
</glyph>
<glyph name="ga-deva" format="1">
  <advance width="1147"/>
  <unicode hex="0917"/>
  <outline>
    <contour>
      <point x="760" y="1238" type="line"/>
      <point x="760" y="1" type="line"/>
      <point x="970" y="1" type="line"/>
      <point x="970" y="1238" type="line"/>
    </contour>
    <contour>
      <point x="272" y="729" type="line"/>
      <point x="84" y="706" type="line"/>
      <point x="84" y="563" type="line"/>
      <point x="269" y="357" type="line"/>
      <point x="409" y="358"/>
      <point x="437" y="424"/>
      <point x="437" y="506" type="curve" smooth="yes"/>
      <point x="437" y="729" type="line"/>
    </contour>
    <contour>
      <point x="227" y="1176" type="line"/>
      <point x="227" y="465" type="line"/>
      <point x="437" y="653" type="line"/>
      <point x="437" y="1176" type="line"/>
    </contour>
    <contour>
      <point x="-19" y="1287" type="line"/>
      <point x="-19" y="1104" type="line"/>
      <point x="1165" y="1104" type="line"/>
      <point x="1165" y="1287" type="line"/>
    </contour>
    <contour>
      <point x="330" y="92" type="move" name="nukta"/>
    </contour>
    <contour>
      <point x="865" y="1167" type="move" name="top"/>
    </contour>
    <contour>
      <point x="612" y="1167" type="move" name="topcandra"/>
    </contour>
    <contour>
      <point x="865" y="27" type="move" name="bottom"/>
    </contour>
  </outline>
</glyph>
<glyph name="nga-deva" format="1">
  <advance width="1174"/>
  <unicode hex="0919"/>
  <outline>
    <contour>
      <point x="851" y="1287" type="line"/>
      <point x="851" y="1104" type="line"/>
      <point x="1193" y="1104" type="line"/>
      <point x="1193" y="1287" type="line"/>
    </contour>
    <contour>
      <point x="957" y="761"/>
      <point x="920" y="726"/>
      <point x="920" y="641" type="curve" smooth="yes"/>
      <point x="920" y="557"/>
      <point x="957" y="521"/>
      <point x="1043" y="521" type="curve" smooth="yes"/>
      <point x="1128" y="521"/>
      <point x="1165" y="557"/>
      <point x="1165" y="641" type="curve" smooth="yes"/>
      <point x="1165" y="726"/>
      <point x="1128" y="761"/>
      <point x="1043" y="761" type="curve" smooth="yes"/>
    </contour>
    <component base="dda-deva"/>
    <contour>
      <point x="753" y="1167" type="move" name="top"/>
    </contour>
    <contour>
      <point x="576" y="-101" type="move" name="bottom"/>
    </contour>
    <contour>
      <point x="604" y="1167" type="move" name="topcandra"/>
    </contour>
  </outline>
</glyph>
<glyph name="dda-deva" format="1">
  <advance width="1056"/>
  <unicode hex="0921"/>
  <outline>
    <contour>
      <point x="397" y="932" type="line" smooth="yes"/>
      <point x="175" y="930"/>
      <point x="98" y="846"/>
      <point x="98" y="702" type="curve" smooth="yes"/>
      <point x="98" y="572"/>
      <point x="159" y="421"/>
      <point x="229" y="366" type="curve" smooth="yes"/>
      <point x="265" y="339"/>
      <point x="288" y="339"/>
      <point x="317" y="342" type="curve" smooth="yes"/>
      <point x="382" y="349"/>
      <point x="572" y="369"/>
      <point x="657" y="369" type="curve" smooth="yes"/>
      <point x="770" y="369"/>
      <point x="796" y="334"/>
      <point x="796" y="272" type="curve" smooth="yes"/>
      <point x="795" y="196"/>
      <point x="753" y="118"/>
      <point x="545" y="118" type="curve" smooth="yes"/>
      <point x="355" y="118"/>
      <point x="235" y="186"/>
      <point x="122" y="265" type="curve"/>
      <point x="40" y="135" type="line"/>
      <point x="154" y="23"/>
      <point x="348" y="-67"/>
      <point x="559" y="-67" type="curve" smooth="yes"/>
      <point x="822" y="-67"/>
      <point x="990" y="60"/>
      <point x="990" y="295" type="curve" smooth="yes"/>
      <point x="990" y="524"/>
      <point x="832" y="559"/>
      <point x="668" y="559" type="curve" smooth="yes"/>
      <point x="543" y="559"/>
      <point x="352" y="538"/>
      <point x="291" y="525" type="curve"/>
      <point x="314" y="518" type="line"/>
      <point x="301" y="542"/>
      <point x="285" y="592"/>
      <point x="285" y="645" type="curve" smooth="yes"/>
      <point x="285" y="718"/>
      <point x="315" y="745"/>
      <point x="434" y="745" type="curve" smooth="yes"/>
      <point x="781" y="745" type="line"/>
      <point x="758" y="932" type="line"/>
    </contour>
    <contour>
      <point x="-19" y="1287" type="line"/>
      <point x="-19" y="1104" type="line"/>
      <point x="1075" y="1104" type="line"/>
      <point x="1075" y="1287" type="line"/>
    </contour>
    <contour>
      <point x="651" y="1180" type="line"/>
      <point x="651" y="745" type="line"/>
      <point x="858" y="745" type="line"/>
      <point x="858" y="1180" type="line"/>
    </contour>
    <contour>
      <point x="545" y="-241" type="move" name="nukta"/>
    </contour>
    <contour>
      <point x="759" y="1167" type="move" name="top"/>
    </contour>
    <contour>
      <point x="536" y="1167" type="move" name="topcandra"/>
    </contour>
    <contour>
      <point x="552" y="-37" type="move" name="bottom"/>
    </contour>
  </outline>
</glyph>
<glyph name="ya-deva" format="1">
  <advance width="1164"/>
  <unicode hex="092F"/>
  <outline>
    <contour>
      <point x="169" y="1128" type="line"/>
      <point x="244" y="1045"/>
      <point x="286" y="954"/>
      <point x="286" y="894" type="curve" smooth="yes"/>
      <point x="286" y="795"/>
      <point x="191" y="745"/>
      <point x="34" y="682" type="curve"/>
      <point x="82" y="376"/>
      <point x="282" y="238"/>
      <point x="500" y="238" type="curve" smooth="yes"/>
      <point x="621" y="238"/>
      <point x="762" y="288"/>
      <point x="839" y="410" type="curve"/>
      <point x="848" y="671" type="line"/>
      <point x="754" y="491"/>
      <point x="622" y="429"/>
      <point x="490" y="429" type="curve" smooth="yes"/>
      <point x="362" y="429"/>
      <point x="275" y="485"/>
      <point x="218" y="648" type="curve"/>
      <point x="191" y="561" type="line"/>
      <point x="336" y="615"/>
      <point x="490" y="705"/>
      <point x="490" y="874" type="curve" smooth="yes"/>
      <point x="490" y="956"/>
      <point x="457" y="1025"/>
      <point x="378" y="1129" type="curve"/>
    </contour>
    <contour>
      <point x="778" y="1230" type="line"/>
      <point x="778" y="0" type="line"/>
      <point x="988" y="0" type="line"/>
      <point x="988" y="1230" type="line"/>
    </contour>
    <contour>
      <point x="-19" y="1287" type="line"/>
      <point x="-19" y="1104" type="line"/>
      <point x="1183" y="1104" type="line"/>
      <point x="1183" y="1287" type="line"/>
    </contour>
    <contour>
      <point x="195" y="84" type="move" name="nukta"/>
    </contour>
    <contour>
      <point x="883" y="1167" type="move" name="top"/>
    </contour>
    <contour>
      <point x="584" y="1167" type="move" name="topcandra"/>
    </contour>
    <contour>
      <point x="883" y="27" type="move" name="bottom"/>
    </contour>
  </outline>
</glyph>
<glyph name="ra-deva" format="1">
  <advance width="749"/>
  <unicode hex="0930"/>
  <outline>
    <contour>
      <point x="351" y="1176" type="line"/>
      <point x="351" y="803" type="line" smooth="yes"/>
      <point x="351" y="731"/>
      <point x="330" y="694"/>
      <point x="280" y="694" type="curve" smooth="yes"/>
      <point x="247" y="694"/>
      <point x="216" y="707"/>
      <point x="178" y="739" type="curve"/>
      <point x="43" y="627" type="line"/>
      <point x="479" y="-39" type="line"/>
      <point x="648" y="84" type="line"/>
      <point x="297" y="557" type="line"/>
      <point x="288" y="548" type="line"/>
      <point x="304" y="538"/>
      <point x="331" y="534"/>
      <point x="356" y="534" type="curve" smooth="yes"/>
      <point x="469" y="534"/>
      <point x="561" y="620"/>
      <point x="561" y="797" type="curve" smooth="yes"/>
      <point x="561" y="1176" type="line"/>
    </contour>
    <contour>
      <point x="-19" y="1287" type="line"/>
      <point x="-19" y="1104" type="line"/>
      <point x="768" y="1104" type="line"/>
      <point x="768" y="1287" type="line"/>
    </contour>
    <contour>
      <point x="137" y="97" type="move" name="nukta"/>
    </contour>
    <contour>
      <point x="456" y="1167" type="move" name="top"/>
    </contour>
    <contour>
      <point x="455" y="1167" type="move" name="topcandra"/>
    </contour>
    <contour>
      <point x="509" y="27" type="move" name="bottom"/>
    </contour>
  </outline>
</glyph>
<glyph name="sa-deva" format="1">
  <advance width="1334"/>
  <unicode hex="0938"/>
  <outline>
    <contour>
      <point x="350" y="1176" type="line"/>
      <point x="350" y="801" type="line" smooth="yes"/>
      <point x="350" y="729"/>
      <point x="328" y="692"/>
      <point x="279" y="692" type="curve" smooth="yes"/>
      <point x="244" y="692"/>
      <point x="214" y="706"/>
      <point x="176" y="738" type="curve"/>
      <point x="41" y="627" type="line"/>
      <point x="476" y="-36" type="line"/>
      <point x="646" y="86" type="line"/>
      <point x="294" y="557" type="line"/>
      <point x="287" y="547" type="line"/>
      <point x="303" y="537"/>
      <point x="328" y="532"/>
      <point x="354" y="532" type="curve" smooth="yes"/>
      <point x="467" y="532"/>
      <point x="560" y="618"/>
      <point x="560" y="795" type="curve" smooth="yes"/>
      <point x="560" y="1176" type="line"/>
    </contour>
    <contour>
      <point x="958" y="703"/>
      <point x="857" y="685"/>
      <point x="758" y="685" type="curve" smooth="yes"/>
      <point x="652" y="685"/>
      <point x="548" y="698"/>
      <point x="476" y="733" type="curve"/>
      <point x="415" y="568" type="line"/>
      <point x="520" y="519"/>
      <point x="652" y="496"/>
      <point x="779" y="496" type="curve" smooth="yes"/>
      <point x="873" y="496"/>
      <point x="964" y="508"/>
      <point x="1038" y="532" type="curve"/>
      <point x="1038" y="734" type="line"/>
    </contour>
    <contour>
      <point x="949" y="1141" type="line"/>
      <point x="949" y="0" type="line"/>
      <point x="1159" y="0" type="line"/>
      <point x="1159" y="1141" type="line"/>
    </contour>
    <contour>
      <point x="-19" y="1287" type="line"/>
      <point x="-19" y="1104" type="line"/>
      <point x="1353" y="1104" type="line"/>
      <point x="1353" y="1287" type="line"/>
    </contour>
    <contour>
      <point x="143" y="82" type="move" name="nukta"/>
    </contour>
    <contour>
      <point x="1054" y="1167" type="move" name="top"/>
    </contour>
    <contour>
      <point x="763" y="1167" type="move" name="topcandra"/>
    </contour>
    <contour>
      <point x="1054" y="27" type="move" name="bottom"/>
    </contour>
  </outline>
</glyph>
<glyph name="ooeMatra-deva" format="1">
  <advance width="561"/>
  <unicode hex="093B"/>
  <outline>
    <contour>
      <point x="176" y="1091" type="line"/>
      <point x="386" y="1091" type="line"/>
      <point x="386" y="1574" type="line"/>
      <point x="176" y="1574" type="line"/>
    </contour>
    <component base="aaMatra-deva"/>
  </outline>
</glyph>
<glyph name="iMatra-deva" format="1">
  <advance width="561"/>
  <unicode hex="093F"/>
  <outline>
    <contour>
      <point x="271" y="1808"/>
      <point x="68" y="1741"/>
      <point x="68" y="1524" type="curve" smooth="yes"/>
      <point x="68" y="1403"/>
      <point x="130" y="1305"/>
      <point x="271" y="1197" type="curve"/>
      <point x="451" y="1204" type="line"/>
      <point x="311" y="1341"/>
      <point x="285" y="1398"/>
      <point x="285" y="1475" type="curve" smooth="yes"/>
      <point x="285" y="1568"/>
      <point x="337" y="1614"/>
      <point x="516" y="1614" type="curve" smooth="yes"/>
      <point x="850" y="1614"/>
      <point x="1130" y="1512"/>
      <point x="1442" y="1356" type="curve"/>
      <point x="1516" y="1477" type="line"/>
      <point x="1161" y="1695"/>
      <point x="821" y="1808"/>
      <point x="483" y="1808" type="curve" smooth="yes"/>
    </contour>
    <contour>
      <point x="175" y="1217" type="line"/>
      <point x="175" y="1" type="line"/>
      <point x="385" y="1" type="line"/>
      <point x="385" y="1217" type="line"/>
    </contour>
    <contour>
      <point x="-19" y="1287" type="line"/>
      <point x="-19" y="1104" type="line"/>
      <point x="586" y="1104" type="line"/>
      <point x="586" y="1287" type="line"/>
    </contour>
    <contour>
      <point x="1479" y="1407" type="move" name="imatra"/>
    </contour>
    <contour>
      <point x="1271" y="1461" type="move" name="top"/>
    </contour>
    <contour>
      <point x="1665" y="1351" type="move" name="topcandra"/>
    </contour>
  </outline>
</glyph>
<glyph name="iiMatra-deva" format="1">
  <advance width="563"/>
  <unicode hex="0940"/>
  <outline>
    <contour>
      <point x="365" y="1234" type="line"/>
      <point x="227" y="1610"/>
      <point x="38" y="1809"/>
      <point x="-201" y="1809" type="curve" smooth="yes"/>
      <point x="-334" y="1809"/>
      <point x="-417" y="1729"/>
      <point x="-417" y="1609" type="curve" smooth="yes"/>
      <point x="-417" y="1506"/>
      <point x="-364" y="1416"/>
      <point x="-268" y="1352" type="curve"/>
      <point x="-170" y="1446" type="line"/>
      <point x="-213" y="1488"/>
      <point x="-241" y="1518"/>
      <point x="-241" y="1563" type="curve" smooth="yes"/>
      <point x="-241" y="1600"/>
      <point x="-220" y="1626"/>
      <point x="-176" y="1626" type="curve" smooth="yes"/>
      <point x="-10" y="1626"/>
      <point x="163" y="1354"/>
      <point x="247" y="1126" type="curve"/>
    </contour>
    <contour>
      <point x="386" y="1" type="line"/>
      <point x="386" y="1219" type="line"/>
      <point x="176" y="1219" type="line"/>
      <point x="176" y="1" type="line"/>
    </contour>
    <contour>
      <point x="582" y="1104" type="line"/>
      <point x="582" y="1287" type="line"/>
      <point x="-19" y="1287" type="line"/>
      <point x="-19" y="1104" type="line"/>
    </contour>
    <contour>
      <point x="-208" y="1167" type="move" name="iimatra"/>
    </contour>
    <contour>
      <point x="426" y="1167" type="move" name="top"/>
    </contour>
    <contour>
      <point x="586" y="1219" type="move" name="topcandra"/>
    </contour>
  </outline>
</glyph>
<glyph name="uuMatra-deva" format="1">
  <advance width="540"/>
  <unicode hex="0942"/>
  <outline>
    <contour>
      <point x="442" y="-319" type="line"/>
      <point x="378" y="-344"/>
      <point x="322" y="-360"/>
      <point x="262" y="-360" type="curve" smooth="yes"/>
      <point x="190" y="-360"/>
      <point x="151" y="-333"/>
      <point x="151" y="-249" type="curve" smooth="yes"/>
      <point x="151" y="-182"/>
      <point x="196" y="-138"/>
      <point x="299" y="-138" type="curve" smooth="yes"/>
      <point x="399" y="-138"/>
      <point x="514" y="-180"/>
      <point x="689" y="-370" type="curve"/>
      <point x="794" y="-272" type="line"/>
      <point x="595" y="-21"/>
      <point x="437" y="43"/>
      <point x="297" y="43" type="curve" smooth="yes"/>
      <point x="78" y="43"/>
      <point x="-40" y="-83"/>
      <point x="-40" y="-250" type="curve" smooth="yes"/>
      <point x="-40" y="-405"/>
      <point x="63" y="-531"/>
      <point x="263" y="-531" type="curve" smooth="yes"/>
      <point x="328" y="-531"/>
      <point x="420" y="-516"/>
      <point x="497" y="-477" type="curve"/>
    </contour>
    <contour>
      <point x="270" y="27" type="move" name="_bottom"/>
    </contour>
  </outline>
</glyph>
<glyph name="aiMatra-deva" format="1">
  <advance width="540"/>
  <unicode hex="0948"/>
  <outline>
    <contour>
      <point x="306" y="1251" type="line"/>
      <point x="206" y="1734"/>
      <point x="90" y="1853"/>
      <point x="-197" y="1853" type="curve" smooth="yes"/>
      <point x="-310" y="1853"/>
      <point x="-387" y="1836"/>
      <point x="-429" y="1826" type="curve"/>
      <point x="-394" y="1666" type="line"/>
      <point x="-321" y="1682"/>
      <point x="-253" y="1696"/>
      <point x="-189" y="1696" type="curve" smooth="yes"/>
      <point x="-35" y="1696"/>
      <point x="85" y="1604"/>
      <point x="186" y="1307" type="curve"/>
      <point x="219" y="1327" type="line"/>
      <point x="83" y="1488"/>
      <point x="-5" y="1560"/>
      <point x="-134" y="1560" type="curve" smooth="yes"/>
      <point x="-209" y="1560"/>
      <point x="-304" y="1550"/>
      <point x="-387" y="1528" type="curve"/>
      <point x="-350" y="1383" type="line"/>
      <point x="-272" y="1399"/>
      <point x="-209" y="1408"/>
      <point x="-139" y="1408" type="curve" smooth="yes"/>
      <point x="18" y="1408"/>
      <point x="99" y="1326"/>
      <point x="195" y="1207" type="curve"/>
    </contour>
    <contour>
      <point x="517" y="1220" type="move" name="topcandra"/>
    </contour>
    <contour>
      <point x="223" y="1167" type="move" name="_top"/>
    </contour>
  </outline>
</glyph>
<glyph name="auMatra-deva" format="1">
  <advance width="561"/>
  <unicode hex="094C"/>
  <outline>
    <component base="aaMatra-deva"/>
    <component base="aiMatra-deva" xOffset="58"/>
    <contour>
      <point x="484" y="1168" type="move" name="top"/>
    </contour>
    <contour>
      <point x="542" y="1260" type="move" name="topcandra"/>
    </contour>
  </outline>
</glyph>
<glyph name="halant-deva" format="1">
  <advance width="540"/>
  <unicode hex="094D"/>
  <outline>
    <contour>
      <point x="43" y="-56"/>
      <point x="-2" y="-63"/>
      <point x="-64" y="-70" type="curve"/>
      <point x="-34" y="-261" type="line"/>
      <point x="27" y="-255"/>
      <point x="66" y="-250"/>
      <point x="120" y="-250" type="curve" smooth="yes"/>
      <point x="255" y="-250"/>
      <point x="332" y="-276"/>
      <point x="579" y="-513" type="curve"/>
      <point x="675" y="-418" type="line"/>
      <point x="411" y="-124"/>
      <point x="279" y="-56"/>
      <point x="107" y="-56" type="curve" smooth="yes"/>
    </contour>
    <contour>
      <point x="136" y="27" type="move" name="_bottom"/>
    </contour>
  </outline>
</glyph>
<glyph name="udatta-deva" format="1">
  <advance width="540"/>
  <unicode hex="0951"/>
  <outline>
    <contour>
      <point x="196" y="1886" type="line"/>
      <point x="196" y="1410" type="line"/>
      <point x="345" y="1410" type="line"/>
      <point x="345" y="1886" type="line"/>
    </contour>
    <contour>
      <point x="270" y="1167" type="move" name="_top"/>
    </contour>
  </outline>
</glyph>
<glyph name="grave-deva" format="1">
  <advance width="600"/>
  <unicode hex="0953"/>
  <outline>
    <contour>
      <point x="-364" y="1319" type="line"/>
      <point x="-264" y="1424" type="line"/>
      <point x="-663" y="1821" type="line"/>
      <point x="-790" y="1714" type="line"/>
    </contour>
  </outline>
</glyph>
<glyph name="acute-deva" format="1">
  <advance width="600"/>
  <unicode hex="0954"/>
  <outline>
    <contour>
      <point x="28" y="1821" type="line"/>
      <point x="-371" y="1424" type="line"/>
      <point x="-271" y="1319" type="line"/>
      <point x="156" y="1714" type="line"/>
    </contour>
  </outline>
</glyph>
<glyph name="rrVocalic-deva" format="1">
  <advance width="1514"/>
  <unicode hex="0960"/>
  <outline>
    <contour>
      <point x="727" y="469" type="line"/>
      <point x="731" y="596" type="line"/>
      <point x="489" y="913"/>
      <point x="385" y="938"/>
      <point x="274" y="939" type="curve" smooth="yes"/>
      <point x="176" y="939"/>
      <point x="102" y="902"/>
      <point x="37" y="861" type="curve"/>
      <point x="119" y="681" type="line"/>
      <point x="200" y="722"/>
      <point x="254" y="742"/>
      <point x="304" y="741" type="curve" smooth="yes"/>
      <point x="384" y="741"/>
      <point x="456" y="684"/>
      <point x="608" y="525" type="curve"/>
      <point x="608" y="588" type="line"/>
      <point x="105" y="219" type="line"/>
      <point x="231" y="68" type="line"/>
    </contour>
    <contour>
      <point x="1475" y="-308"/>
      <point x="1577" y="-274"/>
      <point x="1656" y="-216" type="curve"/>
      <point x="1589" y="-76" type="line"/>
      <point x="1523" y="-117"/>
      <point x="1448" y="-146"/>
      <point x="1384" y="-148" type="curve" smooth="yes"/>
      <point x="1312" y="-150"/>
      <point x="1281" y="-122"/>
      <point x="1281" y="-68" type="curve" smooth="yes"/>
      <point x="1281" y="-9"/>
      <point x="1333" y="31"/>
      <point x="1473" y="47" type="curve"/>
      <point x="1451" y="199" type="line"/>
      <point x="1181" y="185"/>
      <point x="1090" y="47"/>
      <point x="1090" y="-71" type="curve" smooth="yes"/>
      <point x="1090" y="-212"/>
      <point x="1202" y="-315"/>
      <point x="1370" y="-311" type="curve" smooth="yes"/>
    </contour>
    <contour>
      <point x="867" y="0" type="line"/>
      <point x="867" y="1148" type="line"/>
      <point x="657" y="1148" type="line"/>
      <point x="657" y="0" type="line"/>
    </contour>
    <contour>
      <point x="1397" y="153" type="line"/>
      <point x="1242" y="179"/>
      <point x="1209" y="239"/>
      <point x="1209" y="291" type="curve" smooth="yes"/>
      <point x="1209" y="367"/>
      <point x="1305" y="388"/>
      <point x="1409" y="402" type="curve"/>
      <point x="1422" y="514" type="line"/>
      <point x="1216" y="851" type="line"/>
      <point x="1077" y="781" type="line"/>
      <point x="1245" y="491" type="line"/>
      <point x="1251" y="538" type="line"/>
      <point x="1139" y="509"/>
      <point x="1009" y="446"/>
      <point x="1009" y="322" type="curve" smooth="yes"/>
      <point x="1009" y="244"/>
      <point x="1030" y="126"/>
      <point x="1298" y="76" type="curve"/>
    </contour>
    <contour>
      <point x="985" y="512"/>
      <point x="1123" y="598"/>
      <point x="1216" y="665" type="curve" smooth="yes"/>
      <point x="1308" y="743"/>
      <point x="1314" y="792"/>
      <point x="1314" y="826" type="curve" smooth="yes"/>
      <point x="1314" y="904"/>
      <point x="1228" y="957"/>
      <point x="1100" y="984" type="curve"/>
      <point x="994" y="891" type="line"/>
      <point x="1076" y="752" type="line"/>
      <point x="1087" y="812" type="line"/>
      <point x="1013" y="734"/>
      <point x="878" y="667"/>
      <point x="727" y="708" type="curve"/>
      <point x="806" y="523" type="line"/>
    </contour>
    <contour>
      <point x="1534" y="1104" type="line"/>
      <point x="1534" y="1287" type="line"/>
      <point x="-19" y="1287" type="line"/>
      <point x="-19" y="1104" type="line"/>
    </contour>
    <contour>
      <point x="761" y="1167" type="move" name="top"/>
    </contour>
    <contour>
      <point x="761" y="27" type="move" name="bottom"/>
    </contour>
    <contour>
      <point x="760" y="1167" type="move" name="topcandra"/>
    </contour>
  </outline>
</glyph>
<glyph name="danda-deva" format="1">
  <advance width="600"/>
  <unicode hex="0964"/>
  <outline>
    <contour>
      <point x="188" y="1287" type="line"/>
      <point x="188" y="0" type="line"/>
      <point x="399" y="0" type="line"/>
      <point x="399" y="1287" type="line"/>
    </contour>
  </outline>
</glyph>
<glyph name="dbldanda-deva" format="1">
  <advance width="885"/>
  <unicode hex="0965"/>
  <outline>
    <contour>
      <point x="125" y="1287" type="line"/>
      <point x="125" y="0" type="line"/>
      <point x="336" y="0" type="line"/>
      <point x="336" y="1287" type="line"/>
    </contour>
    <contour>
      <point x="545" y="1287" type="line"/>
      <point x="545" y="0" type="line"/>
      <point x="756" y="0" type="line"/>
      <point x="756" y="1287" type="line"/>
    </contour>
  </outline>
</glyph>
<glyph name="zero-deva" format="1">
  <advance width="975"/>
  <unicode hex="0966"/>
  <outline>
    <contour>
      <point x="225" y="1071"/>
      <point x="88" y="925"/>
      <point x="88" y="643" type="curve" smooth="yes"/>
      <point x="88" y="362"/>
      <point x="225" y="214"/>
      <point x="488" y="214" type="curve" smooth="yes"/>
      <point x="751" y="214"/>
      <point x="888" y="361"/>
      <point x="888" y="642" type="curve" smooth="yes"/>
      <point x="888" y="924"/>
      <point x="751" y="1071"/>
      <point x="488" y="1071" type="curve" smooth="yes"/>
    </contour>
    <contour>
      <point x="613" y="886"/>
      <point x="679" y="803"/>
      <point x="679" y="637" type="curve" smooth="yes"/>
      <point x="679" y="478"/>
      <point x="613" y="399"/>
      <point x="487" y="399" type="curve" smooth="yes"/>
      <point x="362" y="399"/>
      <point x="297" y="477"/>
      <point x="297" y="637" type="curve" smooth="yes"/>
      <point x="297" y="803"/>
      <point x="362" y="886"/>
      <point x="487" y="886" type="curve" smooth="yes"/>
    </contour>
  </outline>
</glyph>
<glyph name="one-deva" format="1">
  <advance width="786"/>
  <unicode hex="0967"/>
  <outline>
    <contour>
      <point x="210" y="1310"/>
      <point x="72" y="1213"/>
      <point x="72" y="1034" type="curve" smooth="yes"/>
      <point x="72" y="801"/>
      <point x="309" y="676"/>
      <point x="483" y="674" type="curve"/>
      <point x="569" y="778" type="line"/>
      <point x="436" y="796"/>
      <point x="275" y="860"/>
      <point x="276" y="1002" type="curve" smooth="yes"/>
      <point x="276" y="1086"/>
      <point x="333" y="1130"/>
      <point x="417" y="1130" type="curve" smooth="yes"/>
      <point x="513" y="1130"/>
      <point x="553" y="1071"/>
      <point x="553" y="984" type="curve" smooth="yes"/>
      <point x="553" y="823"/>
      <point x="387" y="670"/>
      <point x="121" y="531" type="curve"/>
      <point x="116" y="417" type="line"/>
      <point x="594" y="-194" type="line"/>
      <point x="766" y="-66" type="line"/>
      <point x="236" y="540" type="line"/>
      <point x="283" y="412" type="line"/>
      <point x="544" y="560"/>
      <point x="750" y="714"/>
      <point x="751" y="975" type="curve" smooth="yes"/>
      <point x="751" y="1190"/>
      <point x="612" y="1310"/>
      <point x="400" y="1310" type="curve" smooth="yes"/>
    </contour>
  </outline>
</glyph>
<glyph name="two-deva" format="1">
  <advance width="826"/>
  <unicode hex="0968"/>
  <outline>
    <contour>
      <point x="317" y="1311"/>
      <point x="184" y="1304"/>
      <point x="76" y="1259" type="curve"/>
      <point x="121" y="1092" type="line"/>
      <point x="190" y="1112"/>
      <point x="296" y="1130"/>
      <point x="346" y="1130" type="curve" smooth="yes"/>
      <point x="474" y="1130"/>
      <point x="565" y="1087"/>
      <point x="567" y="949" type="curve" smooth="yes"/>
      <point x="568" y="779"/>
      <point x="417" y="656"/>
      <point x="139" y="604" type="curve"/>
      <point x="296" y="461" type="line"/>
      <point x="587" y="534"/>
      <point x="774" y="724"/>
      <point x="771" y="954" type="curve" smooth="yes"/>
      <point x="768" y="1136"/>
      <point x="664" y="1311"/>
      <point x="369" y="1311" type="curve" smooth="yes"/>
    </contour>
    <contour>
      <point x="204" y="528" type="line"/>
      <point x="642" y="-30" type="line"/>
      <point x="804" y="101" type="line"/>
      <point x="333" y="593" type="line"/>
    </contour>
    <contour>
      <point x="115" y="752" type="line"/>
      <point x="63" y="667"/>
      <point x="52" y="611"/>
      <point x="52" y="575" type="curve" smooth="yes"/>
      <point x="52" y="479"/>
      <point x="128" y="431"/>
      <point x="209" y="431" type="curve" smooth="yes"/>
      <point x="215" y="431"/>
      <point x="282" y="431"/>
      <point x="415" y="461" type="curve"/>
      <point x="409" y="560" type="line"/>
      <point x="232" y="752" type="line"/>
    </contour>
  </outline>
</glyph>
<glyph name="oe-deva" format="1">
  <advance width="1399"/>
  <unicode hex="0973"/>
  <outline>
    <contour>
      <point x="1014" y="1091" type="line"/>
      <point x="1224" y="1091" type="line"/>
      <point x="1224" y="1574" type="line"/>
      <point x="1014" y="1574" type="line"/>
    </contour>
    <component base="a-deva"/>
  </outline>
</glyph>
<glyph name="bba-deva" format="1">
  <advance width="1123"/>
  <unicode hex="097F"/>
  <outline>
    <contour>
      <point x="67" y="74" type="line"/>
      <point x="67" y="-96" type="line"/>
      <point x="948" y="-96" type="line"/>
      <point x="948" y="74" type="line"/>
    </contour>
    <component base="ba-deva"/>
  </outline>
</glyph>
<glyph name="e.sups" format="1">
  <advance width="696"/>
  <unicode hex="1D49"/>
  <outline>
    <contour>
      <point x="54" y="865" type="curve" name="hr00" smooth="yes"/>
      <point x="54" y="644"/>
      <point x="201" y="516"/>
      <point x="386" y="516" type="curve" smooth="yes"/>
      <point x="473" y="516"/>
      <point x="557" y="547"/>
      <point x="624" y="590" type="curve"/>
      <point x="566" y="689" type="line"/>
      <point x="518" y="658"/>
      <point x="464" y="641"/>
      <point x="406" y="641" type="curve" smooth="yes"/>
      <point x="296" y="641"/>
      <point x="220" y="704"/>
      <point x="209" y="827" type="curve"/>
      <point x="637" y="827" type="line"/>
      <point x="644" y="856"/>
      <point x="646" y="871"/>
      <point x="646" y="903" type="curve" smooth="yes"/>
      <point x="646" y="1047"/>
      <point x="571" y="1214"/>
      <point x="368" y="1214" type="curve" smooth="yes"/>
      <point x="200" y="1214"/>
      <point x="54" y="1078"/>
    </contour>
    <contour>
      <point x="508" y="922" type="curve"/>
      <point x="206" y="922" type="line"/>
      <point x="222" y="1031"/>
      <point x="283" y="1089"/>
      <point x="369" y="1089" type="curve" smooth="yes"/>
      <point x="473" y="1089"/>
      <point x="508" y="1005"/>
    </contour>
  </outline>
</glyph>
<glyph name="m.sups" format="1">
  <advance width="1159"/>
  <unicode hex="1D50"/>
  <outline>
    <contour>
      <point x="228" y="1197" type="line" name="hr00"/>
      <point x="98" y="1197" type="line"/>
      <point x="98" y="532" type="line"/>
      <point x="258" y="532" type="line"/>
      <point x="258" y="996" type="line"/>
      <point x="313" y="1052"/>
      <point x="355" y="1079"/>
      <point x="397" y="1079" type="curve" smooth="yes"/>
      <point x="479" y="1079"/>
      <point x="503" y="1023"/>
      <point x="503" y="927" type="curve" smooth="yes"/>
      <point x="503" y="532" type="line"/>
      <point x="662" y="532" type="line"/>
      <point x="662" y="996" type="line"/>
      <point x="718" y="1052"/>
      <point x="760" y="1079"/>
      <point x="802" y="1079" type="curve" smooth="yes"/>
      <point x="885" y="1079"/>
      <point x="909" y="1023"/>
      <point x="909" y="927" type="curve" smooth="yes"/>
      <point x="909" y="532" type="line"/>
      <point x="1069" y="532" type="line"/>
      <point x="1069" y="947" type="line" smooth="yes"/>
      <point x="1069" y="1107"/>
      <point x="1006" y="1214"/>
      <point x="858" y="1214" type="curve" smooth="yes"/>
      <point x="768" y="1214"/>
      <point x="699" y="1156"/>
      <point x="639" y="1094" type="curve"/>
      <point x="607" y="1173"/>
      <point x="543" y="1214"/>
      <point x="453" y="1214" type="curve" smooth="yes"/>
      <point x="362" y="1214"/>
      <point x="302" y="1165"/>
      <point x="247" y="1106" type="curve"/>
      <point x="240" y="1106" type="line"/>
    </contour>
  </outline>
</glyph>
<glyph name="o.sups" format="1">
  <advance width="754"/>
  <unicode hex="1D52"/>
  <outline>
    <contour>
      <point x="56" y="864" type="curve" name="hr00" smooth="yes"/>
      <point x="56" y="646"/>
      <point x="205" y="516"/>
      <point x="376" y="516" type="curve" smooth="yes"/>
      <point x="546" y="516"/>
      <point x="695" y="646"/>
      <point x="695" y="864" type="curve" smooth="yes"/>
      <point x="695" y="1085"/>
      <point x="546" y="1214"/>
      <point x="376" y="1214" type="curve" smooth="yes"/>
      <point x="205" y="1214"/>
      <point x="56" y="1085"/>
    </contour>
    <contour>
      <point x="532" y="864" type="curve" smooth="yes"/>
      <point x="532" y="734"/>
      <point x="476" y="645"/>
      <point x="376" y="645" type="curve" smooth="yes"/>
      <point x="276" y="645"/>
      <point x="219" y="734"/>
      <point x="219" y="864" type="curve" smooth="yes"/>
      <point x="219" y="998"/>
      <point x="276" y="1085"/>
      <point x="376" y="1085" type="curve" smooth="yes"/>
      <point x="476" y="1085"/>
      <point x="532" y="998"/>
    </contour>
  </outline>
</glyph>
<glyph name="v.sups" format="1">
  <advance width="684"/>
  <unicode hex="1D5B"/>
  <outline>
    <contour>
      <point x="175" y="1197" type="line" name="hr00"/>
      <point x="16" y="1197" type="line"/>
      <point x="249" y="532" type="line"/>
      <point x="435" y="532" type="line"/>
      <point x="668" y="1197" type="line"/>
      <point x="513" y="1197" type="line"/>
      <point x="407" y="856" type="line"/>
      <point x="348" y="654" type="line"/>
      <point x="342" y="654" type="line"/>
      <point x="280" y="856" type="line"/>
    </contour>
  </outline>
</glyph>
<glyph name="f.sups" format="1">
  <advance width="436"/>
  <unicode hex="1DA0"/>
  <outline>
    <contour>
      <point x="445" y="1375" type="curve" name="hr00"/>
      <point x="477" y="1490" type="line"/>
      <point x="442" y="1504"/>
      <point x="402" y="1513"/>
      <point x="353" y="1513" type="curve" smooth="yes"/>
      <point x="193" y="1513"/>
      <point x="128" y="1400"/>
      <point x="128" y="1260" type="curve" smooth="yes"/>
      <point x="128" y="1197" type="line"/>
      <point x="36" y="1191" type="line"/>
      <point x="36" y="1073" type="line"/>
      <point x="128" y="1073" type="line"/>
      <point x="128" y="532" type="line"/>
      <point x="288" y="532" type="line"/>
      <point x="288" y="1073" type="line"/>
      <point x="419" y="1073" type="line"/>
      <point x="419" y="1197" type="line"/>
      <point x="288" y="1197" type="line"/>
      <point x="288" y="1268" type="line" smooth="yes"/>
      <point x="288" y="1345"/>
      <point x="318" y="1387"/>
      <point x="372" y="1387" type="curve" smooth="yes"/>
      <point x="402" y="1387"/>
      <point x="427" y="1380"/>
    </contour>
  </outline>
</glyph>
<glyph name="uni1E9E" format="1">
  <advance width="1389"/>
  <unicode hex="1E9E"/>
  <outline>
    <contour>
      <point x="175" y="848" type="curve" name="hr01"/>
      <point x="175" y="0" type="line" name="hr02"/>
      <point x="395" y="0" type="line"/>
      <point x="395" y="813" type="line" smooth="yes"/>
      <point x="395" y="1066"/>
      <point x="510" y="1185"/>
      <point x="711" y="1185" type="curve" smooth="yes"/>
      <point x="839" y="1185"/>
      <point x="921" y="1116"/>
      <point x="962" y="1035" type="curve"/>
      <point x="703" y="743" type="line"/>
      <point x="718" y="608" type="line"/>
      <point x="998" y="559"/>
      <point x="1080" y="466"/>
      <point x="1080" y="356" type="curve" smooth="yes"/>
      <point x="1080" y="239"/>
      <point x="1006" y="157"/>
      <point x="884" y="157" type="curve" name="hr03" smooth="yes"/>
      <point x="801" y="157"/>
      <point x="726" y="189"/>
      <point x="653" y="267" type="curve"/>
      <point x="533" y="128" type="line"/>
      <point x="613" y="42"/>
      <point x="743" y="-25"/>
      <point x="907" y="-25" type="curve" smooth="yes"/>
      <point x="1156" y="-25"/>
      <point x="1306" y="140"/>
      <point x="1306" y="356" type="curve" smooth="yes"/>
      <point x="1306" y="553"/>
      <point x="1180" y="679"/>
      <point x="928" y="739" type="curve"/>
      <point x="1187" y="1027" type="line"/>
      <point x="1118" y="1230"/>
      <point x="961" y="1365"/>
      <point x="718" y="1365" type="curve" smooth="yes"/>
      <point x="344" y="1365"/>
      <point x="175" y="1139"/>
    </contour>
    <contour>
      <point x="740" y="800" type="move" name="top"/>
    </contour>
  </outline>
</glyph>
<glyph name="figuredash" format="1">
  <advance width="1042"/>
  <unicode hex="2012"/>
  <outline>
    <contour>
      <point x="958" y="589" type="line" name="hr00"/>
      <point x="86" y="589" type="line"/>
      <point x="86" y="444" type="line"/>
      <point x="958" y="444" type="line"/>
    </contour>
  </outline>
</glyph>
<glyph name="endash" format="1">
  <advance width="983"/>
  <unicode hex="2013"/>
  <outline>
    <contour>
      <point x="897" y="589" type="line" name="hr00"/>
      <point x="86" y="589" type="line"/>
      <point x="86" y="444" type="line"/>
      <point x="897" y="444" type="line"/>
    </contour>
  </outline>
</glyph>
<glyph name="emdash" format="1">
  <advance width="1638"/>
  <unicode hex="2014"/>
  <outline>
    <contour>
      <point x="1552" y="589" type="line" name="hr00"/>
      <point x="86" y="589" type="line"/>
      <point x="86" y="444" type="line"/>
      <point x="1552" y="444" type="line"/>
    </contour>
  </outline>
</glyph>
<glyph name="quoteleft" format="1">
  <advance width="550"/>
  <unicode hex="2018"/>
  <outline>
    <contour>
      <point x="420" y="1320" type="curve" name="hr01"/>
      <point x="357" y="1415" type="line"/>
      <point x="197" y="1322"/>
      <point x="99" y="1174"/>
      <point x="99" y="978" type="curve" smooth="yes"/>
      <point x="99" y="840"/>
      <point x="169" y="761"/>
      <point x="269" y="761" type="curve" name="hr02" smooth="yes"/>
      <point x="342" y="761"/>
      <point x="396" y="813"/>
      <point x="396" y="894" type="curve" smooth="yes"/>
      <point x="396" y="972"/>
      <point x="337" y="1017"/>
      <point x="270" y="1017" type="curve" smooth="yes"/>
      <point x="264" y="1017"/>
      <point x="257" y="1017"/>
      <point x="251" y="1015" type="curve"/>
      <point x="251" y="1133"/>
      <point x="308" y="1254"/>
    </contour>
  </outline>
</glyph>
<glyph name="i.sups" format="1">
  <advance width="357"/>
  <unicode hex="2071"/>
  <outline>
    <contour>
      <point x="81" y="1402" type="curve" name="hr01" smooth="yes"/>
      <point x="81" y="1349"/>
      <point x="122" y="1311"/>
      <point x="180" y="1311" type="curve" smooth="yes"/>
      <point x="237" y="1311"/>
      <point x="279" y="1349"/>
      <point x="279" y="1402" type="curve" smooth="yes"/>
      <point x="279" y="1454"/>
      <point x="237" y="1492"/>
      <point x="180" y="1492" type="curve" smooth="yes"/>
      <point x="122" y="1492"/>
      <point x="81" y="1454"/>
    </contour>
    <contour>
      <point x="258" y="1197" type="line" name="hr02"/>
      <point x="98" y="1197" type="line"/>
      <point x="98" y="532" type="line"/>
      <point x="258" y="532" type="line"/>
    </contour>
  </outline>
</glyph>
<glyph name="four.sups" format="1">
  <advance width="759"/>
  <unicode hex="2074"/>
  <outline>
    <contour>
      <point x="594" y="1101" type="line" name="hr00"/>
      <point x="713" y="1101" type="line"/>
      <point x="713" y="1214" type="line"/>
      <point x="594" y="1214" type="line"/>
      <point x="594" y="1700" type="line"/>
      <point x="398" y="1700" type="line"/>
      <point x="81" y="1185" type="line"/>
      <point x="81" y="1101" type="line"/>
      <point x="446" y="1101" type="line"/>
      <point x="446" y="901" type="line"/>
      <point x="594" y="901" type="line"/>
    </contour>
    <contour>
      <point x="446" y="1335" type="line"/>
      <point x="446" y="1214" type="line"/>
      <point x="242" y="1214" type="line"/>
      <point x="353" y="1401" type="line"/>
      <point x="448" y="1564" type="line"/>
      <point x="456" y="1564" type="line"/>
    </contour>
  </outline>
</glyph>
<glyph name="five.sups" format="1">
  <advance width="759"/>
  <unicode hex="2075"/>
  <outline>
    <contour>
      <point x="171" y="1116" type="curve" name="hr00"/>
      <point x="66" y="1034" type="line"/>
      <point x="132" y="939"/>
      <point x="236" y="877"/>
      <point x="378" y="877" type="curve" smooth="yes"/>
      <point x="547" y="877"/>
      <point x="673" y="991"/>
      <point x="673" y="1154" type="curve" smooth="yes"/>
      <point x="673" y="1322"/>
      <point x="554" y="1419"/>
      <point x="412" y="1419" type="curve" smooth="yes"/>
      <point x="374" y="1419"/>
      <point x="333" y="1409"/>
      <point x="296" y="1396" type="curve"/>
      <point x="315" y="1558" type="line"/>
      <point x="636" y="1558" type="line"/>
      <point x="636" y="1700" type="line"/>
      <point x="181" y="1700" type="line"/>
      <point x="145" y="1310" type="line"/>
      <point x="221" y="1256" type="line"/>
      <point x="262" y="1292"/>
      <point x="302" y="1314"/>
      <point x="359" y="1314" type="curve" smooth="yes"/>
      <point x="445" y="1314"/>
      <point x="509" y="1257"/>
      <point x="509" y="1160" type="curve" smooth="yes"/>
      <point x="509" y="1072"/>
      <point x="448" y="1005"/>
      <point x="364" y="1005" type="curve" smooth="yes"/>
      <point x="280" y="1005"/>
      <point x="222" y="1045"/>
    </contour>
  </outline>
</glyph>
<glyph name="parenleft.sups" format="1">
  <advance width="509"/>
  <unicode hex="207D"/>
  <outline>
    <contour>
      <point x="131" y="1301" type="curve" name="hr00" smooth="yes"/>
      <point x="131" y="1064"/>
      <point x="197" y="902"/>
      <point x="314" y="731" type="curve"/>
      <point x="433" y="783" type="line"/>
      <point x="333" y="949"/>
      <point x="290" y="1118"/>
      <point x="290" y="1301" type="curve" smooth="yes"/>
      <point x="290" y="1483"/>
      <point x="333" y="1654"/>
      <point x="433" y="1815" type="curve"/>
      <point x="314" y="1869" type="line"/>
      <point x="197" y="1697"/>
      <point x="131" y="1536"/>
    </contour>
  </outline>
</glyph>
<glyph name="parenleft.subs" format="1">
  <advance width="509"/>
  <unicode hex="208D"/>
  <outline>
    <contour>
      <point x="131" y="-62" type="curve" name="hr00" smooth="yes"/>
      <point x="131" y="-299"/>
      <point x="197" y="-460"/>
      <point x="314" y="-631" type="curve"/>
      <point x="433" y="-578" type="line"/>
      <point x="333" y="-414"/>
      <point x="290" y="-245"/>
      <point x="290" y="-62" type="curve" smooth="yes"/>
      <point x="290" y="121"/>
      <point x="333" y="291"/>
      <point x="433" y="452" type="curve"/>
      <point x="314" y="506" type="line"/>
      <point x="197" y="334"/>
      <point x="131" y="173"/>
    </contour>
  </outline>
</glyph>
<glyph name="lira" format="1">
  <advance width="1042"/>
  <unicode hex="20A4"/>
  <outline>
    <contour>
      <point x="106" y="134" type="curve" name="hr00"/>
      <point x="106" y="0" type="line"/>
      <point x="962" y="0" type="line"/>
      <point x="962" y="187" type="line"/>
      <point x="404" y="187" type="line"/>
      <point x="404" y="195" type="line"/>
      <point x="469" y="264"/>
      <point x="507" y="334"/>
      <point x="512" y="440" type="curve"/>
      <point x="514" y="448"/>
      <point x="516" y="457"/>
      <point x="517" y="467" type="curve"/>
      <point x="795" y="467" type="line"/>
      <point x="795" y="587" type="line"/>
      <point x="507" y="587" type="line"/>
      <point x="501" y="625"/>
      <point x="493" y="663"/>
      <point x="482" y="699" type="curve"/>
      <point x="795" y="699" type="line"/>
      <point x="795" y="820" type="line"/>
      <point x="453" y="820" type="line"/>
      <point x="444" y="856"/>
      <point x="439" y="889"/>
      <point x="439" y="927" type="curve" smooth="yes"/>
      <point x="439" y="1065"/>
      <point x="515" y="1148"/>
      <point x="648" y="1148" type="curve" smooth="yes"/>
      <point x="730" y="1148"/>
      <point x="788" y="1110"/>
      <point x="837" y="1048" type="curve"/>
      <point x="961" y="1171" type="line"/>
      <point x="881" y="1266"/>
      <point x="777" y="1329"/>
      <point x="629" y="1329" type="curve" smooth="yes"/>
      <point x="392" y="1329"/>
      <point x="226" y="1177"/>
      <point x="226" y="935" type="curve" smooth="yes"/>
      <point x="226" y="897"/>
      <point x="234" y="859"/>
      <point x="244" y="820" type="curve"/>
      <point x="230" y="820" type="line"/>
      <point x="108" y="809" type="line"/>
      <point x="108" y="699" type="line"/>
      <point x="278" y="699" type="line"/>
      <point x="291" y="662"/>
      <point x="301" y="625"/>
      <point x="310" y="587" type="curve"/>
      <point x="253" y="587" type="line"/>
      <point x="108" y="577" type="line"/>
      <point x="108" y="467" type="line"/>
      <point x="322" y="467" type="line"/>
      <point x="320" y="458"/>
      <point x="319" y="451"/>
      <point x="317" y="443" type="curve"/>
      <point x="305" y="311"/>
      <point x="227" y="197"/>
    </contour>
  </outline>
</glyph>
<glyph name="uni20A6" format="1">
  <advance width="1042"/>
  <unicode hex="20A6"/>
  <outline>
    <contour>
      <point x="876" y="588" type="line" name="hr00"/>
      <point x="876" y="701" type="line"/>
      <point x="1021" y="701" type="line"/>
      <point x="1021" y="800" type="line"/>
      <point x="876" y="800" type="line"/>
      <point x="876" y="1304" type="line"/>
      <point x="711" y="1304" type="line"/>
      <point x="711" y="800" type="line"/>
      <point x="554" y="800" type="line"/>
      <point x="379" y="1304" type="line"/>
      <point x="166" y="1304" type="line"/>
      <point x="166" y="800" type="line"/>
      <point x="17" y="789" type="line"/>
      <point x="17" y="701" type="line"/>
      <point x="166" y="701" type="line"/>
      <point x="166" y="588" type="line"/>
      <point x="17" y="577" type="line"/>
      <point x="17" y="489" type="line"/>
      <point x="166" y="489" type="line"/>
      <point x="166" y="0" type="line"/>
      <point x="331" y="0" type="line"/>
      <point x="331" y="489" type="line"/>
      <point x="495" y="489" type="line"/>
      <point x="664" y="0" type="line"/>
      <point x="876" y="0" type="line"/>
      <point x="876" y="489" type="line"/>
      <point x="1021" y="489" type="line"/>
      <point x="1021" y="588" type="line"/>
    </contour>
    <contour>
      <point x="298" y="1124" type="line"/>
      <point x="395" y="800" type="line"/>
      <point x="315" y="800" type="line"/>
      <point x="289" y="1124" type="line"/>
    </contour>
    <contour>
      <point x="425" y="701" type="line"/>
      <point x="462" y="588" type="line"/>
      <point x="328" y="588" type="line"/>
      <point x="323" y="701" type="line"/>
    </contour>
    <contour>
      <point x="586" y="701" type="line"/>
      <point x="714" y="701" type="line"/>
      <point x="720" y="588" type="line"/>
      <point x="622" y="588" type="line"/>
    </contour>
    <contour>
      <point x="652" y="489" type="line"/>
      <point x="728" y="489" type="line"/>
      <point x="752" y="179" type="line"/>
      <point x="744" y="179" type="line"/>
    </contour>
  </outline>
</glyph>
<glyph name="peseta" format="1">
  <advance width="1042"/>
  <unicode hex="20A7"/>
  <outline>
    <contour>
      <point x="895" y="825" type="curve" name="hr00"/>
      <point x="1018" y="825" type="line"/>
      <point x="1018" y="967" type="line"/>
      <point x="894" y="967" type="line"/>
      <point x="864" y="1213"/>
      <point x="679" y="1304"/>
      <point x="444" y="1304" type="curve" smooth="yes"/>
      <point x="156" y="1304" type="line"/>
      <point x="156" y="967" type="line"/>
      <point x="15" y="956" type="line"/>
      <point x="15" y="825" type="line"/>
      <point x="156" y="825" type="line"/>
      <point x="156" y="0" type="line"/>
      <point x="365" y="0" type="line"/>
      <point x="365" y="475" type="line"/>
      <point x="444" y="475" type="line" smooth="yes"/>
      <point x="676" y="475"/>
      <point x="865" y="588"/>
    </contour>
    <contour>
      <point x="365" y="967" type="line"/>
      <point x="365" y="1160" type="line"/>
      <point x="424" y="1160" type="line" smooth="yes"/>
      <point x="573" y="1160"/>
      <point x="665" y="1105"/>
      <point x="687" y="967" type="curve"/>
    </contour>
    <contour>
      <point x="424" y="619" type="curve"/>
      <point x="365" y="619" type="line"/>
      <point x="365" y="825" type="line"/>
      <point x="687" y="825" type="line"/>
      <point x="667" y="692"/>
      <point x="573" y="619"/>
    </contour>
  </outline>
</glyph>
<glyph name="uni20B9" format="1">
  <advance width="1042"/>
  <unicode hex="20B9"/>
  <outline>
    <contour>
      <point x="652" y="1184" type="curve" name="hr00"/>
      <point x="935" y="1184" type="line"/>
      <point x="935" y="1304" type="line"/>
      <point x="145" y="1304" type="line"/>
      <point x="145" y="1127" type="line"/>
      <point x="286" y="1127" type="line" smooth="yes"/>
      <point x="445" y="1127"/>
      <point x="546" y="1086"/>
      <point x="575" y="977" type="curve"/>
      <point x="291" y="977" type="line"/>
      <point x="145" y="966" type="line"/>
      <point x="145" y="858" type="line"/>
      <point x="579" y="858" type="line"/>
      <point x="560" y="719"/>
      <point x="456" y="652"/>
      <point x="286" y="652" type="curve" smooth="yes"/>
      <point x="145" y="652" type="line"/>
      <point x="145" y="476" type="line"/>
      <point x="298" y="476" type="line"/>
      <point x="636" y="0" type="line"/>
      <point x="883" y="0" type="line"/>
      <point x="511" y="506" type="line"/>
      <point x="669" y="553"/>
      <point x="781" y="667"/>
      <point x="796" y="858" type="curve"/>
      <point x="935" y="858" type="line"/>
      <point x="935" y="977" type="line"/>
      <point x="793" y="977" type="line"/>
      <point x="776" y="1068"/>
      <point x="726" y="1141"/>
    </contour>
  </outline>
</glyph>
<glyph name="uni20BA" format="1">
  <advance width="1042"/>
  <unicode hex="20BA"/>
  <outline>
    <contour>
      <point x="789" y="490" type="curve" name="hr00" smooth="yes"/>
      <point x="789" y="301"/>
      <point x="607" y="191"/>
      <point x="437" y="181" type="curve"/>
      <point x="437" y="610" type="line"/>
      <point x="759" y="781" type="line"/>
      <point x="759" y="910" type="line"/>
      <point x="437" y="741" type="line"/>
      <point x="437" y="875" type="line"/>
      <point x="759" y="1045" type="line"/>
      <point x="759" y="1175" type="line"/>
      <point x="437" y="1006" type="line"/>
      <point x="437" y="1304" type="line"/>
      <point x="216" y="1304" type="line"/>
      <point x="216" y="897" type="line"/>
      <point x="40" y="804" type="line"/>
      <point x="40" y="674" type="line"/>
      <point x="216" y="767" type="line"/>
      <point x="216" y="633" type="line"/>
      <point x="40" y="540" type="line"/>
      <point x="40" y="410" type="line"/>
      <point x="216" y="503" type="line"/>
      <point x="216" y="-25" type="line"/>
      <point x="672" y="-35"/>
      <point x="979" y="144"/>
      <point x="979" y="500" type="curve" smooth="yes"/>
      <point x="979" y="530"/>
      <point x="975" y="568"/>
      <point x="965" y="612" type="curve"/>
      <point x="782" y="568" type="line"/>
      <point x="789" y="532"/>
      <point x="789" y="509"/>
    </contour>
  </outline>
</glyph>
<glyph name="uni2117" format="1">
  <advance width="1527"/>
  <unicode hex="2117"/>
  <outline>
    <contour>
      <point x="767" y="1367" type="curve" name="hr00" smooth="yes"/>
      <point x="395" y="1367"/>
      <point x="74" y="1100"/>
      <point x="74" y="663" type="curve" smooth="yes"/>
      <point x="74" y="226"/>
      <point x="395" y="-49"/>
      <point x="767" y="-49" type="curve" smooth="yes"/>
      <point x="1140" y="-49"/>
      <point x="1459" y="226"/>
      <point x="1459" y="663" type="curve" smooth="yes"/>
      <point x="1459" y="1099"/>
      <point x="1140" y="1367"/>
    </contour>
    <contour>
      <point x="766" y="54" type="curve" smooth="yes"/>
      <point x="448" y="54"/>
      <point x="189" y="298"/>
      <point x="189" y="663" type="curve" smooth="yes"/>
      <point x="189" y="1027"/>
      <point x="448" y="1266"/>
      <point x="766" y="1266" type="curve" smooth="yes"/>
      <point x="1086" y="1266"/>
      <point x="1345" y="1027"/>
      <point x="1345" y="663" type="curve" smooth="yes"/>
      <point x="1345" y="298"/>
      <point x="1086" y="54"/>
    </contour>
    <contour>
      <point x="795" y="1027" type="curve"/>
      <point x="507" y="1027" type="line"/>
      <point x="507" y="283" type="line"/>
      <point x="672" y="283" type="line"/>
      <point x="672" y="499" type="line"/>
      <point x="795" y="499" type="line" smooth="yes"/>
      <point x="972" y="499"/>
      <point x="1117" y="588"/>
      <point x="1117" y="777" type="curve" smooth="yes"/>
      <point x="1117" y="955"/>
      <point x="976" y="1027"/>
    </contour>
    <contour>
      <point x="775" y="621" type="curve"/>
      <point x="672" y="621" type="line"/>
      <point x="672" y="901" type="line"/>
      <point x="775" y="901" type="line" smooth="yes"/>
      <point x="888" y="901"/>
      <point x="954" y="863"/>
      <point x="954" y="772" type="curve" smooth="yes"/>
      <point x="954" y="668"/>
      <point x="891" y="621"/>
    </contour>
  </outline>
</glyph>
<glyph name="uni2120" format="1">
  <advance width="1340"/>
  <unicode hex="2120"/>
  <outline>
    <contour>
      <point x="128" y="915" type="curve" name="hr01"/>
      <point x="48" y="821" type="line"/>
      <point x="115" y="757"/>
      <point x="197" y="722"/>
      <point x="287" y="722" type="curve" smooth="yes"/>
      <point x="431" y="722"/>
      <point x="522" y="817"/>
      <point x="522" y="917" type="curve" smooth="yes"/>
      <point x="522" y="1015"/>
      <point x="473" y="1066"/>
      <point x="391" y="1100" type="curve"/>
      <point x="300" y="1143" type="line"/>
      <point x="248" y="1166"/>
      <point x="218" y="1185"/>
      <point x="218" y="1220" type="curve" smooth="yes"/>
      <point x="218" y="1255"/>
      <point x="244" y="1285"/>
      <point x="300" y="1285" type="curve" smooth="yes"/>
      <point x="346" y="1285"/>
      <point x="398" y="1257"/>
      <point x="441" y="1225" type="curve"/>
      <point x="514" y="1323" type="line"/>
      <point x="462" y="1366"/>
      <point x="387" y="1402"/>
      <point x="308" y="1402" type="curve" smooth="yes"/>
      <point x="171" y="1402"/>
      <point x="81" y="1320"/>
      <point x="81" y="1213" type="curve" smooth="yes"/>
      <point x="81" y="1113"/>
      <point x="141" y="1062"/>
      <point x="206" y="1031" type="curve" smooth="yes"/>
      <point x="299" y="987" type="line" smooth="yes"/>
      <point x="354" y="961"/>
      <point x="382" y="949"/>
      <point x="382" y="903" type="curve" smooth="yes"/>
      <point x="382" y="862"/>
      <point x="351" y="837"/>
      <point x="297" y="837" type="curve" smooth="yes"/>
      <point x="233" y="837"/>
      <point x="177" y="869"/>
    </contour>
    <contour>
      <point x="861" y="1384" type="line" name="hr02"/>
      <point x="680" y="1384" type="line"/>
      <point x="680" y="747" type="line"/>
      <point x="826" y="747" type="line"/>
      <point x="826" y="995" type="line"/>
      <point x="808" y="1218" type="line"/>
      <point x="817" y="1218" type="line"/>
      <point x="949" y="843" type="line"/>
      <point x="1057" y="843" type="line"/>
      <point x="1189" y="1218" type="line"/>
      <point x="1197" y="1218" type="line"/>
      <point x="1180" y="995" type="line"/>
      <point x="1180" y="747" type="line"/>
      <point x="1325" y="747" type="line"/>
      <point x="1325" y="1384" type="line"/>
      <point x="1144" y="1384" type="line"/>
      <point x="1057" y="1172" type="line"/>
      <point x="1007" y="1020" type="line"/>
      <point x="999" y="1020" type="line"/>
      <point x="949" y="1172" type="line"/>
    </contour>
  </outline>
</glyph>
<glyph name="uni2126" format="1">
  <advance width="1438"/>
  <unicode hex="2126"/>
  <outline>
    <contour>
      <point x="344" y="179" type="line" name="hr01"/>
      <point x="87" y="179" type="line"/>
      <point x="87" y="0" type="line"/>
      <point x="605" y="0" type="line"/>
      <point x="605" y="147" type="line"/>
      <point x="449" y="269"/>
      <point x="345" y="451"/>
      <point x="345" y="716" type="curve" smooth="yes"/>
      <point x="345" y="998"/>
      <point x="486" y="1185"/>
      <point x="718" y="1185" type="curve" smooth="yes"/>
      <point x="950" y="1185"/>
      <point x="1093" y="998"/>
      <point x="1093" y="716" type="curve" smooth="yes"/>
      <point x="1093" y="451"/>
      <point x="988" y="269"/>
      <point x="832" y="147" type="curve"/>
      <point x="832" y="0" type="line" name="hr02"/>
      <point x="1350" y="0" type="line"/>
      <point x="1350" y="179" type="line"/>
      <point x="1092" y="179" type="line"/>
      <point x="1092" y="187" type="line"/>
      <point x="1199" y="293"/>
      <point x="1320" y="476"/>
      <point x="1320" y="726" type="curve" name="hr03" smooth="yes"/>
      <point x="1320" y="1128"/>
      <point x="1079" y="1376"/>
      <point x="718" y="1376" type="curve" smooth="yes"/>
      <point x="359" y="1376"/>
      <point x="118" y="1128"/>
      <point x="118" y="726" type="curve" smooth="yes"/>
      <point x="118" y="476"/>
      <point x="238" y="293"/>
      <point x="344" y="187" type="curve"/>
    </contour>
  </outline>
</glyph>
<glyph name="estimated" format="1">
  <advance width="1638"/>
  <unicode hex="212E"/>
  <outline>
    <contour>
      <point x="823" y="17" type="curve" name="hr00" smooth="yes"/>
      <point x="647" y="17"/>
      <point x="487" y="95"/>
      <point x="377" y="221" type="curve"/>
      <point x="369" y="233"/>
      <point x="360" y="247"/>
      <point x="360" y="263" type="curve" smooth="yes"/>
      <point x="360" y="639" type="line" smooth="yes"/>
      <point x="360" y="644"/>
      <point x="365" y="647"/>
      <point x="369" y="647" type="curve" smooth="yes"/>
      <point x="1545" y="647" type="line"/>
      <point x="1545" y="665" type="line" smooth="yes"/>
      <point x="1545" y="1045"/>
      <point x="1222" y="1353"/>
      <point x="820" y="1353" type="curve" smooth="yes"/>
      <point x="419" y="1353"/>
      <point x="94" y="1045"/>
      <point x="94" y="665" type="curve" smooth="yes"/>
      <point x="94" y="284"/>
      <point x="419" y="-24"/>
      <point x="820" y="-24" type="curve" smooth="yes"/>
      <point x="1054" y="-24"/>
      <point x="1263" y="83"/>
      <point x="1397" y="246" type="curve"/>
      <point x="1290" y="246" type="line"/>
      <point x="1177" y="106"/>
      <point x="1009" y="17"/>
    </contour>
    <contour>
      <point x="1271" y="685" type="curve"/>
      <point x="369" y="685" type="line" smooth="yes"/>
      <point x="365" y="685"/>
      <point x="360" y="689"/>
      <point x="360" y="696" type="curve" smooth="yes"/>
      <point x="360" y="1065" type="line" smooth="yes"/>
      <point x="360" y="1082"/>
      <point x="369" y="1099"/>
      <point x="378" y="1111" type="curve"/>
      <point x="492" y="1234"/>
      <point x="647" y="1312"/>
      <point x="823" y="1312" type="curve" smooth="yes"/>
      <point x="992" y="1312"/>
      <point x="1148" y="1237"/>
      <point x="1263" y="1118" type="curve" smooth="yes"/>
      <point x="1274" y="1106"/>
      <point x="1282" y="1091"/>
      <point x="1282" y="1073" type="curve" smooth="yes"/>
      <point x="1282" y="696" type="line" smooth="yes"/>
      <point x="1282" y="689"/>
      <point x="1278" y="685"/>
    </contour>
  </outline>
</glyph>
<glyph name="partialdiff" format="1">
  <advance width="1120"/>
  <unicode hex="2202"/>
  <outline>
    <contour>
      <point x="238" y="1234" type="curve" name="hr00"/>
      <point x="335" y="1098" type="line"/>
      <point x="399" y="1161"/>
      <point x="474" y="1197"/>
      <point x="558" y="1197" type="curve" smooth="yes"/>
      <point x="728" y="1197"/>
      <point x="821" y="1055"/>
      <point x="821" y="757" type="curve" smooth="yes"/>
      <point x="821" y="738"/>
      <point x="821" y="720"/>
      <point x="819" y="702" type="curve"/>
      <point x="743" y="789"/>
      <point x="636" y="840"/>
      <point x="531" y="840" type="curve" smooth="yes"/>
      <point x="262" y="840"/>
      <point x="88" y="647"/>
      <point x="88" y="373" type="curve" smooth="yes"/>
      <point x="88" y="127"/>
      <point x="267" y="-25"/>
      <point x="472" y="-25" type="curve" smooth="yes"/>
      <point x="803" y="-25"/>
      <point x="1030" y="287"/>
      <point x="1030" y="751" type="curve" smooth="yes"/>
      <point x="1030" y="1153"/>
      <point x="865" y="1376"/>
      <point x="580" y="1376" type="curve" smooth="yes"/>
      <point x="447" y="1376"/>
      <point x="333" y="1323"/>
    </contour>
    <contour>
      <point x="803" y="527" type="curve"/>
      <point x="760" y="279"/>
      <point x="643" y="155"/>
      <point x="494" y="155" type="curve" smooth="yes"/>
      <point x="387" y="155"/>
      <point x="293" y="241"/>
      <point x="293" y="386" type="curve" smooth="yes"/>
      <point x="293" y="556"/>
      <point x="384" y="669"/>
      <point x="553" y="669" type="curve" smooth="yes"/>
      <point x="637" y="669"/>
      <point x="724" y="631"/>
    </contour>
  </outline>
</glyph>
<glyph name="product" format="1">
  <advance width="1407"/>
  <unicode hex="220F"/>
  <outline>
    <contour>
      <point x="1233" y="1304" type="line" name="hr00"/>
      <point x="175" y="1304" type="line"/>
      <point x="175" y="-246" type="line"/>
      <point x="395" y="-246" type="line"/>
      <point x="395" y="1112" type="line"/>
      <point x="1011" y="1112" type="line"/>
      <point x="1011" y="-246" type="line"/>
      <point x="1233" y="-246" type="line"/>
    </contour>
  </outline>
</glyph>
<glyph name="radical" format="1">
  <advance width="1165"/>
  <unicode hex="221A"/>
  <outline>
    <contour>
      <point x="602" y="189" type="curve" name="hr01"/>
      <point x="377" y="856" type="line"/>
      <point x="73" y="727" type="line"/>
      <point x="118" y="615" type="line"/>
      <point x="265" y="680" type="line"/>
      <point x="572" y="-183" type="line" name="hr02"/>
      <point x="732" y="-183" type="line"/>
      <point x="1176" y="1679" type="line"/>
      <point x="1023" y="1679" type="line"/>
      <point x="675" y="189" type="line"/>
      <point x="665" y="141"/>
      <point x="656" y="91"/>
      <point x="648" y="44" type="curve"/>
      <point x="640" y="44" type="line"/>
      <point x="628" y="91"/>
      <point x="617" y="141"/>
    </contour>
  </outline>
</glyph>
<glyph name="lessequal" format="1">
  <advance width="1042"/>
  <unicode hex="2264"/>
  <outline>
    <contour>
      <point x="972" y="1113" type="line" name="hr00"/>
      <point x="70" y="808" type="line"/>
      <point x="70" y="619" type="line"/>
      <point x="972" y="314" type="line"/>
      <point x="972" y="499" type="line"/>
      <point x="572" y="627" type="line"/>
      <point x="293" y="709" type="line"/>
      <point x="293" y="718" type="line"/>
      <point x="572" y="800" type="line"/>
      <point x="972" y="928" type="line"/>
    </contour>
    <contour>
      <point x="972" y="160" type="line"/>
      <point x="70" y="160" type="line"/>
      <point x="70" y="0" type="line"/>
      <point x="972" y="0" type="line"/>
    </contour>
  </outline>
</glyph>
<glyph name="filledbox" format="1">
  <advance width="660"/>
  <unicode hex="25A0"/>
  <outline>
    <contour>
      <point x="111" y="763" type="line"/>
      <point x="111" y="315" type="line"/>
      <point x="549" y="315" type="line"/>
      <point x="549" y="763" type="line"/>
    </contour>
  </outline>
</glyph>
<glyph name="blackrightpointingtriangle" format="1">
  <advance width="1187"/>
  <unicode hex="25B6"/>
  <outline>
    <contour>
      <point x="114" y="1126" type="line"/>
      <point x="114" y="27" type="line"/>
      <point x="118" y="27" type="line"/>
      <point x="1154" y="573" type="line"/>
      <point x="1154" y="582" type="line"/>
      <point x="118" y="1126" type="line"/>
    </contour>
  </outline>
</glyph>
<glyph name="whiteleftpointingtriangle" format="1">
  <advance width="1187"/>
  <unicode hex="25C1"/>
  <outline>
    <contour>
      <point x="921" y="290" type="line"/>
      <point x="361" y="578" type="line"/>
      <point x="921" y="863" type="line"/>
    </contour>
    <contour>
      <point x="1073" y="27" type="line"/>
      <point x="1073" y="1126" type="line"/>
      <point x="1069" y="1126" type="line"/>
      <point x="34" y="582" type="line"/>
      <point x="34" y="573" type="line"/>
      <point x="1069" y="27" type="line"/>
    </contour>
  </outline>
</glyph>
<glyph name="blackDiamond" format="1">
  <advance width="660"/>
  <unicode hex="25C6"/>
  <outline>
    <contour>
      <point x="21" y="538" type="line"/>
      <point x="330" y="231" type="line"/>
      <point x="637" y="538" type="line"/>
      <point x="330" y="845" type="line"/>
    </contour>
  </outline>
</glyph>
<glyph name="lozenge" format="1">
  <advance width="1083"/>
  <unicode hex="25CA"/>
  <outline>
    <contour>
      <point x="447" y="1372" type="line" name="hr00"/>
      <point x="112" y="676" type="line"/>
      <point x="447" y="-20" type="line"/>
      <point x="636" y="-20" type="line"/>
      <point x="971" y="676" type="line"/>
      <point x="636" y="1372" type="line"/>
    </contour>
    <contour>
      <point x="667" y="426" type="line"/>
      <point x="546" y="163" type="line"/>
      <point x="538" y="163" type="line"/>
      <point x="416" y="426" type="line"/>
      <point x="298" y="676" type="line"/>
      <point x="416" y="924" type="line"/>
      <point x="538" y="1189" type="line"/>
      <point x="546" y="1189" type="line"/>
      <point x="667" y="924" type="line"/>
      <point x="785" y="676" type="line"/>
    </contour>
  </outline>
</glyph>
<glyph name="uni2752" format="1">
  <advance width="801"/>
  <unicode hex="2752"/>
  <outline>
    <contour>
      <point x="197" y="318" type="line"/>
      <point x="197" y="669" type="line"/>
      <point x="535" y="669" type="line"/>
      <point x="535" y="318" type="line"/>
    </contour>
    <contour>
      <point x="111" y="234" type="line"/>
      <point x="583" y="234" type="line"/>
      <point x="690" y="360" type="line"/>
      <point x="690" y="823" type="line"/>
      <point x="237" y="823" type="line"/>
      <point x="111" y="717" type="line"/>
    </contour>
  </outline>
</glyph>
<glyph name="fl" format="1">
  <advance width="1183"/>
  <unicode hex="FB02"/>
  <outline>
    <contour>
      <point x="192" y="1121" type="curve" name="hr01"/>
      <point x="192" y="1002" type="line" name="hr02"/>
      <point x="56" y="992" type="line"/>
      <point x="56" y="828" type="line" name="hr03"/>
      <point x="192" y="828" type="line"/>
      <point x="192" y="0" type="line"/>
      <point x="411" y="0" type="line"/>
      <point x="411" y="828" type="line"/>
      <point x="610" y="828" type="line"/>
      <point x="610" y="1003" type="line"/>
      <point x="411" y="1003" type="line"/>
      <point x="411" y="1124" type="line" smooth="yes"/>
      <point x="411" y="1243"/>
      <point x="455" y="1299"/>
      <point x="541" y="1299" type="curve" smooth="yes"/>
      <point x="577" y="1299"/>
      <point x="615" y="1290"/>
      <point x="651" y="1276" type="curve"/>
      <point x="695" y="1440" type="line"/>
      <point x="650" y="1457"/>
      <point x="585" y="1474"/>
      <point x="514" y="1474" type="curve" smooth="yes"/>
      <point x="287" y="1474"/>
      <point x="192" y="1329"/>
    </contour>
    <contour>
      <point x="1124" y="-5" type="curve" name="hr04"/>
      <point x="1096" y="159" type="line" name="hr05"/>
      <point x="1078" y="155"/>
      <point x="1070" y="155"/>
      <point x="1059" y="155" type="curve" smooth="yes"/>
      <point x="1034" y="155"/>
      <point x="1010" y="175"/>
      <point x="1010" y="232" type="curve" smooth="yes"/>
      <point x="1010" y="1450" type="line"/>
      <point x="791" y="1450" type="line"/>
      <point x="791" y="245" type="line" smooth="yes"/>
      <point x="791" y="76"/>
      <point x="849" y="-25"/>
      <point x="1007" y="-25" type="curve" smooth="yes"/>
      <point x="1059" y="-25"/>
      <point x="1097" y="-16"/>
    </contour>
  </outline>
</glyph>
<glyph name="aiMatra_anusvara-deva" format="1">
  <advance width="1020"/>
  <outline>
    <component base="anusvara-deva" xOffset="628" yOffset="20"/>
    <component base="aiMatra-deva" xOffset="489"/>
    <contour>
      <point x="735" y="1167" type="move" name="_top"/>
    </contour>
  </outline>
</glyph>
<glyph name="aiMatra_reph-deva" format="1">
  <advance width="540"/>
  <outline>
    <component base="aiMatra-deva"/>
    <component base="reph-deva" xOffset="70" yOffset="-11"/>
    <contour>
      <point x="420" y="1577" type="move" name="topcandra"/>
    </contour>
    <contour>
      <point x="251" y="1167" type="move" name="_top"/>
    </contour>
  </outline>
</glyph>
<glyph name="aiMatra_reph_anusvara-deva" format="1">
  <advance width="540"/>
  <outline>
    <component base="aiMatra-deva"/>
    <component base="reph_anusvara-deva" xOffset="67" yOffset="-11"/>
    <contour>
      <point x="421" y="1577" type="move" name="topcandra"/>
    </contour>
    <contour>
      <point x="251" y="1167" type="move" name="_top"/>
    </contour>
  </outline>
</glyph>
<glyph name="anusvara_eMatra-deva" format="1">
  <advance width="540"/>
  <outline>
    <contour>
      <point x="382" y="1623"/>
      <point x="350" y="1592"/>
      <point x="350" y="1519" type="curve" smooth="yes"/>
      <point x="350" y="1447"/>
      <point x="382" y="1416"/>
      <point x="455" y="1416" type="curve" smooth="yes"/>
      <point x="529" y="1416"/>
      <point x="560" y="1447"/>
      <point x="560" y="1519" type="curve" smooth="yes"/>
      <point x="560" y="1592"/>
      <point x="529" y="1623"/>
      <point x="455" y="1623" type="curve" smooth="yes"/>
    </contour>
    <contour>
      <point x="270" y="1167" type="move" name="_top"/>
    </contour>
  </outline>
</glyph>
<glyph name="auMatra_reph-deva" format="1">
  <advance width="561"/>
  <outline>
    <component base="aaMatra-deva"/>
    <component base="aiMatra_reph-deva" xOffset="30"/>
    <contour>
      <point x="439" y="1603" type="move" name="topcandra"/>
    </contour>
  </outline>
</glyph>
<glyph name="auMatra_reph_anusvara-deva" format="1">
  <advance width="561"/>
  <outline>
    <component base="aaMatra-deva"/>
    <component base="aiMatra_reph_anusvara-deva" xOffset="30"/>
    <contour>
      <point x="439" y="1603" type="move" name="topcandra"/>
    </contour>
  </outline>
</glyph>
<glyph name="b_j_ya-deva" format="1">
  <advance width="2763"/>
  <outline>
    <contour>
      <point x="219" y="953"/>
      <point x="42" y="852"/>
      <point x="42" y="564" type="curve" smooth="yes"/>
      <point x="42" y="383"/>
      <point x="116" y="171"/>
      <point x="404" y="171" type="curve" smooth="yes"/>
      <point x="588" y="171"/>
      <point x="744" y="258"/>
      <point x="842" y="388" type="curve"/>
      <point x="793" y="594" type="line"/>
      <point x="711" y="448"/>
      <point x="606" y="345"/>
      <point x="446" y="345" type="curve" smooth="yes"/>
      <point x="316" y="345"/>
      <point x="259" y="397"/>
      <point x="259" y="552" type="curve" smooth="yes"/>
      <point x="259" y="712"/>
      <point x="291" y="775"/>
      <point x="471" y="775" type="curve" smooth="yes"/>
      <point x="540" y="775"/>
      <point x="579" y="774"/>
      <point x="624" y="758" type="curve"/>
      <point x="663" y="920" type="line"/>
      <point x="606" y="945"/>
      <point x="524" y="953"/>
      <point x="465" y="953" type="curve" smooth="yes"/>
    </contour>
    <contour>
      <point x="222" y="738" type="line"/>
      <point x="674" y="285" type="line"/>
      <point x="783" y="396" type="line"/>
      <point x="331" y="849" type="line"/>
    </contour>
    <contour>
      <point x="1171" y="754" type="line"/>
      <point x="1286" y="702"/>
      <point x="1324" y="629"/>
      <point x="1324" y="548" type="curve" smooth="yes"/>
      <point x="1324" y="458"/>
      <point x="1275" y="405"/>
      <point x="1180" y="403" type="curve" smooth="yes"/>
      <point x="938" y="398"/>
      <point x="910" y="745"/>
      <point x="887" y="909" type="curve"/>
      <point x="713" y="885" type="line"/>
      <point x="731" y="491"/>
      <point x="849" y="195"/>
      <point x="1196" y="195" type="curve" smooth="yes"/>
      <point x="1399" y="195"/>
      <point x="1540" y="310"/>
      <point x="1540" y="493" type="curve" smooth="yes"/>
      <point x="1540" y="633"/>
      <point x="1476" y="701"/>
      <point x="1332" y="775" type="curve"/>
      <point x="1243" y="909" type="line"/>
    </contour>
    <contour>
      <point x="1243" y="909" type="line"/>
      <point x="1322" y="730" type="line"/>
      <point x="1898" y="730" type="line"/>
      <point x="1898" y="909" type="line"/>
    </contour>
    <contour>
      <point x="-20" y="1293" type="line"/>
      <point x="-20" y="1099" type="line"/>
      <point x="1622" y="1099" type="line"/>
      <point x="1622" y="1293" type="line"/>
    </contour>
    <component base="ya-deva" xOffset="1596"/>
  </outline>
</glyph>
<glyph name="b_la-deva.loclMAR" format="1">
  <advance width="1198"/>
  <outline>
    <contour>
      <point x="247" y="966"/>
      <point x="114" y="851"/>
      <point x="114" y="626" type="curve" smooth="yes"/>
      <point x="114" y="443"/>
      <point x="189" y="268"/>
      <point x="501" y="268" type="curve" smooth="yes"/>
      <point x="669" y="268"/>
      <point x="802" y="332"/>
      <point x="877" y="451" type="curve"/>
      <point x="833" y="593" type="line"/>
      <point x="756" y="495"/>
      <point x="661" y="440"/>
      <point x="532" y="440" type="curve" smooth="yes"/>
      <point x="373" y="440"/>
      <point x="318" y="475"/>
      <point x="318" y="613" type="curve" smooth="yes"/>
      <point x="318" y="741"/>
      <point x="378" y="786"/>
      <point x="546" y="788" type="curve" smooth="yes"/>
      <point x="660" y="790"/>
      <point x="774" y="774"/>
      <point x="880" y="750" type="curve"/>
      <point x="875" y="838" type="line"/>
      <point x="809" y="923"/>
      <point x="691" y="966"/>
      <point x="509" y="966" type="curve" smooth="yes"/>
    </contour>
    <contour>
      <point x="-19" y="1287" type="line"/>
      <point x="-19" y="1104" type="line"/>
      <point x="1217" y="1104" type="line"/>
      <point x="1217" y="1287" type="line"/>
    </contour>
    <contour>
      <point x="793" y="1195" type="line"/>
      <point x="793" y="28" type="line"/>
      <point x="1003" y="28" type="line"/>
      <point x="1003" y="1195" type="line"/>
    </contour>
    <contour>
      <point x="353" y="763" type="line"/>
      <point x="734" y="380" type="line"/>
      <point x="826" y="478" type="line"/>
      <point x="445" y="862" type="line"/>
    </contour>
    <contour>
      <point x="618" y="189"/>
      <point x="512" y="24"/>
      <point x="512" y="-173" type="curve" smooth="yes"/>
      <point x="512" y="-218"/>
      <point x="517" y="-260"/>
      <point x="532" y="-299" type="curve"/>
      <point x="710" y="-280" type="line"/>
      <point x="705" y="-249"/>
      <point x="702" y="-220"/>
      <point x="702" y="-190" type="curve" smooth="yes"/>
      <point x="702" y="-82"/>
      <point x="749" y="0"/>
      <point x="848" y="0" type="curve" smooth="yes"/>
      <point x="933" y="0"/>
      <point x="987" y="-51"/>
      <point x="987" y="-146" type="curve" smooth="yes"/>
      <point x="987" y="-237"/>
      <point x="963" y="-336"/>
      <point x="790" y="-463" type="curve"/>
      <point x="894" y="-603" type="line"/>
      <point x="1109" y="-477"/>
      <point x="1181" y="-288"/>
      <point x="1181" y="-151" type="curve" smooth="yes"/>
      <point x="1181" y="58"/>
      <point x="1055" y="189"/>
      <point x="840" y="189" type="curve" smooth="yes"/>
    </contour>
    <contour>
      <point x="130" y="186"/>
      <point x="18" y="63"/>
      <point x="18" y="-116" type="curve" smooth="yes"/>
      <point x="18" y="-358"/>
      <point x="163" y="-496"/>
      <point x="336" y="-598" type="curve"/>
      <point x="425" y="-455" type="line"/>
      <point x="275" y="-361"/>
      <point x="222" y="-272"/>
      <point x="222" y="-146" type="curve" smooth="yes"/>
      <point x="222" y="-44"/>
      <point x="289" y="-5"/>
      <point x="366" y="-5" type="curve" smooth="yes"/>
      <point x="468" y="-5"/>
      <point x="540" y="-91"/>
      <point x="615" y="-211" type="curve"/>
      <point x="633" y="-78" type="line"/>
      <point x="562" y="108"/>
      <point x="461" y="186"/>
      <point x="317" y="186" type="curve" smooth="yes"/>
    </contour>
    <contour>
      <point x="902" y="1167" type="move" name="top"/>
    </contour>
    <contour>
      <point x="839" y="-479" type="move" name="bottom"/>
    </contour>
    <contour>
      <point x="559" y="1167" type="move" name="topcandra"/>
    </contour>
  </outline>
</glyph>
